<svg width="29" height="29" viewBox="0 0 29 29" fill="none" xmlns="http://www.w3.org/2000/svg">
<path d="M25.0943 11.6202C25.0943 11.6202 23.7604 12.8321 21.5309 14.2776C20.9227 10.7417 19.2357 6.37674 15.895 1.04712C15.895 1.04712 14.8025 6.76393 11.1643 12.1749C9.57661 9.72581 8.89542 7.80299 8.89542 7.80299C-2.5522 19.2126 6.93717 27.2971 12.8968 27.2971C20.546 27.2971 27.2774 23.6392 25.0943 11.6202ZM13.2888 26.5674C11.6219 26.5674 7.90142 25.4054 6.10286 20.0561C6.10286 20.0561 6.74905 20.3868 7.79992 20.7696C7.8428 18.9203 8.58611 16.5539 10.4879 13.5684C10.4879 13.5684 10.9648 14.8502 12.076 16.483C14.6227 12.8754 15.3875 9.06256 15.3875 9.06256C17.7264 12.6172 18.9072 15.5279 19.3333 17.8856C20.8934 16.9214 21.8275 16.1129 21.8275 16.1129C21.7212 18.4854 21.2631 20.3448 20.6003 21.7982C21.6437 21.6271 22.303 21.4451 22.303 21.4451C19.2987 25.688 16.2669 26.5674 13.2888 26.5674Z" fill="url(#paint0_linear_220_6291)"/>
<path d="M9.71509 19.3582C9.71509 19.3582 10.9423 21.0321 11.8755 20.6278C11.8755 20.6278 13.6495 17.8711 16.1953 16.3386C16.1953 16.3386 15.6725 20.5412 16.2737 21.284C17.0708 22.2719 19.2307 20.1886 19.2307 20.1886C19.2307 22.6718 16.5047 25.8008 14.0656 25.8008C11.644 25.8008 8.21096 23.1076 9.71509 19.3582ZM21.9402 8.09868C22.8593 6.76824 23.4841 5.40543 23.4841 5.40543C25.0254 7.93199 24.1158 9.46849 23.4386 9.9703C22.5299 10.6449 20.8792 9.63649 21.9402 8.09868ZM5.16509 7.66686C4.26559 6.12468 4.16453 4.20274 4.16453 4.20274C1.96696 7.50455 2.82534 9.30268 3.5564 9.84693C4.53728 10.5776 6.20328 9.4488 5.16509 7.66686ZM10.2777 4.23686C10.3897 3.20043 9.95528 2.12549 9.95528 2.12549C12.0395 3.46599 12.0146 4.63368 11.7429 5.08824C11.3767 5.69811 10.1478 5.4343 10.2777 4.23686Z" fill="url(#paint1_linear_220_6291)"/>
<defs>
<linearGradient id="paint0_linear_220_6291" x1="14.5147" y1="1.04712" x2="14.5147" y2="27.2971" gradientUnits="userSpaceOnUse">
<stop stop-color="#FAFF00"/>
<stop offset="0.307292" stop-color="#F9E81B"/>
<stop offset="0.505208" stop-color="white"/>
<stop offset="0.744792" stop-color="#FFD600"/>
<stop offset="1" stop-color="#FAFF00"/>
</linearGradient>
<linearGradient id="paint1_linear_220_6291" x1="13.5446" y1="2.12549" x2="13.5446" y2="25.8008" gradientUnits="userSpaceOnUse">
<stop stop-color="#FAFF00"/>
<stop offset="0.307292" stop-color="#F9E81B"/>
<stop offset="0.505208" stop-color="white"/>
<stop offset="0.744792" stop-color="#FFD600"/>
<stop offset="1" stop-color="#FAFF00"/>
</linearGradient>
</defs>
</svg>
