<svg width="107" height="107" viewBox="0 0 107 107" fill="none" xmlns="http://www.w3.org/2000/svg">
<circle cx="45.0522" cy="48.7844" r="44.8058" transform="rotate(-20 45.0522 48.7844)" fill="#23A6F0"/>
<path d="M23.8228 66.1179L18.2126 51.5173L27.2666 48.0384L27.9953 49.9347L21.1442 52.5672L22.8535 57.0158L29.0559 54.6326L29.7818 56.5218L23.5794 58.9051L26.0257 65.2714L23.8228 66.1179ZM35.3851 61.6751L29.7749 47.0746L34.9792 45.0748C36.1104 44.6402 37.1239 44.4744 38.0199 44.5774C38.9206 44.6786 39.6887 45.0025 40.3242 45.5492C40.9579 46.0912 41.4473 46.8113 41.7925 47.7096C42.1358 48.6031 42.2503 49.4618 42.136 50.2857C42.0246 51.1031 41.6656 51.8437 41.0589 52.5077C40.457 53.1699 39.5905 53.7184 38.4593 54.153L34.5169 55.6679L33.7882 53.7715L37.531 52.3333C38.2439 52.0594 38.7845 51.7344 39.1527 51.3584C39.5257 50.9805 39.7419 50.5565 39.8013 50.0865C39.8606 49.6164 39.7853 49.1081 39.5753 48.5615C39.3635 48.0102 39.073 47.5736 38.7039 47.2518C38.3395 46.9282 37.8905 46.7462 37.3568 46.7058C36.826 46.6588 36.1971 46.775 35.4699 47.0545L32.7038 48.1173L37.588 60.8286L35.3851 61.6751ZM40.0616 52.3183L46.2001 57.5195L43.6906 58.4837L37.6234 53.2551L40.0616 52.3183ZM48.1238 56.7803L42.5136 42.1798L51.6675 38.6624L52.3961 40.5588L45.4452 43.2297L47.1546 47.6783L53.6278 45.1909L54.3538 47.0802L47.8805 49.5675L49.5981 54.0375L56.6345 51.3337L57.3632 53.2301L48.1238 56.7803ZM60.0195 52.2094L54.4093 37.6089L63.5631 34.0916L64.2918 35.9879L57.3409 38.6588L59.0502 43.1074L65.5235 40.6201L66.2494 42.5093L59.7761 44.9966L61.4937 49.4666L68.5302 46.7629L69.2589 48.6592L60.0195 52.2094ZM68.8215 32.0711L72.6329 42.5437L70.6581 43.3025L66.476 32.9723L68.8215 32.0711ZM73.3146 47.2563C72.9201 47.4079 72.5297 47.3997 72.1434 47.2318C71.7552 47.0591 71.4877 46.7746 71.3409 46.3783C71.1864 45.9904 71.1964 45.6048 71.3709 45.2214C71.5435 44.8332 71.8271 44.5633 72.2216 44.4118C72.6066 44.2638 72.9931 44.2762 73.3813 44.4489C73.7676 44.6168 74.038 44.8947 74.1925 45.2826C74.2882 45.5458 74.3115 45.8123 74.2625 46.0821C74.2163 46.3453 74.111 46.5821 73.9464 46.7926C73.7818 47.0031 73.5712 47.1577 73.3146 47.2563Z" fill="white"/>
</svg>
