<svg width="24" height="34" viewBox="0 0 24 34" fill="none" xmlns="http://www.w3.org/2000/svg">
<path d="M12.016 0.605469C5.65159 0.605469 0.50415 5.77529 0.50415 12.1674C0.50415 15.0413 1.32643 17.7336 2.82297 20.1616C4.38529 22.7052 6.44098 24.8855 8.01974 27.4291C8.79268 28.6679 9.35183 29.824 9.94387 31.1619C10.3715 32.0704 10.7168 33.6395 12.016 33.6395C13.3152 33.6395 13.6606 32.0704 14.0717 31.1619C14.6802 29.824 15.2229 28.6679 15.9958 27.4291C17.5746 24.902 19.6303 22.7217 21.1926 20.1616C22.7056 17.7336 23.5279 15.0413 23.5279 12.1674C23.5279 5.77529 18.3804 0.605469 12.016 0.605469ZM12.016 16.7095C9.74652 16.7095 7.90463 14.8596 7.90463 12.5803C7.90463 10.301 9.74652 8.45105 12.016 8.45105C14.2855 8.45105 16.1274 10.301 16.1274 12.5803C16.1274 14.8596 14.2855 16.7095 12.016 16.7095Z" fill="#3725A2"/>
<path d="M12.016 0.605469C5.65159 0.605469 0.50415 5.77529 0.50415 12.1674C0.50415 15.0413 1.32643 17.7336 2.82297 20.1616C4.38529 22.7052 6.44098 24.8855 8.01974 27.4291C8.79268 28.6679 9.35183 29.824 9.94387 31.1619C10.3715 32.0704 10.7168 33.6395 12.016 33.6395C13.3152 33.6395 13.6606 32.0704 14.0717 31.1619C14.6802 29.824 15.2229 28.6679 15.9958 27.4291C17.5746 24.902 19.6303 22.7217 21.1926 20.1616C22.7056 17.7336 23.5279 15.0413 23.5279 12.1674C23.5279 5.77529 18.3804 0.605469 12.016 0.605469ZM12.016 16.7095C9.74652 16.7095 7.90463 14.8596 7.90463 12.5803C7.90463 10.301 9.74652 8.45105 12.016 8.45105C14.2855 8.45105 16.1274 10.301 16.1274 12.5803C16.1274 14.8596 14.2855 16.7095 12.016 16.7095Z" fill="black" fill-opacity="0.2"/>
</svg>
