<svg width="92" height="92" viewBox="0 0 92 92" fill="none" xmlns="http://www.w3.org/2000/svg">
<path d="M64.6875 73.3125H27.3125L44.0522 57.8608C45.1519 56.8459 46.8481 56.8459 47.9478 57.8608L64.6875 73.3125Z" fill="#F72585"/>
<path d="M83.375 42.0354C83.375 40.5217 82.7612 39.0396 81.6902 37.9701L77.625 33.9049V20.125C77.625 18.2534 76.4189 16.6736 74.75 16.077V12.9375C74.75 11.3519 73.4606 10.0625 71.875 10.0625H20.125C18.5394 10.0625 17.25 11.3519 17.25 12.9375V16.077C15.5811 16.6736 14.375 18.2534 14.375 20.125V33.9049L10.3097 37.9701C9.23881 39.0396 8.625 40.5217 8.625 42.0354V43.125H8.63075C8.62931 43.1509 8.625 43.1753 8.625 43.2012V74.75C8.625 78.7132 11.8493 81.9375 15.8125 81.9375H76.1875C80.1507 81.9375 83.375 78.7132 83.375 74.75V43.2012C83.375 43.1753 83.3707 43.1509 83.3692 43.125H83.375V42.0354ZM80.5 74.75C80.5 75.4443 80.3203 76.0912 80.0271 76.6719L59.1373 56.6188L78.1828 42.0569C78.6284 41.7134 79.1962 41.6587 79.6979 41.9089C80.1996 42.1561 80.5 42.6406 80.5 43.2012V74.75ZM71.875 12.9375V15.8125H20.125V12.9375H71.875ZM18.6875 18.6875H73.3125C74.106 18.6875 74.75 19.3315 74.75 20.125V41.0622L57.04 54.6049L50.9752 48.783C48.185 46.1049 43.8136 46.1049 41.0248 48.783L34.96 54.6049L17.25 41.0607V20.125C17.25 19.3315 17.894 18.6875 18.6875 18.6875ZM11.9729 76.6734C11.6811 76.0912 11.5 75.4443 11.5 74.75V43.2012C11.5 42.6406 11.8004 42.1561 12.3036 41.9103C12.8053 41.6588 13.3731 41.7162 13.8187 42.0569L32.8641 56.6217L11.9729 76.6734ZM15.8125 79.0625C15.18 79.0625 14.5834 78.9173 14.0429 78.6729L43.0158 50.8588C44.689 49.2502 47.311 49.2502 48.9842 50.8588L77.9585 78.6729C77.4166 78.9173 76.82 79.0625 76.1875 79.0625H15.8125Z" fill="url(#paint0_linear_1_351)"/>
<path d="M28.75 25.875H63.25V28.75H28.75V25.875Z" fill="#3725A2"/>
<path d="M28.75 31.625H63.25V34.5H28.75V31.625Z" fill="#3725A2"/>
<path d="M28.75 37.375H44.5625V40.25H28.75V37.375Z" fill="#3725A2"/>
<path d="M47.4375 37.375H63.25V40.25H47.4375V37.375Z" fill="#3725A2"/>
<defs>
<linearGradient id="paint0_linear_1_351" x1="46" y1="10.0625" x2="46" y2="83.1493" gradientUnits="userSpaceOnUse">
<stop stop-color="#3725A2"/>
<stop offset="1" stop-color="#3725A2"/>
</linearGradient>
</defs>
</svg>
