<svg xmlns="http://www.w3.org/2000/svg" width="26" height="25" viewBox="0 0 26 25" fill="none">
                              <path fill-rule="evenodd" clip-rule="evenodd" d="M11.9036 0.343209C9.05349 0.78142 6.7484 2.97573 6.15358
                               5.81697C5.3559 9.62752 7.21521 13.6079 10.549 15.226C11.448 15.6623 11.5207 15.6762 12.8991 15.6762C14.2796
                               15.6762 14.3489 15.6629 15.2492 15.2239C16.9731 14.3831 18.1963 13.1045 19.0495 11.2512C19.6595 9.92613
                               19.866 8.80657 19.7803 7.2876C19.6785 5.4813 19.4086 4.59786 18.5755 3.3437C17.1256 1.16066 14.4407 -0.0467992
                               11.9036 0.343209ZM5.86167 16.7422C2.43879 18.4128 0.323449 21.0305 0.0732244 23.9054L0 24.7478L12.8505
                               24.7193L25.701 24.6908L25.6907 23.9396C25.6617 21.8393 24.0067 19.2889 21.6413 17.6997C20.7173 17.079
                               18.6228 16.0745 18.4181 16.154C18.331 16.1878 17.5406 17.347 16.6617 18.7302C15.7828 20.1132 15.011 21.2276
                               14.9466 21.2067C14.8821 21.1858 14.6789 20.7002 14.4951 20.1278C14.3112 19.5553 14.0856 19.0387 13.9938
                               18.9798C13.7318 18.8118 11.9858 18.8472 11.7473 19.0254C11.6322 19.1115 11.4106 19.6326 11.2552 20.1835C11.0996
                               20.7344 10.9189 21.1828 10.8534 21.1799C10.7881 21.177 10.4563 20.7393 10.1161 20.2071C8.0845 17.028 7.49908
                               16.1738 7.33308 16.1458C7.23104 16.1287 6.56893 16.3971 5.86167 16.7422ZM11.7491 16.444C11.6027 16.5921 11.6528
                               17.9329 11.8107 18.0926C12.03 18.3146 13.8175 18.2927 14.0037 18.0656C14.0894 17.961 14.1337 17.5887 14.1115
                               17.1579L14.0742 16.4274L12.955 16.3917C12.3394 16.3721 11.7967 16.3956 11.7491 16.444ZM22.8474 22.1957C22.9543
                               22.304 23.0417 22.4972 23.0417 22.625C23.0417 23.1964 22.8004 23.251 20.2746 23.251C17.7291 23.251 17.5994 23.2207
                               17.5994 22.625C17.5994 22.0293 17.7291 21.999 20.2746 21.999C22.2719 21.999 22.6841 22.0305 22.8474 22.1957Z" fill="black"/>
                          </svg>