<svg width="17" height="15" viewBox="0 0 17 15" fill="none" xmlns="http://www.w3.org/2000/svg">
<path fill-rule="evenodd" clip-rule="evenodd" d="M12.49 0.106089C12.4701 0.125432 12.4539 0.743789 12.4539 1.48021C12.4539 2.37836 12.4352 2.81909 12.3971 2.81909C12.3497 2.81909 10.733 1.69326 8.96701 0.430488C8.41974 0.0391265 8.55283 0.002765 7.32001 0.880461C6.73534 1.29666 5.22196 2.37112 3.95689 3.26816C2.69182 4.16515 1.27206 5.17254 0.801863 5.50677C-0.195312 6.21561 -0.162894 6.11858 0.357856 6.83677C0.824811 7.4807 0.696166 7.49392 1.83606 6.68472C2.36254 6.31101 4.05366 5.10997 5.59415 4.01574C7.13459 2.92157 8.42537 2.02696 8.46255 2.02775C8.49968 2.02854 8.96847 2.33952 9.50427 2.71883C10.0401 3.09814 11.0873 3.83816 11.8315 4.36329C12.5756 4.88847 13.3063 5.40625 13.4551 5.51396C14.627 6.36201 16.0838 7.36401 16.1431 7.36279C16.2341 7.361 17 6.32195 17 6.20023C17 6.14352 16.5771 5.81114 15.8616 5.30546C14.4178 4.28517 14.5757 4.66607 14.5906 2.23773C14.5984 0.970942 14.5832 0.178019 14.5502 0.136901C14.4932 0.065922 12.5607 0.0370125 12.49 0.106089ZM6.22996 4.54409C5.05419 5.37702 3.70252 6.33495 3.22626 6.67277L2.36033 7.28706V10.6685V14.0499H4.55222H6.74411L6.77117 11.8302L6.79823 9.61044H8.47598H10.1537L10.1808 11.8302L10.2078 14.0499L12.3423 14.0638C13.794 14.0732 14.4951 14.0596 14.5341 14.0215C14.6336 13.9244 14.6102 7.40243 14.5101 7.28457C14.4664 7.2332 14.2559 7.06958 14.0422 6.92096C13.8286 6.7724 12.5132 5.84396 11.119 4.85782C9.72487 3.87167 8.53551 3.05692 8.47598 3.04725C8.40318 3.03546 7.66752 3.52571 6.22996 4.54409Z" fill="black" fill-opacity="0.5"/>
</svg>
