<svg width="381" height="619" viewBox="0 0 381 619" fill="none" xmlns="http://www.w3.org/2000/svg">
<path d="M4 107H378L295.326 379H95.5316L4 107Z" fill="#23A6F0"/>
<path d="M163.192 267.927C163.192 269.325 162.936 270.527 162.425 271.532C161.913 272.534 161.212 273.305 160.322 273.846C159.435 274.383 158.427 274.652 157.298 274.652C156.165 274.652 155.153 274.383 154.262 273.846C153.376 273.305 152.677 272.532 152.165 271.526C151.654 270.52 151.398 269.321 151.398 267.927C151.398 266.529 151.654 265.33 152.165 264.328C152.677 263.323 153.376 262.551 154.262 262.015C155.153 261.473 156.165 261.203 157.298 261.203C158.427 261.203 159.435 261.473 160.322 262.015C161.212 262.551 161.913 263.323 162.425 264.328C162.936 265.33 163.192 266.529 163.192 267.927ZM161.236 267.927C161.236 266.862 161.063 265.965 160.718 265.236C160.377 264.503 159.908 263.949 159.312 263.574C158.719 263.195 158.048 263.005 157.298 263.005C156.544 263.005 155.871 263.195 155.278 263.574C154.686 263.949 154.217 264.503 153.872 265.236C153.531 265.965 153.361 266.862 153.361 267.927C153.361 268.993 153.531 269.892 153.872 270.625C154.217 271.353 154.686 271.907 155.278 272.287C155.871 272.662 156.544 272.849 157.298 272.849C158.048 272.849 158.719 272.662 159.312 272.287C159.908 271.907 160.377 271.353 160.718 270.625C161.063 269.892 161.236 268.993 161.236 267.927ZM165.321 278.154V264.654H167.187V266.246H167.347C167.458 266.042 167.618 265.805 167.826 265.537C168.035 265.268 168.325 265.034 168.696 264.833C169.066 264.629 169.557 264.527 170.166 264.527C170.959 264.527 171.666 264.727 172.288 265.127C172.91 265.528 173.398 266.105 173.752 266.86C174.11 267.614 174.289 268.522 174.289 269.583C174.289 270.644 174.112 271.554 173.758 272.312C173.405 273.066 172.919 273.648 172.301 274.057C171.683 274.462 170.978 274.664 170.185 274.664C169.588 274.664 169.101 274.564 168.721 274.364C168.346 274.164 168.052 273.929 167.839 273.661C167.626 273.392 167.462 273.154 167.347 272.945H167.232V278.154H165.321ZM167.194 269.564C167.194 270.254 167.294 270.859 167.494 271.379C167.694 271.899 167.984 272.306 168.363 272.6C168.743 272.89 169.207 273.034 169.757 273.034C170.328 273.034 170.805 272.883 171.189 272.581C171.572 272.274 171.862 271.858 172.058 271.334C172.258 270.81 172.358 270.22 172.358 269.564C172.358 268.916 172.26 268.334 172.064 267.819C171.873 267.303 171.583 266.896 171.195 266.598C170.812 266.299 170.332 266.15 169.757 266.15C169.203 266.15 168.734 266.293 168.351 266.578C167.971 266.864 167.684 267.262 167.488 267.774C167.292 268.285 167.194 268.882 167.194 269.564ZM180.482 274.671C179.514 274.671 178.681 274.464 177.982 274.051C177.288 273.633 176.751 273.047 176.372 272.293C175.997 271.534 175.809 270.646 175.809 269.627C175.809 268.622 175.997 267.735 176.372 266.968C176.751 266.201 177.279 265.603 177.957 265.172C178.639 264.742 179.435 264.527 180.347 264.527C180.901 264.527 181.438 264.618 181.958 264.801C182.478 264.985 182.945 265.272 183.358 265.664C183.771 266.056 184.097 266.566 184.336 267.192C184.575 267.814 184.694 268.571 184.694 269.461V270.139H176.889V268.707H182.821C182.821 268.204 182.719 267.759 182.514 267.371C182.31 266.979 182.022 266.67 181.651 266.444C181.285 266.218 180.855 266.105 180.36 266.105C179.823 266.105 179.355 266.238 178.954 266.502C178.558 266.762 178.251 267.103 178.033 267.525C177.82 267.942 177.714 268.396 177.714 268.886V270.005C177.714 270.661 177.829 271.219 178.059 271.679C178.293 272.14 178.619 272.491 179.037 272.734C179.455 272.973 179.943 273.092 180.501 273.092C180.863 273.092 181.193 273.041 181.492 272.939C181.79 272.832 182.048 272.674 182.265 272.466C182.482 272.257 182.649 271.999 182.764 271.692L184.573 272.018C184.428 272.551 184.168 273.017 183.793 273.418C183.422 273.814 182.955 274.123 182.393 274.345C181.835 274.562 181.198 274.671 180.482 274.671ZM188.546 268.643V274.473H186.635V264.654H188.469V266.252H188.591C188.816 265.733 189.17 265.315 189.652 265C190.137 264.684 190.749 264.527 191.486 264.527C192.155 264.527 192.741 264.667 193.244 264.949C193.747 265.225 194.137 265.639 194.414 266.189C194.691 266.738 194.829 267.418 194.829 268.228V274.473H192.918V268.458C192.918 267.746 192.733 267.19 192.362 266.789C191.991 266.385 191.482 266.182 190.834 266.182C190.391 266.182 189.997 266.278 189.652 266.47C189.311 266.662 189.04 266.943 188.84 267.314C188.644 267.68 188.546 268.123 188.546 268.643ZM204.653 274.69C204.031 274.69 203.469 274.575 202.966 274.345C202.463 274.11 202.065 273.772 201.77 273.328C201.481 272.885 201.336 272.342 201.336 271.699C201.336 271.145 201.442 270.689 201.655 270.331C201.868 269.973 202.156 269.689 202.518 269.48C202.881 269.272 203.285 269.114 203.733 269.007C204.18 268.901 204.636 268.82 205.101 268.765C205.689 268.696 206.166 268.641 206.533 268.598C206.899 268.551 207.165 268.477 207.332 268.375C207.498 268.272 207.581 268.106 207.581 267.876V267.831C207.581 267.273 207.423 266.841 207.108 266.534C206.797 266.227 206.332 266.074 205.714 266.074C205.071 266.074 204.564 266.216 204.193 266.502C203.827 266.783 203.573 267.096 203.432 267.441L201.636 267.032C201.849 266.436 202.16 265.954 202.569 265.588C202.983 265.217 203.458 264.949 203.995 264.782C204.532 264.612 205.096 264.527 205.689 264.527C206.081 264.527 206.496 264.574 206.935 264.667C207.378 264.757 207.792 264.923 208.175 265.166C208.563 265.409 208.881 265.756 209.128 266.208C209.375 266.655 209.498 267.237 209.498 267.953V274.473H207.632V273.13H207.555C207.432 273.377 207.246 273.62 206.999 273.859C206.752 274.098 206.435 274.296 206.047 274.453C205.659 274.611 205.194 274.69 204.653 274.69ZM205.069 273.156C205.597 273.156 206.049 273.051 206.424 272.843C206.803 272.634 207.091 272.361 207.287 272.025C207.487 271.684 207.587 271.319 207.587 270.931V269.666C207.519 269.734 207.387 269.798 207.191 269.858C206.999 269.913 206.78 269.962 206.533 270.005C206.285 270.043 206.045 270.079 205.81 270.113C205.576 270.143 205.38 270.169 205.222 270.19C204.851 270.237 204.513 270.316 204.206 270.426C203.903 270.537 203.66 270.697 203.477 270.906C203.298 271.11 203.209 271.383 203.209 271.724C203.209 272.197 203.383 272.555 203.733 272.798C204.082 273.037 204.528 273.156 205.069 273.156ZM211.864 278.154V264.654H213.731V266.246H213.89C214.001 266.042 214.161 265.805 214.37 265.537C214.579 265.268 214.868 265.034 215.239 264.833C215.61 264.629 216.1 264.527 216.709 264.527C217.502 264.527 218.209 264.727 218.831 265.127C219.454 265.528 219.942 266.105 220.295 266.86C220.653 267.614 220.832 268.522 220.832 269.583C220.832 270.644 220.655 271.554 220.302 272.312C219.948 273.066 219.462 273.648 218.844 274.057C218.226 274.462 217.521 274.664 216.728 274.664C216.132 274.664 215.644 274.564 215.265 274.364C214.89 274.164 214.596 273.929 214.383 273.661C214.169 273.392 214.005 273.154 213.89 272.945H213.775V278.154H211.864ZM213.737 269.564C213.737 270.254 213.837 270.859 214.037 271.379C214.238 271.899 214.527 272.306 214.907 272.6C215.286 272.89 215.75 273.034 216.3 273.034C216.871 273.034 217.348 272.883 217.732 272.581C218.116 272.274 218.405 271.858 218.601 271.334C218.802 270.81 218.902 270.22 218.902 269.564C218.902 268.916 218.804 268.334 218.608 267.819C218.416 267.303 218.126 266.896 217.738 266.598C217.355 266.299 216.875 266.15 216.3 266.15C215.746 266.15 215.277 266.293 214.894 266.578C214.515 266.864 214.227 267.262 214.031 267.774C213.835 268.285 213.737 268.882 213.737 269.564ZM222.793 278.154V264.654H224.66V266.246H224.82C224.931 266.042 225.09 265.805 225.299 265.537C225.508 265.268 225.798 265.034 226.168 264.833C226.539 264.629 227.029 264.527 227.639 264.527C228.431 264.527 229.139 264.727 229.761 265.127C230.383 265.528 230.871 266.105 231.225 266.86C231.583 267.614 231.762 268.522 231.762 269.583C231.762 270.644 231.585 271.554 231.231 272.312C230.877 273.066 230.391 273.648 229.774 274.057C229.156 274.462 228.45 274.664 227.658 274.664C227.061 274.664 226.573 274.564 226.194 274.364C225.819 274.164 225.525 273.929 225.312 273.661C225.099 273.392 224.935 273.154 224.82 272.945H224.705V278.154H222.793ZM224.666 269.564C224.666 270.254 224.766 270.859 224.967 271.379C225.167 271.899 225.457 272.306 225.836 272.6C226.215 272.89 226.68 273.034 227.23 273.034C227.801 273.034 228.278 272.883 228.661 272.581C229.045 272.274 229.335 271.858 229.531 271.334C229.731 270.81 229.831 270.22 229.831 269.564C229.831 268.916 229.733 268.334 229.537 267.819C229.345 267.303 229.056 266.896 228.668 266.598C228.284 266.299 227.805 266.15 227.23 266.15C226.676 266.15 226.207 266.293 225.823 266.578C225.444 266.864 225.156 267.262 224.96 267.774C224.764 268.285 224.666 268.882 224.666 269.564Z" fill="white"/>
<path d="M154.81 231.905H150.572V218.814H154.944C156.227 218.814 157.329 219.076 158.249 219.601C159.169 220.12 159.875 220.868 160.365 221.844C160.859 222.816 161.106 223.981 161.106 225.341C161.106 226.704 160.857 227.876 160.358 228.856C159.864 229.836 159.148 230.591 158.211 231.119C157.273 231.643 156.14 231.905 154.81 231.905ZM152.547 230.179H154.701C155.699 230.179 156.527 229.992 157.188 229.617C157.848 229.238 158.343 228.69 158.671 227.974C158.999 227.254 159.163 226.376 159.163 225.341C159.163 224.314 158.999 223.442 158.671 222.726C158.347 222.01 157.863 221.467 157.22 221.096C156.576 220.726 155.777 220.54 154.823 220.54H152.547V230.179ZM167.365 232.103C166.444 232.103 165.641 231.892 164.955 231.471C164.269 231.049 163.736 230.459 163.357 229.7C162.978 228.941 162.788 228.055 162.788 227.041C162.788 226.022 162.978 225.132 163.357 224.369C163.736 223.606 164.269 223.014 164.955 222.592C165.641 222.17 166.444 221.959 167.365 221.959C168.285 221.959 169.088 222.17 169.774 222.592C170.46 223.014 170.993 223.606 171.372 224.369C171.752 225.132 171.941 226.022 171.941 227.041C171.941 228.055 171.752 228.941 171.372 229.7C170.993 230.459 170.46 231.049 169.774 231.471C169.088 231.892 168.285 232.103 167.365 232.103ZM167.371 230.499C167.968 230.499 168.462 230.341 168.854 230.026C169.246 229.711 169.536 229.291 169.723 228.767C169.915 228.243 170.011 227.665 170.011 227.035C170.011 226.408 169.915 225.833 169.723 225.309C169.536 224.78 169.246 224.356 168.854 224.037C168.462 223.717 167.968 223.557 167.371 223.557C166.77 223.557 166.272 223.717 165.875 224.037C165.483 224.356 165.191 224.78 165 225.309C164.812 225.833 164.718 226.408 164.718 227.035C164.718 227.665 164.812 228.243 165 228.767C165.191 229.291 165.483 229.711 165.875 230.026C166.272 230.341 166.77 230.499 167.371 230.499ZM175.724 231.905L172.835 222.087H174.81L176.734 229.297H176.83L178.761 222.087H180.736L182.653 229.265H182.749L184.66 222.087H186.636L183.753 231.905H181.803L179.809 224.816H179.662L177.668 231.905H175.724ZM190.181 226.076V231.905H188.269V222.087H190.104V223.685H190.225C190.451 223.165 190.805 222.748 191.286 222.432C191.772 222.117 192.384 221.959 193.121 221.959C193.79 221.959 194.376 222.1 194.879 222.381C195.382 222.658 195.771 223.071 196.048 223.621C196.325 224.171 196.464 224.851 196.464 225.66V231.905H194.553V225.89C194.553 225.179 194.367 224.623 193.997 224.222C193.626 223.817 193.117 223.615 192.469 223.615C192.026 223.615 191.632 223.711 191.286 223.902C190.945 224.094 190.675 224.375 190.475 224.746C190.279 225.113 190.181 225.556 190.181 226.076ZM200.758 218.814V231.905H198.847V218.814H200.758ZM207.285 232.103C206.365 232.103 205.561 231.892 204.875 231.471C204.189 231.049 203.657 230.459 203.277 229.7C202.898 228.941 202.709 228.055 202.709 227.041C202.709 226.022 202.898 225.132 203.277 224.369C203.657 223.606 204.189 223.014 204.875 222.592C205.561 222.17 206.365 221.959 207.285 221.959C208.206 221.959 209.009 222.17 209.695 222.592C210.381 223.014 210.914 223.606 211.293 224.369C211.672 225.132 211.862 226.022 211.862 227.041C211.862 228.055 211.672 228.941 211.293 229.7C210.914 230.459 210.381 231.049 209.695 231.471C209.009 231.892 208.206 232.103 207.285 232.103ZM207.292 230.499C207.888 230.499 208.383 230.341 208.775 230.026C209.167 229.711 209.456 229.291 209.644 228.767C209.836 228.243 209.932 227.665 209.932 227.035C209.932 226.408 209.836 225.833 209.644 225.309C209.456 224.78 209.167 224.356 208.775 224.037C208.383 223.717 207.888 223.557 207.292 223.557C206.691 223.557 206.192 223.717 205.796 224.037C205.404 224.356 205.112 224.78 204.92 225.309C204.733 225.833 204.639 226.408 204.639 227.035C204.639 227.665 204.733 228.243 204.92 228.767C205.112 229.291 205.404 229.711 205.796 230.026C206.192 230.341 206.691 230.499 207.292 230.499ZM216.673 232.123C216.05 232.123 215.488 232.008 214.985 231.777C214.482 231.543 214.084 231.204 213.79 230.761C213.5 230.318 213.355 229.775 213.355 229.131C213.355 228.577 213.462 228.121 213.675 227.763C213.888 227.405 214.175 227.122 214.538 226.913C214.9 226.704 215.305 226.547 215.752 226.44C216.2 226.334 216.655 226.253 217.12 226.197C217.708 226.129 218.185 226.074 218.552 226.031C218.918 225.984 219.185 225.91 219.351 225.807C219.517 225.705 219.6 225.539 219.6 225.309V225.264C219.6 224.706 219.442 224.273 219.127 223.966C218.816 223.66 218.351 223.506 217.734 223.506C217.09 223.506 216.583 223.649 216.212 223.934C215.846 224.216 215.592 224.529 215.452 224.874L213.655 224.465C213.869 223.868 214.18 223.387 214.589 223.02C215.002 222.65 215.477 222.381 216.014 222.215C216.551 222.044 217.116 221.959 217.708 221.959C218.1 221.959 218.516 222.006 218.954 222.1C219.398 222.189 219.811 222.356 220.195 222.598C220.582 222.841 220.9 223.189 221.147 223.64C221.394 224.088 221.518 224.669 221.518 225.385V231.905H219.651V230.563H219.575C219.451 230.81 219.266 231.053 219.018 231.292C218.771 231.53 218.454 231.728 218.066 231.886C217.678 232.044 217.214 232.123 216.673 232.123ZM217.088 230.589C217.616 230.589 218.068 230.484 218.443 230.275C218.822 230.066 219.11 229.794 219.306 229.457C219.506 229.116 219.606 228.752 219.606 228.364V227.098C219.538 227.167 219.406 227.231 219.21 227.29C219.018 227.346 218.799 227.395 218.552 227.437C218.305 227.476 218.064 227.512 217.829 227.546C217.595 227.576 217.399 227.601 217.241 227.623C216.871 227.669 216.532 227.748 216.225 227.859C215.923 227.97 215.68 228.13 215.496 228.339C215.317 228.543 215.228 228.816 215.228 229.157C215.228 229.63 215.403 229.988 215.752 230.231C216.101 230.469 216.547 230.589 217.088 230.589ZM227.559 232.097C226.766 232.097 226.059 231.895 225.437 231.49C224.819 231.081 224.333 230.499 223.979 229.745C223.63 228.986 223.455 228.076 223.455 227.015C223.455 225.954 223.632 225.047 223.986 224.292C224.344 223.538 224.834 222.961 225.456 222.56C226.078 222.16 226.783 221.959 227.572 221.959C228.181 221.959 228.671 222.062 229.042 222.266C229.417 222.466 229.706 222.701 229.911 222.969C230.12 223.238 230.282 223.474 230.397 223.679H230.512V218.814H232.423V231.905H230.557V230.378H230.397C230.282 230.586 230.116 230.825 229.898 231.093C229.685 231.362 229.391 231.596 229.016 231.797C228.641 231.997 228.155 232.097 227.559 232.097ZM227.981 230.467C228.53 230.467 228.995 230.322 229.374 230.032C229.758 229.738 230.047 229.331 230.243 228.812C230.444 228.292 230.544 227.687 230.544 226.996C230.544 226.314 230.446 225.718 230.25 225.206C230.054 224.695 229.766 224.297 229.387 224.011C229.008 223.726 228.539 223.583 227.981 223.583C227.405 223.583 226.926 223.732 226.542 224.03C226.159 224.329 225.869 224.736 225.673 225.251C225.481 225.767 225.385 226.348 225.385 226.996C225.385 227.652 225.483 228.243 225.679 228.767C225.875 229.291 226.165 229.706 226.549 230.013C226.937 230.316 227.414 230.467 227.981 230.467Z" fill="white"/>
<path d="M182.454 177.518H180.46C180.383 177.092 180.241 176.717 180.032 176.393C179.823 176.069 179.567 175.794 179.265 175.568C178.962 175.342 178.623 175.172 178.248 175.057C177.878 174.942 177.483 174.884 177.066 174.884C176.312 174.884 175.636 175.074 175.04 175.453C174.447 175.832 173.978 176.388 173.633 177.121C173.292 177.854 173.122 178.749 173.122 179.806C173.122 180.871 173.292 181.771 173.633 182.504C173.978 183.237 174.449 183.79 175.046 184.165C175.642 184.54 176.314 184.728 177.059 184.728C177.473 184.728 177.865 184.673 178.236 184.562C178.611 184.447 178.949 184.278 179.252 184.057C179.554 183.835 179.81 183.565 180.019 183.245C180.232 182.921 180.379 182.55 180.46 182.133L182.454 182.139C182.348 182.783 182.141 183.375 181.834 183.916C181.532 184.453 181.142 184.918 180.665 185.31C180.191 185.697 179.65 185.998 179.041 186.211C178.432 186.424 177.767 186.531 177.047 186.531C175.913 186.531 174.903 186.262 174.017 185.725C173.13 185.184 172.432 184.411 171.92 183.405C171.413 182.399 171.16 181.2 171.16 179.806C171.16 178.408 171.415 177.209 171.927 176.207C172.438 175.202 173.137 174.43 174.023 173.893C174.91 173.352 175.917 173.082 177.047 173.082C177.741 173.082 178.389 173.182 178.99 173.382C179.595 173.578 180.138 173.868 180.62 174.251C181.101 174.631 181.5 175.095 181.815 175.645C182.13 176.19 182.343 176.815 182.454 177.518ZM186.396 173.261V186.352H184.484V173.261H186.396ZM188.787 186.352V176.533H190.698V186.352H188.787ZM189.752 175.018C189.42 175.018 189.134 174.908 188.895 174.686C188.661 174.46 188.544 174.192 188.544 173.881C188.544 173.565 188.661 173.297 188.895 173.075C189.134 172.849 189.42 172.737 189.752 172.737C190.084 172.737 190.368 172.849 190.602 173.075C190.841 173.297 190.96 173.565 190.96 173.881C190.96 174.192 190.841 174.46 190.602 174.686C190.368 174.908 190.084 175.018 189.752 175.018ZM197.225 186.55C196.275 186.55 195.456 186.335 194.77 185.904C194.088 185.469 193.564 184.871 193.198 184.108C192.831 183.345 192.648 182.472 192.648 181.487C192.648 180.49 192.836 179.61 193.211 178.847C193.586 178.08 194.114 177.482 194.796 177.051C195.478 176.621 196.281 176.406 197.206 176.406C197.951 176.406 198.616 176.544 199.2 176.821C199.784 177.094 200.255 177.477 200.613 177.972C200.975 178.466 201.19 179.043 201.258 179.704H199.398C199.296 179.244 199.061 178.847 198.695 178.515C198.333 178.183 197.847 178.016 197.238 178.016C196.705 178.016 196.238 178.157 195.838 178.438C195.441 178.715 195.132 179.112 194.911 179.627C194.689 180.138 194.579 180.744 194.579 181.442C194.579 182.158 194.687 182.776 194.905 183.296C195.122 183.816 195.429 184.219 195.825 184.504C196.226 184.79 196.696 184.933 197.238 184.933C197.6 184.933 197.928 184.866 198.222 184.734C198.52 184.598 198.77 184.404 198.97 184.153C199.174 183.901 199.317 183.599 199.398 183.245H201.258C201.19 183.88 200.983 184.447 200.638 184.945C200.293 185.444 199.831 185.836 199.251 186.121C198.676 186.407 198 186.55 197.225 186.55ZM204.88 183.021L204.867 180.688H205.199L209.111 176.533H211.4L206.938 181.263H206.638L204.88 183.021ZM203.122 186.352V173.261H205.033V186.352H203.122ZM209.322 186.352L205.807 181.685L207.123 180.349L211.668 186.352H209.322Z" fill="white"/>
<path d="M172.609 124.909L176.253 135.571H176.4L180.043 124.909H182.178L177.467 138H175.185L170.474 124.909H172.609ZM183.735 138V128.182H185.646V138H183.735ZM184.7 126.667C184.368 126.667 184.082 126.556 183.844 126.335C183.609 126.109 183.492 125.84 183.492 125.529C183.492 125.214 183.609 124.945 183.844 124.724C184.082 124.498 184.368 124.385 184.7 124.385C185.033 124.385 185.316 124.498 185.55 124.724C185.789 124.945 185.908 125.214 185.908 125.529C185.908 125.84 185.789 126.109 185.55 126.335C185.316 126.556 185.033 126.667 184.7 126.667ZM192.269 138.198C191.302 138.198 190.469 137.991 189.77 137.578C189.075 137.161 188.538 136.575 188.159 135.82C187.784 135.062 187.597 134.173 187.597 133.155C187.597 132.149 187.784 131.263 188.159 130.496C188.538 129.729 189.067 129.13 189.744 128.7C190.426 128.269 191.223 128.054 192.135 128.054C192.689 128.054 193.226 128.146 193.746 128.329C194.266 128.512 194.732 128.8 195.146 129.192C195.559 129.584 195.885 130.093 196.124 130.719C196.362 131.342 196.481 132.098 196.481 132.989V133.666H188.677V132.234H194.609C194.609 131.732 194.506 131.286 194.302 130.898C194.097 130.506 193.81 130.197 193.439 129.972C193.072 129.746 192.642 129.633 192.148 129.633C191.611 129.633 191.142 129.765 190.741 130.029C190.345 130.289 190.038 130.63 189.821 131.052C189.608 131.469 189.501 131.923 189.501 132.413V133.532C189.501 134.188 189.616 134.746 189.847 135.207C190.081 135.667 190.407 136.018 190.825 136.261C191.242 136.5 191.73 136.619 192.288 136.619C192.651 136.619 192.981 136.568 193.279 136.466C193.577 136.359 193.835 136.202 194.052 135.993C194.27 135.784 194.436 135.526 194.551 135.219L196.36 135.545C196.215 136.078 195.955 136.545 195.58 136.945C195.209 137.342 194.743 137.651 194.18 137.872C193.622 138.089 192.985 138.198 192.269 138.198ZM200.533 138L197.644 128.182H199.619L201.543 135.392H201.639L203.569 128.182H205.544L207.462 135.36H207.558L209.469 128.182H211.444L208.561 138H206.612L204.618 130.911H204.471L202.476 138H200.533Z" fill="white"/>
<path d="M152.929 317.668V304.577H157.595C158.613 304.577 159.457 304.762 160.126 305.133C160.795 305.504 161.296 306.011 161.628 306.654C161.961 307.294 162.127 308.014 162.127 308.815C162.127 309.62 161.958 310.345 161.622 310.988C161.289 311.627 160.787 312.135 160.113 312.51C159.444 312.88 158.603 313.066 157.588 313.066H154.38V311.391H157.409C158.053 311.391 158.575 311.28 158.975 311.059C159.376 310.833 159.67 310.526 159.858 310.138C160.045 309.75 160.139 309.309 160.139 308.815C160.139 308.321 160.045 307.882 159.858 307.498C159.67 307.115 159.374 306.814 158.969 306.597C158.568 306.38 158.04 306.271 157.384 306.271H154.904V317.668H152.929ZM170.328 313.596V307.85H172.246V317.668H170.367V315.968H170.264C170.039 316.492 169.676 316.929 169.178 317.278C168.683 317.623 168.068 317.796 167.33 317.796C166.7 317.796 166.141 317.657 165.656 317.38C165.174 317.099 164.795 316.684 164.518 316.134C164.245 315.584 164.109 314.904 164.109 314.095V307.85H166.02V313.865C166.02 314.534 166.205 315.066 166.576 315.463C166.947 315.859 167.428 316.057 168.021 316.057C168.379 316.057 168.735 315.968 169.088 315.789C169.446 315.61 169.742 315.339 169.977 314.977C170.215 314.615 170.333 314.154 170.328 313.596ZM174.634 317.668V307.85H176.481V309.409H176.583C176.762 308.881 177.078 308.466 177.529 308.163C177.985 307.856 178.501 307.703 179.076 307.703C179.196 307.703 179.336 307.707 179.498 307.716C179.664 307.724 179.794 307.735 179.888 307.748V309.576C179.811 309.554 179.675 309.531 179.479 309.505C179.283 309.475 179.087 309.461 178.891 309.461C178.439 309.461 178.037 309.556 177.683 309.748C177.333 309.936 177.056 310.198 176.852 310.534C176.647 310.867 176.545 311.246 176.545 311.672V317.668H174.634ZM185.146 317.866C184.196 317.866 183.378 317.651 182.692 317.221C182.01 316.786 181.486 316.187 181.119 315.424C180.753 314.662 180.569 313.788 180.569 312.804C180.569 311.806 180.757 310.926 181.132 310.164C181.507 309.397 182.035 308.798 182.717 308.368C183.399 307.937 184.202 307.722 185.127 307.722C185.873 307.722 186.538 307.86 187.121 308.137C187.705 308.41 188.176 308.794 188.534 309.288C188.896 309.782 189.111 310.36 189.18 311.02H187.319C187.217 310.56 186.983 310.164 186.616 309.831C186.254 309.499 185.768 309.333 185.159 309.333C184.626 309.333 184.16 309.473 183.759 309.755C183.363 310.032 183.054 310.428 182.832 310.944C182.611 311.455 182.5 312.06 182.5 312.759C182.5 313.475 182.609 314.093 182.826 314.613C183.043 315.132 183.35 315.535 183.746 315.821C184.147 316.106 184.618 316.249 185.159 316.249C185.521 316.249 185.849 316.183 186.143 316.051C186.442 315.914 186.691 315.721 186.891 315.469C187.096 315.218 187.239 314.915 187.319 314.561H189.18C189.111 315.196 188.905 315.763 188.56 316.262C188.214 316.76 187.752 317.152 187.172 317.438C186.597 317.723 185.922 317.866 185.146 317.866ZM192.955 311.838V317.668H191.043V304.577H192.929V309.448H193.051C193.281 308.919 193.632 308.5 194.105 308.189C194.578 307.877 195.196 307.722 195.959 307.722C196.632 307.722 197.22 307.86 197.723 308.137C198.23 308.414 198.622 308.828 198.899 309.377C199.181 309.923 199.321 310.605 199.321 311.423V317.668H197.41V311.653C197.41 310.933 197.225 310.375 196.854 309.978C196.483 309.578 195.967 309.377 195.307 309.377C194.855 309.377 194.45 309.473 194.092 309.665C193.739 309.857 193.46 310.138 193.255 310.509C193.055 310.875 192.955 311.319 192.955 311.838ZM204.549 317.885C203.927 317.885 203.364 317.77 202.861 317.54C202.358 317.306 201.96 316.967 201.666 316.524C201.376 316.081 201.231 315.537 201.231 314.894C201.231 314.34 201.338 313.884 201.551 313.526C201.764 313.168 202.052 312.885 202.414 312.676C202.776 312.467 203.181 312.309 203.628 312.203C204.076 312.096 204.532 312.015 204.996 311.96C205.584 311.892 206.062 311.836 206.428 311.794C206.795 311.747 207.061 311.672 207.227 311.57C207.393 311.468 207.476 311.301 207.476 311.071V311.027C207.476 310.468 207.319 310.036 207.003 309.729C206.692 309.422 206.228 309.269 205.61 309.269C204.966 309.269 204.459 309.412 204.089 309.697C203.722 309.978 203.469 310.292 203.328 310.637L201.532 310.228C201.745 309.631 202.056 309.15 202.465 308.783C202.878 308.412 203.353 308.144 203.89 307.978C204.427 307.807 204.992 307.722 205.584 307.722C205.976 307.722 206.392 307.769 206.831 307.863C207.274 307.952 207.687 308.118 208.071 308.361C208.459 308.604 208.776 308.951 209.023 309.403C209.27 309.85 209.394 310.432 209.394 311.148V317.668H207.527V316.326H207.451C207.327 316.573 207.142 316.816 206.895 317.054C206.648 317.293 206.33 317.491 205.942 317.649C205.554 317.806 205.09 317.885 204.549 317.885ZM204.964 316.351C205.493 316.351 205.944 316.247 206.319 316.038C206.699 315.829 206.986 315.556 207.182 315.22C207.383 314.879 207.483 314.515 207.483 314.127V312.861C207.415 312.929 207.282 312.993 207.086 313.053C206.895 313.108 206.675 313.157 206.428 313.2C206.181 313.238 205.94 313.275 205.706 313.309C205.471 313.338 205.275 313.364 205.118 313.385C204.747 313.432 204.408 313.511 204.101 313.622C203.799 313.733 203.556 313.892 203.373 314.101C203.194 314.306 203.104 314.578 203.104 314.919C203.104 315.392 203.279 315.75 203.628 315.993C203.978 316.232 204.423 316.351 204.964 316.351ZM219.117 310.247L217.385 310.554C217.312 310.332 217.197 310.121 217.039 309.921C216.886 309.721 216.677 309.556 216.413 309.429C216.149 309.301 215.819 309.237 215.422 309.237C214.881 309.237 214.429 309.358 214.067 309.601C213.705 309.84 213.524 310.149 213.524 310.528C213.524 310.856 213.645 311.12 213.888 311.321C214.131 311.521 214.523 311.685 215.064 311.813L216.624 312.171C217.527 312.38 218.201 312.701 218.644 313.136C219.087 313.571 219.309 314.135 219.309 314.83C219.309 315.418 219.138 315.942 218.797 316.402C218.461 316.858 217.99 317.216 217.385 317.476C216.784 317.736 216.087 317.866 215.294 317.866C214.195 317.866 213.298 317.632 212.603 317.163C211.909 316.69 211.483 316.019 211.325 315.15L213.172 314.868C213.287 315.35 213.524 315.714 213.882 315.961C214.24 316.204 214.706 316.326 215.282 316.326C215.908 316.326 216.409 316.196 216.784 315.936C217.159 315.672 217.346 315.35 217.346 314.971C217.346 314.664 217.231 314.406 217.001 314.197C216.775 313.988 216.428 313.831 215.959 313.724L214.297 313.36C213.381 313.151 212.703 312.819 212.265 312.363C211.83 311.907 211.613 311.329 211.613 310.63C211.613 310.051 211.775 309.544 212.098 309.109C212.422 308.674 212.87 308.336 213.441 308.093C214.012 307.846 214.666 307.722 215.403 307.722C216.464 307.722 217.299 307.952 217.909 308.412C218.518 308.868 218.921 309.48 219.117 310.247ZM225.462 317.866C224.494 317.866 223.661 317.659 222.962 317.246C222.268 316.828 221.731 316.243 221.351 315.488C220.976 314.73 220.789 313.841 220.789 312.823C220.789 311.817 220.976 310.931 221.351 310.164C221.731 309.397 222.259 308.798 222.937 308.368C223.618 307.937 224.415 307.722 225.327 307.722C225.881 307.722 226.418 307.814 226.938 307.997C227.458 308.18 227.925 308.468 228.338 308.86C228.751 309.252 229.077 309.761 229.316 310.387C229.555 311.01 229.674 311.766 229.674 312.657V313.334H221.869V311.902H227.801C227.801 311.4 227.699 310.954 227.494 310.566C227.29 310.174 227.002 309.865 226.631 309.64C226.265 309.414 225.834 309.301 225.34 309.301C224.803 309.301 224.334 309.433 223.934 309.697C223.538 309.957 223.231 310.298 223.013 310.72C222.8 311.137 222.694 311.591 222.694 312.081V313.2C222.694 313.856 222.809 314.414 223.039 314.875C223.273 315.335 223.599 315.686 224.017 315.929C224.435 316.168 224.922 316.287 225.481 316.287C225.843 316.287 226.173 316.236 226.471 316.134C226.77 316.027 227.028 315.87 227.245 315.661C227.462 315.452 227.628 315.194 227.743 314.887L229.552 315.213C229.408 315.746 229.148 316.213 228.773 316.613C228.402 317.01 227.935 317.319 227.373 317.54C226.815 317.757 226.177 317.866 225.462 317.866Z" fill="white"/>
<path d="M151.788 361.518V348.427H156.454C157.468 348.427 158.31 348.601 158.979 348.951C159.652 349.3 160.155 349.784 160.488 350.402C160.82 351.015 160.986 351.725 160.986 352.53C160.986 353.331 160.818 354.037 160.481 354.646C160.149 355.251 159.646 355.722 158.973 356.059C158.304 356.395 157.462 356.564 156.448 356.564H152.913V354.863H156.269C156.908 354.863 157.428 354.772 157.829 354.589C158.233 354.405 158.53 354.139 158.717 353.79C158.905 353.44 158.998 353.02 158.998 352.53C158.998 352.036 158.902 351.608 158.711 351.246C158.523 350.883 158.227 350.606 157.822 350.415C157.422 350.219 156.895 350.121 156.243 350.121H153.763V361.518H151.788ZM158.25 355.611L161.485 361.518H159.235L156.064 355.611H158.25ZM167.165 361.716C166.197 361.716 165.364 361.509 164.665 361.096C163.971 360.678 163.434 360.092 163.055 359.338C162.68 358.579 162.492 357.691 162.492 356.672C162.492 355.667 162.68 354.78 163.055 354.013C163.434 353.246 163.962 352.648 164.64 352.217C165.322 351.787 166.119 351.572 167.031 351.572C167.584 351.572 168.121 351.663 168.641 351.846C169.161 352.03 169.628 352.317 170.041 352.709C170.455 353.101 170.781 353.611 171.019 354.237C171.258 354.859 171.377 355.616 171.377 356.506V357.184H163.572V355.752H169.504C169.504 355.249 169.402 354.804 169.197 354.416C168.993 354.024 168.705 353.715 168.334 353.489C167.968 353.263 167.538 353.15 167.043 353.15C166.506 353.15 166.038 353.282 165.637 353.547C165.241 353.807 164.934 354.148 164.717 354.569C164.504 354.987 164.397 355.441 164.397 355.931V357.05C164.397 357.706 164.512 358.264 164.742 358.724C164.977 359.184 165.303 359.536 165.72 359.779C166.138 360.018 166.626 360.137 167.184 360.137C167.546 360.137 167.876 360.086 168.175 359.983C168.473 359.877 168.731 359.719 168.948 359.51C169.165 359.302 169.332 359.044 169.447 358.737L171.256 359.063C171.111 359.596 170.851 360.062 170.476 360.463C170.105 360.859 169.638 361.168 169.076 361.39C168.518 361.607 167.881 361.716 167.165 361.716ZM177.901 351.699V353.233H172.538V351.699H177.901ZM173.976 349.347H175.887V358.635C175.887 359.006 175.943 359.285 176.053 359.472C176.164 359.655 176.307 359.781 176.482 359.849C176.661 359.913 176.855 359.945 177.063 359.945C177.217 359.945 177.351 359.934 177.466 359.913C177.581 359.892 177.671 359.875 177.735 359.862L178.08 361.441C177.969 361.483 177.811 361.526 177.607 361.569C177.402 361.616 177.146 361.641 176.84 361.645C176.337 361.654 175.868 361.564 175.433 361.377C174.999 361.189 174.647 360.9 174.379 360.508C174.11 360.116 173.976 359.623 173.976 359.031V349.347ZM183.961 361.716C182.994 361.716 182.161 361.509 181.462 361.096C180.767 360.678 180.23 360.092 179.851 359.338C179.476 358.579 179.288 357.691 179.288 356.672C179.288 355.667 179.476 354.78 179.851 354.013C180.23 353.246 180.759 352.648 181.436 352.217C182.118 351.787 182.915 351.572 183.827 351.572C184.381 351.572 184.918 351.663 185.438 351.846C185.957 352.03 186.424 352.317 186.837 352.709C187.251 353.101 187.577 353.611 187.815 354.237C188.054 354.859 188.173 355.616 188.173 356.506V357.184H180.369V355.752H186.3C186.3 355.249 186.198 354.804 185.994 354.416C185.789 354.024 185.501 353.715 185.131 353.489C184.764 353.263 184.334 353.15 183.84 353.15C183.303 353.15 182.834 353.282 182.433 353.547C182.037 353.807 181.73 354.148 181.513 354.569C181.3 354.987 181.193 355.441 181.193 355.931V357.05C181.193 357.706 181.308 358.264 181.538 358.724C181.773 359.184 182.099 359.536 182.516 359.779C182.934 360.018 183.422 360.137 183.98 360.137C184.342 360.137 184.673 360.086 184.971 359.983C185.269 359.877 185.527 359.719 185.744 359.51C185.962 359.302 186.128 359.044 186.243 358.737L188.052 359.063C187.907 359.596 187.647 360.062 187.272 360.463C186.901 360.859 186.435 361.168 185.872 361.39C185.314 361.607 184.677 361.716 183.961 361.716ZM192.025 355.688V361.518H190.114V351.699H191.948V353.297H192.07C192.296 352.778 192.649 352.36 193.131 352.045C193.617 351.729 194.228 351.572 194.965 351.572C195.634 351.572 196.22 351.712 196.723 351.993C197.226 352.27 197.616 352.684 197.893 353.233C198.17 353.783 198.309 354.463 198.309 355.273V361.518H196.397V355.503C196.397 354.791 196.212 354.235 195.841 353.834C195.47 353.43 194.961 353.227 194.313 353.227C193.87 353.227 193.476 353.323 193.131 353.515C192.79 353.706 192.519 353.988 192.319 354.358C192.123 354.725 192.025 355.168 192.025 355.688ZM205.275 351.699V353.233H199.912V351.699H205.275ZM201.35 349.347H203.261V358.635C203.261 359.006 203.317 359.285 203.428 359.472C203.538 359.655 203.681 359.781 203.856 359.849C204.035 359.913 204.229 359.945 204.437 359.945C204.591 359.945 204.725 359.934 204.84 359.913C204.955 359.892 205.045 359.875 205.109 359.862L205.454 361.441C205.343 361.483 205.185 361.526 204.981 361.569C204.776 361.616 204.521 361.641 204.214 361.645C203.711 361.654 203.242 361.564 202.807 361.377C202.373 361.189 202.021 360.9 201.753 360.508C201.484 360.116 201.35 359.623 201.35 359.031V349.347ZM207.209 361.518V351.699H209.12V361.518H207.209ZM208.174 350.184C207.842 350.184 207.556 350.074 207.318 349.852C207.083 349.626 206.966 349.358 206.966 349.047C206.966 348.731 207.083 348.463 207.318 348.241C207.556 348.015 207.842 347.903 208.174 347.903C208.507 347.903 208.79 348.015 209.024 348.241C209.263 348.463 209.382 348.731 209.382 349.047C209.382 349.358 209.263 349.626 209.024 349.852C208.79 350.074 208.507 350.184 208.174 350.184ZM215.647 361.716C214.727 361.716 213.923 361.505 213.237 361.083C212.551 360.661 212.019 360.071 211.639 359.312C211.26 358.554 211.07 357.667 211.07 356.653C211.07 355.635 211.26 354.744 211.639 353.981C212.019 353.219 212.551 352.626 213.237 352.204C213.923 351.782 214.727 351.572 215.647 351.572C216.568 351.572 217.371 351.782 218.057 352.204C218.743 352.626 219.276 353.219 219.655 353.981C220.034 354.744 220.224 355.635 220.224 356.653C220.224 357.667 220.034 358.554 219.655 359.312C219.276 360.071 218.743 360.661 218.057 361.083C217.371 361.505 216.568 361.716 215.647 361.716ZM215.653 360.111C216.25 360.111 216.744 359.954 217.136 359.638C217.528 359.323 217.818 358.903 218.006 358.379C218.197 357.855 218.293 357.278 218.293 356.647C218.293 356.02 218.197 355.445 218.006 354.921C217.818 354.393 217.528 353.969 217.136 353.649C216.744 353.329 216.25 353.17 215.653 353.17C215.053 353.17 214.554 353.329 214.158 353.649C213.766 353.969 213.474 354.393 213.282 354.921C213.095 355.445 213.001 356.02 213.001 356.647C213.001 357.278 213.095 357.855 213.282 358.379C213.474 358.903 213.766 359.323 214.158 359.638C214.554 359.954 215.053 360.111 215.653 360.111ZM224.088 355.688V361.518H222.177V351.699H224.012V353.297H224.133C224.359 352.778 224.713 352.36 225.194 352.045C225.68 351.729 226.291 351.572 227.029 351.572C227.698 351.572 228.284 351.712 228.786 351.993C229.289 352.27 229.679 352.684 229.956 353.233C230.233 353.783 230.372 354.463 230.372 355.273V361.518H228.46V355.503C228.46 354.791 228.275 354.235 227.904 353.834C227.534 353.43 227.024 353.227 226.377 353.227C225.933 353.227 225.539 353.323 225.194 353.515C224.853 353.706 224.583 353.988 224.382 354.358C224.186 354.725 224.088 355.168 224.088 355.688Z" fill="white"/>
<rect x="4" y="155" width="374" height="2" fill="white"/>
<rect x="4" y="203" width="374" height="2" fill="white"/>
<rect x="4" y="246" width="374" height="2" fill="white"/>
<rect x="4" y="289" width="374" height="2" fill="white"/>
<rect x="4" y="332" width="374" height="2" fill="white"/>
<rect x="96" y="382" width="200" height="39" fill="#23A6F0"/>
<path d="M159.538 407V393.909H164.204C165.218 393.909 166.06 394.084 166.729 394.433C167.402 394.783 167.905 395.266 168.238 395.884C168.57 396.498 168.736 397.207 168.736 398.013C168.736 398.814 168.568 399.519 168.231 400.129C167.899 400.734 167.396 401.205 166.723 401.541C166.054 401.878 165.212 402.046 164.198 402.046H160.663V400.346H164.019C164.658 400.346 165.178 400.254 165.578 400.071C165.983 399.888 166.279 399.621 166.467 399.272C166.654 398.923 166.748 398.503 166.748 398.013C166.748 397.518 166.652 397.09 166.461 396.728C166.273 396.366 165.977 396.089 165.572 395.897C165.171 395.701 164.645 395.603 163.993 395.603H161.513V407H159.538ZM166 401.094L169.235 407H166.985L163.814 401.094H166ZM174.915 407.198C173.947 407.198 173.114 406.991 172.415 406.578C171.721 406.161 171.184 405.575 170.804 404.82C170.429 404.062 170.242 403.173 170.242 402.155C170.242 401.149 170.429 400.263 170.804 399.496C171.184 398.729 171.712 398.13 172.39 397.7C173.072 397.269 173.868 397.054 174.78 397.054C175.334 397.054 175.871 397.146 176.391 397.329C176.911 397.512 177.378 397.8 177.791 398.192C178.204 398.584 178.53 399.093 178.769 399.719C179.008 400.342 179.127 401.098 179.127 401.989V402.666H171.322V401.234H177.254C177.254 400.732 177.152 400.286 176.947 399.898C176.743 399.506 176.455 399.197 176.084 398.972C175.718 398.746 175.287 398.633 174.793 398.633C174.256 398.633 173.787 398.765 173.387 399.029C172.991 399.289 172.684 399.63 172.466 400.052C172.253 400.469 172.147 400.923 172.147 401.413V402.532C172.147 403.188 172.262 403.746 172.492 404.207C172.726 404.667 173.052 405.018 173.47 405.261C173.888 405.5 174.376 405.619 174.934 405.619C175.296 405.619 175.626 405.568 175.925 405.466C176.223 405.359 176.481 405.202 176.698 404.993C176.915 404.784 177.081 404.526 177.197 404.219L179.005 404.545C178.861 405.078 178.601 405.545 178.226 405.945C177.855 406.342 177.388 406.651 176.826 406.872C176.268 407.089 175.63 407.198 174.915 407.198ZM185.74 397.182V398.716H180.192V397.182H185.74ZM181.713 407V396.044C181.713 395.43 181.847 394.921 182.116 394.516C182.384 394.107 182.74 393.803 183.183 393.602C183.626 393.398 184.108 393.295 184.628 393.295C185.011 393.295 185.34 393.327 185.612 393.391C185.885 393.451 186.087 393.506 186.219 393.558L185.772 395.104C185.683 395.079 185.567 395.049 185.427 395.015C185.286 394.977 185.116 394.957 184.916 394.957C184.451 394.957 184.119 395.072 183.918 395.303C183.722 395.533 183.624 395.865 183.624 396.3V407H181.713ZM192.205 397.182V398.716H186.656V397.182H192.205ZM188.178 407V396.044C188.178 395.43 188.312 394.921 188.58 394.516C188.849 394.107 189.205 393.803 189.648 393.602C190.091 393.398 190.573 393.295 191.092 393.295C191.476 393.295 191.804 393.327 192.077 393.391C192.349 393.451 192.552 393.506 192.684 393.558L192.237 395.104C192.147 395.079 192.032 395.049 191.891 395.015C191.751 394.977 191.58 394.957 191.38 394.957C190.916 394.957 190.583 395.072 190.383 395.303C190.187 395.533 190.089 395.865 190.089 396.3V407H188.178ZM197.841 407.198C196.874 407.198 196.041 406.991 195.342 406.578C194.647 406.161 194.111 405.575 193.731 404.82C193.356 404.062 193.169 403.173 193.169 402.155C193.169 401.149 193.356 400.263 193.731 399.496C194.111 398.729 194.639 398.13 195.317 397.7C195.998 397.269 196.795 397.054 197.707 397.054C198.261 397.054 198.798 397.146 199.318 397.329C199.838 397.512 200.304 397.8 200.718 398.192C201.131 398.584 201.457 399.093 201.696 399.719C201.934 400.342 202.054 401.098 202.054 401.989V402.666H194.249V401.234H200.181C200.181 400.732 200.079 400.286 199.874 399.898C199.669 399.506 199.382 399.197 199.011 398.972C198.645 398.746 198.214 398.633 197.72 398.633C197.183 398.633 196.714 398.765 196.314 399.029C195.917 399.289 195.611 399.63 195.393 400.052C195.18 400.469 195.074 400.923 195.074 401.413V402.532C195.074 403.188 195.189 403.746 195.419 404.207C195.653 404.667 195.979 405.018 196.397 405.261C196.814 405.5 197.302 405.619 197.861 405.619C198.223 405.619 198.553 405.568 198.851 405.466C199.15 405.359 199.407 405.202 199.625 404.993C199.842 404.784 200.008 404.526 200.123 404.219L201.932 404.545C201.787 405.078 201.527 405.545 201.152 405.945C200.782 406.342 200.315 406.651 199.753 406.872C199.194 407.089 198.557 407.198 197.841 407.198ZM203.994 407V397.182H205.842V398.741H205.944C206.123 398.213 206.438 397.798 206.89 397.495C207.346 397.188 207.861 397.035 208.437 397.035C208.556 397.035 208.697 397.039 208.859 397.048C209.025 397.056 209.155 397.067 209.249 397.08V398.908C209.172 398.886 209.035 398.863 208.839 398.837C208.643 398.808 208.447 398.793 208.251 398.793C207.8 398.793 207.397 398.888 207.043 399.08C206.694 399.268 206.417 399.53 206.212 399.866C206.008 400.199 205.906 400.578 205.906 401.004V407H203.994ZM213.492 407.217C212.87 407.217 212.307 407.102 211.804 406.872C211.302 406.638 210.903 406.299 210.609 405.856C210.319 405.413 210.174 404.869 210.174 404.226C210.174 403.672 210.281 403.216 210.494 402.858C210.707 402.5 210.995 402.217 211.357 402.008C211.719 401.799 212.124 401.641 212.571 401.535C213.019 401.428 213.475 401.347 213.939 401.292C214.527 401.224 215.005 401.168 215.371 401.126C215.738 401.079 216.004 401.004 216.17 400.902C216.336 400.8 216.419 400.634 216.419 400.403V400.359C216.419 399.8 216.262 399.368 215.946 399.061C215.635 398.754 215.171 398.601 214.553 398.601C213.909 398.601 213.402 398.744 213.032 399.029C212.665 399.31 212.412 399.624 212.271 399.969L210.475 399.56C210.688 398.963 210.999 398.482 211.408 398.115C211.821 397.744 212.297 397.476 212.833 397.31C213.37 397.139 213.935 397.054 214.527 397.054C214.919 397.054 215.335 397.101 215.774 397.195C216.217 397.284 216.63 397.45 217.014 397.693C217.402 397.936 217.719 398.283 217.966 398.735C218.213 399.183 218.337 399.764 218.337 400.48V407H216.471V405.658H216.394C216.27 405.905 216.085 406.148 215.838 406.386C215.591 406.625 215.273 406.823 214.885 406.981C214.498 407.138 214.033 407.217 213.492 407.217ZM213.907 405.683C214.436 405.683 214.887 405.579 215.262 405.37C215.642 405.161 215.929 404.888 216.125 404.552C216.326 404.211 216.426 403.847 216.426 403.459V402.193C216.358 402.261 216.226 402.325 216.029 402.385C215.838 402.44 215.618 402.489 215.371 402.532C215.124 402.57 214.883 402.607 214.649 402.641C214.414 402.67 214.218 402.696 214.061 402.717C213.69 402.764 213.351 402.843 213.044 402.954C212.742 403.065 212.499 403.224 212.316 403.433C212.137 403.638 212.047 403.911 212.047 404.251C212.047 404.724 212.222 405.082 212.571 405.325C212.921 405.564 213.366 405.683 213.907 405.683ZM222.614 393.909V407H220.703V393.909H222.614Z" fill="white"/>
<rect x="98" y="426" width="196" height="191" stroke="#23A6F0" stroke-width="4"/>
<path d="M235.166 483C233.508 478.411 230.478 474.412 226.469 471.516C222.459 468.62 217.652 466.96 212.666 466.75H179.333C172.703 466.75 166.344 469.318 161.655 473.889C156.967 478.46 154.333 484.66 154.333 491.125C154.333 497.59 156.967 503.79 161.655 508.361C166.344 512.932 172.703 515.5 179.333 515.5H212.666C219.297 515.5 225.656 518.068 230.344 522.639C235.032 527.21 237.666 533.41 237.666 539.875C237.666 546.34 235.032 552.54 230.344 557.111C225.656 561.682 219.297 564.25 212.666 564.25H179.333C174.348 564.04 169.541 562.38 165.531 559.484C161.521 556.588 158.492 552.589 156.833 548" stroke="#23A6F0" stroke-width="5" stroke-linecap="round" stroke-linejoin="round"/>
<path d="M196 564.25V588.625M196 442.375V466.75V442.375Z" stroke="#23A6F0" stroke-width="5" stroke-linecap="round" stroke-linejoin="round"/>
<rect width="381" height="94" rx="8" fill="#23A6F0"/>
<path d="M15.3725 38.5455H18.5685L24.1253 52.1136H24.3298L29.8867 38.5455H33.0827V56H30.577V43.3693H30.4151L25.2673 55.9744H23.1878L18.0401 43.3608H17.8781V56H15.3725V38.5455ZM41.9812 56.2642C40.7539 56.2642 39.6829 55.983 38.7681 55.4205C37.8533 54.858 37.1431 54.071 36.6374 53.0597C36.1318 52.0483 35.8789 50.8665 35.8789 49.5142C35.8789 48.1562 36.1318 46.9687 36.6374 45.9517C37.1431 44.9347 37.8533 44.1449 38.7681 43.5824C39.6829 43.0199 40.7539 42.7386 41.9812 42.7386C43.2085 42.7386 44.2795 43.0199 45.1943 43.5824C46.109 44.1449 46.8193 44.9347 47.3249 45.9517C47.8306 46.9687 48.0835 48.1562 48.0835 49.5142C48.0835 50.8665 47.8306 52.0483 47.3249 53.0597C46.8193 54.071 46.109 54.858 45.1943 55.4205C44.2795 55.983 43.2085 56.2642 41.9812 56.2642ZM41.9897 54.125C42.7852 54.125 43.4443 53.9148 43.967 53.4943C44.4897 53.0739 44.8761 52.5142 45.1261 51.8153C45.3818 51.1165 45.5096 50.3466 45.5096 49.5057C45.5096 48.6705 45.3818 47.9034 45.1261 47.2045C44.8761 46.5 44.4897 45.9347 43.967 45.5085C43.4443 45.0824 42.7852 44.8693 41.9897 44.8693C41.1886 44.8693 40.5238 45.0824 39.9954 45.5085C39.4727 45.9347 39.0835 46.5 38.8278 47.2045C38.5778 47.9034 38.4528 48.6705 38.4528 49.5057C38.4528 50.3466 38.5778 51.1165 38.8278 51.8153C39.0835 52.5142 39.4727 53.0739 39.9954 53.4943C40.5238 53.9148 41.1886 54.125 41.9897 54.125ZM50.8925 56V38.5455H53.4408V45.0312H53.5942C53.7419 44.7585 53.955 44.4432 54.2334 44.0852C54.5118 43.7273 54.8981 43.4148 55.3925 43.1477C55.8868 42.875 56.5402 42.7386 57.3527 42.7386C58.4095 42.7386 59.3527 43.0057 60.1822 43.5398C61.0118 44.0739 61.6624 44.8437 62.1339 45.8494C62.6112 46.8551 62.8498 48.0653 62.8498 49.4801C62.8498 50.8949 62.6141 52.108 62.1425 53.1193C61.6709 54.125 61.0231 54.9006 60.1993 55.446C59.3754 55.9858 58.4351 56.2557 57.3783 56.2557C56.5828 56.2557 55.9322 56.1222 55.4266 55.8551C54.9266 55.5881 54.5345 55.2756 54.2504 54.9176C53.9663 54.5597 53.7476 54.2415 53.5942 53.9631H53.3811V56H50.8925ZM53.3896 49.4545C53.3896 50.375 53.5231 51.1818 53.7902 51.875C54.0572 52.5682 54.4436 53.1108 54.9493 53.5028C55.455 53.8892 56.0743 54.0824 56.8072 54.0824C57.5686 54.0824 58.205 53.8807 58.7163 53.4773C59.2277 53.0682 59.6141 52.5142 59.8754 51.8153C60.1425 51.1165 60.276 50.3295 60.276 49.4545C60.276 48.5909 60.1453 47.8153 59.8839 47.1278C59.6283 46.4403 59.2419 45.8977 58.7248 45.5C58.2135 45.1023 57.5743 44.9034 56.8072 44.9034C56.0686 44.9034 55.4436 45.0937 54.9322 45.4744C54.4266 45.8551 54.043 46.3864 53.7817 47.0682C53.5203 47.75 53.3896 48.5455 53.3896 49.4545ZM65.4714 56V42.9091H68.0196V56H65.4714ZM66.7583 40.8892C66.3151 40.8892 65.9344 40.7415 65.6162 40.446C65.3037 40.1449 65.1475 39.7869 65.1475 39.3722C65.1475 38.9517 65.3037 38.5937 65.6162 38.2983C65.9344 37.9972 66.3151 37.8466 66.7583 37.8466C67.2015 37.8466 67.5793 37.9972 67.8918 38.2983C68.21 38.5937 68.3691 38.9517 68.3691 39.3722C68.3691 39.7869 68.21 40.1449 67.8918 40.446C67.5793 40.7415 67.2015 40.8892 66.7583 40.8892ZM73.7562 38.5455V56H71.2079V38.5455H73.7562ZM82.5865 56.2642C81.2968 56.2642 80.186 55.9886 79.2541 55.4375C78.328 54.8807 77.6121 54.0994 77.1064 53.0938C76.6064 52.0824 76.3564 50.8977 76.3564 49.5398C76.3564 48.1989 76.6064 47.017 77.1064 45.9943C77.6121 44.9716 78.3166 44.1733 79.2201 43.5994C80.1291 43.0256 81.1916 42.7386 82.4076 42.7386C83.1462 42.7386 83.8621 42.8608 84.5553 43.1051C85.2485 43.3494 85.8706 43.733 86.4218 44.2557C86.9729 44.7784 87.4076 45.4574 87.7257 46.2926C88.0439 47.1222 88.203 48.1307 88.203 49.3182V50.2216H77.7968V48.3125H85.7058C85.7058 47.642 85.5695 47.0483 85.2968 46.5312C85.024 46.0085 84.6405 45.5966 84.1462 45.2955C83.6576 44.9943 83.0837 44.8438 82.4246 44.8438C81.7087 44.8438 81.0837 45.0199 80.5496 45.3722C80.0212 45.7187 79.6121 46.1733 79.3223 46.7358C79.0382 47.2926 78.8962 47.8977 78.8962 48.5511V50.0426C78.8962 50.9176 79.0496 51.6619 79.3564 52.2756C79.6689 52.8892 80.1036 53.358 80.6604 53.6818C81.2172 54 81.8678 54.1591 82.6121 54.1591C83.0951 54.1591 83.5354 54.0909 83.9331 53.9545C84.3308 53.8125 84.6746 53.6023 84.9644 53.3239C85.2541 53.0455 85.4757 52.7017 85.6291 52.2926L88.0411 52.7273C87.8479 53.4375 87.5013 54.0597 87.0013 54.5938C86.507 55.1222 85.8848 55.5341 85.1348 55.8295C84.3905 56.1193 83.5411 56.2642 82.5865 56.2642ZM104.693 56H101.897L108.178 38.5455H111.221L117.502 56H114.707L109.772 41.7159H109.636L104.693 56ZM105.161 49.1648H114.229V51.3807H105.161V49.1648ZM119.783 56V38.5455H126.004C127.362 38.5455 128.487 38.7926 129.379 39.2869C130.271 39.7812 130.939 40.4574 131.382 41.3153C131.825 42.1676 132.047 43.1278 132.047 44.196C132.047 45.2699 131.823 46.2358 131.374 47.0938C130.93 47.946 130.26 48.6222 129.362 49.1222C128.47 49.6165 127.348 49.8636 125.996 49.8636H121.717V47.6307H125.757C126.615 47.6307 127.311 47.483 127.845 47.1875C128.379 46.8864 128.771 46.4773 129.021 45.9602C129.271 45.4432 129.396 44.8551 129.396 44.196C129.396 43.5369 129.271 42.9517 129.021 42.4403C128.771 41.929 128.377 41.5284 127.837 41.2386C127.303 40.9489 126.598 40.804 125.723 40.804H122.416V56H119.783ZM134.894 56V38.5455H141.116C142.474 38.5455 143.599 38.7926 144.491 39.2869C145.383 39.7812 146.051 40.4574 146.494 41.3153C146.937 42.1676 147.159 43.1278 147.159 44.196C147.159 45.2699 146.934 46.2358 146.485 47.0938C146.042 47.946 145.372 48.6222 144.474 49.1222C143.582 49.6165 142.46 49.8636 141.107 49.8636H136.829V47.6307H140.869C141.727 47.6307 142.423 47.483 142.957 47.1875C143.491 46.8864 143.883 46.4773 144.133 45.9602C144.383 45.4432 144.508 44.8551 144.508 44.196C144.508 43.5369 144.383 42.9517 144.133 42.4403C143.883 41.929 143.488 41.5284 142.948 41.2386C142.414 40.9489 141.71 40.804 140.835 40.804H137.528V56H134.894ZM156.117 38.5455H159.313L164.87 52.1136H165.075L170.632 38.5455H173.828V56H171.322V43.3693H171.16L166.012 55.9744H163.933L158.785 43.3608H158.623V56H156.117V38.5455ZM188.641 38.5455H191.283V50.0256C191.283 51.2472 190.996 52.3295 190.422 53.2727C189.848 54.2102 189.042 54.9489 188.002 55.4886C186.962 56.0227 185.743 56.2898 184.346 56.2898C182.953 56.2898 181.738 56.0227 180.698 55.4886C179.658 54.9489 178.851 54.2102 178.277 53.2727C177.703 52.3295 177.417 51.2472 177.417 50.0256V38.5455H180.05V49.8125C180.05 50.6023 180.223 51.304 180.57 51.9176C180.922 52.5312 181.419 53.0142 182.061 53.3665C182.703 53.7131 183.465 53.8864 184.346 53.8864C185.232 53.8864 185.996 53.7131 186.638 53.3665C187.286 53.0142 187.78 52.5312 188.121 51.9176C188.468 51.304 188.641 50.6023 188.641 49.8125V38.5455ZM204.392 43.1307C204.301 42.3239 203.926 41.6989 203.267 41.2557C202.608 40.8068 201.778 40.5824 200.778 40.5824C200.062 40.5824 199.443 40.696 198.92 40.9233C198.397 41.1449 197.991 41.4517 197.701 41.8438C197.417 42.2301 197.275 42.6705 197.275 43.1648C197.275 43.5795 197.372 43.9375 197.565 44.2386C197.764 44.5398 198.022 44.7926 198.341 44.9972C198.664 45.196 199.011 45.3636 199.38 45.5C199.75 45.6307 200.105 45.7386 200.446 45.8239L202.15 46.267C202.707 46.4034 203.278 46.5881 203.863 46.821C204.449 47.054 204.991 47.3608 205.491 47.7415C205.991 48.1222 206.395 48.5938 206.701 49.1562C207.014 49.7188 207.17 50.392 207.17 51.1761C207.17 52.1648 206.914 53.0426 206.403 53.8097C205.897 54.5767 205.162 55.1818 204.196 55.625C203.235 56.0682 202.074 56.2898 200.71 56.2898C199.403 56.2898 198.272 56.0824 197.318 55.6676C196.363 55.2528 195.616 54.6648 195.076 53.9034C194.537 53.1364 194.238 52.2273 194.181 51.1761H196.824C196.875 51.8068 197.079 52.3324 197.437 52.7528C197.801 53.1676 198.264 53.4773 198.826 53.6818C199.395 53.8807 200.017 53.9801 200.693 53.9801C201.437 53.9801 202.099 53.8636 202.679 53.6307C203.264 53.392 203.724 53.0625 204.059 52.642C204.395 52.2159 204.562 51.7187 204.562 51.1506C204.562 50.6335 204.414 50.2102 204.119 49.8807C203.829 49.5511 203.434 49.2784 202.934 49.0625C202.44 48.8466 201.88 48.6562 201.255 48.4915L199.193 47.929C197.795 47.5483 196.687 46.9886 195.869 46.25C195.056 45.5114 194.65 44.5341 194.65 43.3182C194.65 42.3125 194.923 41.4347 195.468 40.6847C196.014 39.9347 196.753 39.3523 197.684 38.9375C198.616 38.517 199.667 38.3068 200.838 38.3068C202.02 38.3068 203.062 38.5142 203.966 38.929C204.875 39.3438 205.591 39.9148 206.113 40.642C206.636 41.3636 206.909 42.1932 206.931 43.1307H204.392ZM209.216 40.8125V38.5455H222.725V40.8125H217.279V56H214.654V40.8125H209.216ZM231.582 56V38.5455H234.215V46.1307H242.917V38.5455H245.559V56H242.917V48.3892H234.215V56H231.582ZM250.628 56H247.833L254.114 38.5455H257.157L263.438 56H260.643L255.708 41.7159H255.572L250.628 56ZM251.097 49.1648H260.165V51.3807H251.097V49.1648ZM265.416 38.5455L270.274 52.7614H270.47L275.328 38.5455H278.175L271.893 56H268.851L262.57 38.5455H265.416ZM280.455 56V38.5455H291.398V40.8125H283.089V46.1307H290.827V48.3892H283.089V53.733H291.501V56H280.455ZM306.225 56.2642C304.936 56.2642 303.825 55.9886 302.893 55.4375C301.967 54.8807 301.251 54.0994 300.745 53.0938C300.245 52.0824 299.995 50.8977 299.995 49.5398C299.995 48.1989 300.245 47.017 300.745 45.9943C301.251 44.9716 301.955 44.1733 302.859 43.5994C303.768 43.0256 304.83 42.7386 306.046 42.7386C306.785 42.7386 307.501 42.8608 308.194 43.1051C308.887 43.3494 309.509 43.733 310.061 44.2557C310.612 44.7784 311.046 45.4574 311.364 46.2926C311.683 47.1222 311.842 48.1307 311.842 49.3182V50.2216H301.436V48.3125H309.345C309.345 47.642 309.208 47.0483 308.936 46.5312C308.663 46.0085 308.279 45.5966 307.785 45.2955C307.296 44.9943 306.722 44.8438 306.063 44.8438C305.347 44.8438 304.722 45.0199 304.188 45.3722C303.66 45.7187 303.251 46.1733 302.961 46.7358C302.677 47.2926 302.535 47.8977 302.535 48.5511V50.0426C302.535 50.9176 302.688 51.6619 302.995 52.2756C303.308 52.8892 303.742 53.358 304.299 53.6818C304.856 54 305.507 54.1591 306.251 54.1591C306.734 54.1591 307.174 54.0909 307.572 53.9545C307.97 53.8125 308.313 53.6023 308.603 53.3239C308.893 53.0455 309.114 52.7017 309.268 52.2926L311.68 52.7273C311.487 53.4375 311.14 54.0597 310.64 54.5938C310.146 55.1222 309.524 55.5341 308.774 55.8295C308.029 56.1193 307.18 56.2642 306.225 56.2642ZM325.253 42.9091L320.506 56H317.779L313.023 42.9091H315.759L319.074 52.983H319.21L322.517 42.9091H325.253ZM332.605 56.2642C331.315 56.2642 330.204 55.9886 329.272 55.4375C328.346 54.8807 327.63 54.0994 327.125 53.0938C326.625 52.0824 326.375 50.8977 326.375 49.5398C326.375 48.1989 326.625 47.017 327.125 45.9943C327.63 44.9716 328.335 44.1733 329.238 43.5994C330.147 43.0256 331.21 42.7386 332.426 42.7386C333.164 42.7386 333.88 42.8608 334.573 43.1051C335.267 43.3494 335.889 43.733 336.44 44.2557C336.991 44.7784 337.426 45.4574 337.744 46.2926C338.062 47.1222 338.221 48.1307 338.221 49.3182V50.2216H327.815V48.3125H335.724C335.724 47.642 335.588 47.0483 335.315 46.5312C335.042 46.0085 334.659 45.5966 334.164 45.2955C333.676 44.9943 333.102 44.8438 332.443 44.8438C331.727 44.8438 331.102 45.0199 330.568 45.3722C330.039 45.7187 329.63 46.1733 329.34 46.7358C329.056 47.2926 328.914 47.8977 328.914 48.5511V50.0426C328.914 50.9176 329.068 51.6619 329.375 52.2756C329.687 52.8892 330.122 53.358 330.678 53.6818C331.235 54 331.886 54.1591 332.63 54.1591C333.113 54.1591 333.553 54.0909 333.951 53.9545C334.349 53.8125 334.693 53.6023 334.982 53.3239C335.272 53.0455 335.494 52.7017 335.647 52.2926L338.059 52.7273C337.866 53.4375 337.519 54.0597 337.019 54.5938C336.525 55.1222 335.903 55.5341 335.153 55.8295C334.409 56.1193 333.559 56.2642 332.605 56.2642ZM343.357 48.2273V56H340.809V42.9091H343.255V45.0398H343.416C343.718 44.3466 344.189 43.7898 344.831 43.3693C345.479 42.9489 346.294 42.7386 347.277 42.7386C348.169 42.7386 348.951 42.9261 349.621 43.3011C350.291 43.6705 350.811 44.2216 351.181 44.9545C351.55 45.6875 351.735 46.5937 351.735 47.6733V56H349.186V47.9801C349.186 47.0312 348.939 46.2898 348.445 45.7557C347.951 45.2159 347.272 44.946 346.408 44.946C345.817 44.946 345.291 45.0739 344.831 45.3295C344.377 45.5852 344.016 45.9602 343.749 46.4545C343.488 46.9432 343.357 47.5341 343.357 48.2273ZM361.023 42.9091V44.9545H353.873V42.9091H361.023ZM355.79 39.7727H358.338V52.1562C358.338 52.6506 358.412 53.0227 358.56 53.2727C358.708 53.517 358.898 53.6847 359.131 53.7756C359.37 53.8608 359.628 53.9034 359.907 53.9034C360.111 53.9034 360.29 53.8892 360.444 53.8608C360.597 53.8324 360.716 53.8097 360.801 53.7926L361.262 55.8977C361.114 55.9545 360.904 56.0114 360.631 56.0682C360.358 56.1307 360.017 56.1648 359.608 56.1705C358.938 56.1818 358.313 56.0625 357.733 55.8125C357.154 55.5625 356.685 55.1761 356.327 54.6534C355.969 54.1307 355.79 53.4744 355.79 52.6847V39.7727ZM373.201 46.1051L370.891 46.5142C370.794 46.2187 370.641 45.9375 370.431 45.6705C370.226 45.4034 369.948 45.1847 369.596 45.0142C369.243 44.8437 368.803 44.7585 368.275 44.7585C367.553 44.7585 366.951 44.9205 366.468 45.2443C365.985 45.5625 365.743 45.9744 365.743 46.4801C365.743 46.9176 365.905 47.2699 366.229 47.5369C366.553 47.804 367.076 48.0227 367.797 48.1932L369.877 48.6705C371.081 48.9489 371.979 49.3778 372.57 49.9574C373.161 50.5369 373.456 51.2898 373.456 52.2159C373.456 53 373.229 53.6989 372.775 54.3125C372.326 54.9205 371.698 55.3977 370.891 55.7443C370.09 56.0909 369.161 56.2642 368.104 56.2642C366.638 56.2642 365.442 55.9517 364.516 55.3267C363.59 54.696 363.022 53.8011 362.812 52.642L365.275 52.267C365.428 52.9091 365.743 53.3949 366.221 53.7244C366.698 54.0483 367.32 54.2102 368.087 54.2102C368.922 54.2102 369.59 54.0369 370.09 53.6903C370.59 53.3381 370.84 52.9091 370.84 52.4034C370.84 51.9943 370.687 51.6506 370.38 51.3722C370.079 51.0937 369.615 50.8835 368.99 50.7415L366.775 50.2557C365.553 49.9773 364.65 49.5341 364.064 48.9261C363.485 48.3182 363.195 47.5483 363.195 46.6165C363.195 45.8437 363.411 45.1676 363.843 44.5881C364.275 44.0085 364.871 43.5568 365.633 43.233C366.394 42.9034 367.266 42.7386 368.249 42.7386C369.664 42.7386 370.777 43.0455 371.59 43.6591C372.402 44.267 372.939 45.0824 373.201 46.1051Z" fill="white"/>
</svg>
