<svg width="374" height="570" viewBox="0 0 374 570" fill="none" xmlns="http://www.w3.org/2000/svg">
<rect x="94" y="377" width="196" height="191" stroke="#23A6F0" stroke-width="4"/>
<path d="M0 100H374L291.326 372H91.5316L0 100Z" fill="#23A6F0"/>
<path d="M149.443 267.473V254.382H157.56V256.082H151.418V260.071H156.979V261.765H151.418V267.473H149.443ZM159.656 267.473V257.654H161.567V267.473H159.656ZM160.621 256.14C160.289 256.14 160.003 256.029 159.765 255.807C159.53 255.581 159.413 255.313 159.413 255.002C159.413 254.686 159.53 254.418 159.765 254.196C160.003 253.971 160.289 253.858 160.621 253.858C160.954 253.858 161.237 253.971 161.471 254.196C161.71 254.418 161.829 254.686 161.829 255.002C161.829 255.313 161.71 255.581 161.471 255.807C161.237 256.029 160.954 256.14 160.621 256.14ZM163.958 267.473V257.654H165.806V259.214H165.908C166.087 258.686 166.402 258.27 166.854 257.968C167.31 257.661 167.826 257.507 168.401 257.507C168.52 257.507 168.661 257.512 168.823 257.52C168.989 257.529 169.119 257.539 169.213 257.552V259.38C169.136 259.359 169 259.336 168.804 259.31C168.608 259.28 168.412 259.265 168.216 259.265C167.764 259.265 167.361 259.361 167.007 259.553C166.658 259.74 166.381 260.002 166.176 260.339C165.972 260.672 165.87 261.051 165.87 261.477V267.473H163.958ZM178.044 260.051L176.312 260.358C176.239 260.137 176.124 259.926 175.966 259.725C175.813 259.525 175.604 259.361 175.34 259.233C175.076 259.105 174.746 259.042 174.349 259.042C173.808 259.042 173.356 259.163 172.994 259.406C172.632 259.645 172.451 259.953 172.451 260.333C172.451 260.661 172.572 260.925 172.815 261.125C173.058 261.326 173.45 261.49 173.991 261.618L175.551 261.975C176.454 262.184 177.128 262.506 177.571 262.941C178.014 263.375 178.236 263.94 178.236 264.635C178.236 265.223 178.065 265.747 177.724 266.207C177.388 266.663 176.917 267.021 176.312 267.281C175.711 267.541 175.014 267.671 174.221 267.671C173.122 267.671 172.225 267.436 171.53 266.968C170.836 266.495 170.41 265.824 170.252 264.954L172.099 264.673C172.214 265.154 172.451 265.519 172.809 265.766C173.167 266.009 173.633 266.13 174.209 266.13C174.835 266.13 175.336 266 175.711 265.74C176.086 265.476 176.273 265.154 176.273 264.775C176.273 264.468 176.158 264.211 175.928 264.002C175.702 263.793 175.355 263.635 174.886 263.529L173.224 263.164C172.308 262.956 171.631 262.623 171.192 262.167C170.757 261.711 170.54 261.134 170.54 260.435C170.54 259.855 170.702 259.348 171.025 258.914C171.349 258.479 171.797 258.14 172.368 257.897C172.939 257.65 173.593 257.527 174.33 257.527C175.391 257.527 176.226 257.757 176.836 258.217C177.445 258.673 177.848 259.284 178.044 260.051ZM184.74 257.654V259.189H179.377V257.654H184.74ZM180.815 255.302H182.727V264.59C182.727 264.961 182.782 265.24 182.893 265.427C183.004 265.61 183.146 265.736 183.321 265.804C183.5 265.868 183.694 265.9 183.903 265.9C184.056 265.9 184.19 265.89 184.305 265.868C184.421 265.847 184.51 265.83 184.574 265.817L184.919 267.396C184.808 267.439 184.651 267.481 184.446 267.524C184.242 267.571 183.986 267.596 183.679 267.6C183.176 267.609 182.707 267.52 182.273 267.332C181.838 267.145 181.487 266.855 181.218 266.463C180.95 266.071 180.815 265.578 180.815 264.986V255.302ZM193.169 254.382V267.473H191.258V254.382H193.169ZM199.792 267.671C198.825 267.671 197.991 267.464 197.293 267.051C196.598 266.633 196.061 266.047 195.682 265.293C195.307 264.534 195.119 263.646 195.119 262.627C195.119 261.622 195.307 260.735 195.682 259.968C196.061 259.201 196.59 258.603 197.267 258.172C197.949 257.742 198.746 257.527 199.658 257.527C200.212 257.527 200.749 257.618 201.268 257.801C201.788 257.985 202.255 258.272 202.668 258.664C203.082 259.056 203.408 259.566 203.646 260.192C203.885 260.814 204.004 261.571 204.004 262.461V263.139H196.2V261.707H202.131C202.131 261.204 202.029 260.759 201.825 260.371C201.62 259.979 201.332 259.67 200.962 259.444C200.595 259.218 200.165 259.105 199.67 259.105C199.134 259.105 198.665 259.238 198.264 259.502C197.868 259.762 197.561 260.103 197.344 260.525C197.131 260.942 197.024 261.396 197.024 261.886V263.005C197.024 263.661 197.139 264.219 197.369 264.679C197.604 265.14 197.93 265.491 198.347 265.734C198.765 265.973 199.253 266.092 199.811 266.092C200.173 266.092 200.504 266.041 200.802 265.939C201.1 265.832 201.358 265.674 201.575 265.466C201.793 265.257 201.959 264.999 202.074 264.692L203.883 265.018C203.738 265.551 203.478 266.017 203.103 266.418C202.732 266.814 202.266 267.123 201.703 267.345C201.145 267.562 200.508 267.671 199.792 267.671ZM208.802 267.69C208.18 267.69 207.617 267.575 207.115 267.345C206.612 267.11 206.213 266.772 205.919 266.328C205.63 265.885 205.485 265.342 205.485 264.699C205.485 264.145 205.591 263.689 205.804 263.331C206.017 262.973 206.305 262.689 206.667 262.48C207.029 262.272 207.434 262.114 207.882 262.007C208.329 261.901 208.785 261.82 209.25 261.765C209.838 261.696 210.315 261.641 210.681 261.598C211.048 261.551 211.314 261.477 211.48 261.375C211.647 261.272 211.73 261.106 211.73 260.876V260.831C211.73 260.273 211.572 259.841 211.257 259.534C210.946 259.227 210.481 259.074 209.863 259.074C209.22 259.074 208.713 259.216 208.342 259.502C207.975 259.783 207.722 260.096 207.581 260.441L205.785 260.032C205.998 259.436 206.309 258.954 206.718 258.588C207.132 258.217 207.607 257.949 208.144 257.782C208.681 257.612 209.245 257.527 209.838 257.527C210.23 257.527 210.645 257.574 211.084 257.667C211.527 257.757 211.941 257.923 212.324 258.166C212.712 258.409 213.029 258.756 213.277 259.208C213.524 259.655 213.647 260.237 213.647 260.953V267.473H211.781V266.13H211.704C211.58 266.377 211.395 266.62 211.148 266.859C210.901 267.098 210.583 267.296 210.196 267.453C209.808 267.611 209.343 267.69 208.802 267.69ZM209.218 266.156C209.746 266.156 210.198 266.051 210.573 265.843C210.952 265.634 211.24 265.361 211.436 265.025C211.636 264.684 211.736 264.319 211.736 263.931V262.666C211.668 262.734 211.536 262.798 211.34 262.858C211.148 262.913 210.929 262.962 210.681 263.005C210.434 263.043 210.193 263.079 209.959 263.113C209.725 263.143 209.529 263.169 209.371 263.19C209 263.237 208.661 263.316 208.355 263.426C208.052 263.537 207.809 263.697 207.626 263.906C207.447 264.11 207.357 264.383 207.357 264.724C207.357 265.197 207.532 265.555 207.882 265.798C208.231 266.037 208.676 266.156 209.218 266.156ZM219.688 267.664C218.896 267.664 218.188 267.462 217.566 267.057C216.948 266.648 216.462 266.066 216.109 265.312C215.759 264.554 215.585 263.644 215.585 262.583C215.585 261.522 215.761 260.614 216.115 259.86C216.473 259.105 216.963 258.528 217.585 258.127C218.207 257.727 218.913 257.527 219.701 257.527C220.31 257.527 220.801 257.629 221.171 257.833C221.546 258.034 221.836 258.268 222.041 258.537C222.249 258.805 222.411 259.042 222.526 259.246H222.641V254.382H224.553V267.473H222.686V265.945H222.526C222.411 266.154 222.245 266.392 222.028 266.661C221.815 266.929 221.521 267.164 221.146 267.364C220.771 267.564 220.285 267.664 219.688 267.664ZM220.11 266.034C220.66 266.034 221.124 265.89 221.504 265.6C221.887 265.306 222.177 264.899 222.373 264.379C222.573 263.859 222.673 263.254 222.673 262.564C222.673 261.882 222.575 261.285 222.379 260.774C222.183 260.262 221.896 259.864 221.516 259.578C221.137 259.293 220.668 259.15 220.11 259.15C219.535 259.15 219.056 259.299 218.672 259.598C218.288 259.896 217.999 260.303 217.803 260.819C217.611 261.334 217.515 261.916 217.515 262.564C217.515 263.22 217.613 263.81 217.809 264.334C218.005 264.858 218.295 265.274 218.678 265.581C219.066 265.883 219.543 266.034 220.11 266.034Z" fill="white"/>
<path d="M137.511 224.905V211.814H142.177C143.192 211.814 144.033 211.989 144.702 212.339C145.376 212.688 145.878 213.172 146.211 213.79C146.543 214.403 146.709 215.113 146.709 215.918C146.709 216.719 146.541 217.424 146.204 218.034C145.872 218.639 145.369 219.11 144.696 219.446C144.027 219.783 143.185 219.951 142.171 219.951H138.636V218.251H141.992C142.631 218.251 143.151 218.16 143.552 217.976C143.957 217.793 144.253 217.527 144.44 217.177C144.628 216.828 144.721 216.408 144.721 215.918C144.721 215.424 144.626 214.995 144.434 214.633C144.246 214.271 143.95 213.994 143.545 213.802C143.145 213.606 142.618 213.508 141.966 213.508H139.486V224.905H137.511ZM143.974 218.999L147.208 224.905H144.958L141.787 218.999H143.974ZM152.888 225.103C151.921 225.103 151.087 224.897 150.389 224.483C149.694 224.066 149.157 223.48 148.778 222.726C148.403 221.967 148.215 221.079 148.215 220.06C148.215 219.054 148.403 218.168 148.778 217.401C149.157 216.634 149.685 216.035 150.363 215.605C151.045 215.174 151.842 214.959 152.754 214.959C153.308 214.959 153.845 215.051 154.364 215.234C154.884 215.417 155.351 215.705 155.764 216.097C156.178 216.489 156.504 216.998 156.742 217.625C156.981 218.247 157.1 219.003 157.1 219.894V220.571H149.296V219.14H155.227C155.227 218.637 155.125 218.191 154.921 217.804C154.716 217.412 154.428 217.103 154.058 216.877C153.691 216.651 153.261 216.538 152.766 216.538C152.229 216.538 151.761 216.67 151.36 216.934C150.964 217.194 150.657 217.535 150.44 217.957C150.227 218.375 150.12 218.829 150.12 219.319V220.437C150.12 221.093 150.235 221.652 150.465 222.112C150.7 222.572 151.026 222.924 151.443 223.167C151.861 223.405 152.349 223.525 152.907 223.525C153.269 223.525 153.6 223.473 153.898 223.371C154.196 223.265 154.454 223.107 154.671 222.898C154.889 222.689 155.055 222.432 155.17 222.125L156.979 222.451C156.834 222.983 156.574 223.45 156.199 223.851C155.828 224.247 155.362 224.556 154.799 224.777C154.241 224.995 153.604 225.103 152.888 225.103ZM163.157 228.792C162.377 228.792 161.706 228.689 161.144 228.485C160.586 228.28 160.13 228.01 159.776 227.673C159.422 227.336 159.158 226.968 158.983 226.567L160.626 225.89C160.741 226.077 160.894 226.275 161.086 226.484C161.282 226.697 161.546 226.878 161.879 227.027C162.215 227.177 162.648 227.251 163.176 227.251C163.901 227.251 164.5 227.074 164.973 226.721C165.446 226.371 165.682 225.813 165.682 225.046V223.116H165.561C165.446 223.324 165.279 223.557 165.062 223.812C164.849 224.068 164.555 224.29 164.18 224.477C163.805 224.665 163.317 224.758 162.716 224.758C161.941 224.758 161.242 224.577 160.62 224.215C160.002 223.848 159.512 223.309 159.149 222.598C158.791 221.882 158.613 221.002 158.613 219.958C158.613 218.914 158.789 218.019 159.143 217.273C159.501 216.527 159.991 215.956 160.613 215.56C161.235 215.16 161.941 214.959 162.729 214.959C163.338 214.959 163.831 215.062 164.206 215.266C164.581 215.466 164.872 215.701 165.081 215.969C165.294 216.238 165.458 216.474 165.573 216.679H165.714V215.087H167.587V225.123C167.587 225.966 167.391 226.659 166.999 227.2C166.607 227.741 166.076 228.142 165.407 228.402C164.742 228.662 163.992 228.792 163.157 228.792ZM163.138 223.173C163.688 223.173 164.152 223.045 164.532 222.79C164.915 222.53 165.205 222.159 165.401 221.677C165.601 221.191 165.701 220.61 165.701 219.932C165.701 219.272 165.603 218.69 165.407 218.187C165.211 217.684 164.924 217.292 164.544 217.011C164.165 216.726 163.696 216.583 163.138 216.583C162.563 216.583 162.083 216.732 161.7 217.03C161.316 217.324 161.027 217.725 160.831 218.232C160.639 218.739 160.543 219.306 160.543 219.932C160.543 220.576 160.641 221.14 160.837 221.626C161.033 222.112 161.323 222.491 161.706 222.764C162.094 223.037 162.571 223.173 163.138 223.173ZM169.97 224.905V215.087H171.881V224.905H169.97ZM170.935 213.572C170.603 213.572 170.317 213.461 170.079 213.24C169.844 213.014 169.727 212.745 169.727 212.434C169.727 212.119 169.844 211.851 170.079 211.629C170.317 211.403 170.603 211.29 170.935 211.29C171.268 211.29 171.551 211.403 171.785 211.629C172.024 211.851 172.143 212.119 172.143 212.434C172.143 212.745 172.024 213.014 171.785 213.24C171.551 213.461 171.268 213.572 170.935 213.572ZM181.63 217.484L179.898 217.791C179.825 217.569 179.71 217.358 179.552 217.158C179.399 216.958 179.19 216.794 178.926 216.666C178.662 216.538 178.332 216.474 177.935 216.474C177.394 216.474 176.942 216.596 176.58 216.839C176.218 217.077 176.037 217.386 176.037 217.765C176.037 218.093 176.158 218.358 176.401 218.558C176.644 218.758 177.036 218.922 177.577 219.05L179.137 219.408C180.04 219.617 180.714 219.939 181.157 220.373C181.6 220.808 181.822 221.373 181.822 222.067C181.822 222.655 181.651 223.179 181.31 223.64C180.974 224.096 180.503 224.454 179.898 224.714C179.297 224.973 178.6 225.103 177.807 225.103C176.708 225.103 175.811 224.869 175.116 224.4C174.422 223.927 173.996 223.256 173.838 222.387L175.685 222.106C175.8 222.587 176.037 222.951 176.395 223.199C176.753 223.441 177.219 223.563 177.795 223.563C178.421 223.563 178.922 223.433 179.297 223.173C179.672 222.909 179.859 222.587 179.859 222.208C179.859 221.901 179.744 221.643 179.514 221.434C179.288 221.226 178.941 221.068 178.472 220.961L176.81 220.597C175.894 220.388 175.216 220.056 174.778 219.6C174.343 219.144 174.126 218.566 174.126 217.868C174.126 217.288 174.287 216.781 174.611 216.346C174.935 215.912 175.383 215.573 175.954 215.33C176.525 215.083 177.179 214.959 177.916 214.959C178.977 214.959 179.812 215.189 180.422 215.65C181.031 216.106 181.434 216.717 181.63 217.484ZM188.326 215.087V216.621H182.963V215.087H188.326ZM184.401 212.735H186.313V222.022C186.313 222.393 186.368 222.672 186.479 222.86C186.59 223.043 186.732 223.169 186.907 223.237C187.086 223.301 187.28 223.333 187.489 223.333C187.642 223.333 187.776 223.322 187.891 223.301C188.006 223.28 188.096 223.263 188.16 223.25L188.505 224.829C188.394 224.871 188.237 224.914 188.032 224.956C187.827 225.003 187.572 225.029 187.265 225.033C186.762 225.042 186.293 224.952 185.859 224.765C185.424 224.577 185.073 224.287 184.804 223.895C184.536 223.503 184.401 223.011 184.401 222.419V212.735ZM190.26 224.905V215.087H192.108V216.647H192.21C192.389 216.118 192.704 215.703 193.156 215.4C193.612 215.093 194.127 214.94 194.703 214.94C194.822 214.94 194.963 214.944 195.125 214.953C195.291 214.961 195.421 214.972 195.514 214.985V216.813C195.438 216.792 195.301 216.768 195.105 216.743C194.909 216.713 194.713 216.698 194.517 216.698C194.066 216.698 193.663 216.794 193.309 216.986C192.96 217.173 192.683 217.435 192.478 217.772C192.274 218.104 192.171 218.483 192.171 218.91V224.905H190.26ZM199.758 225.123C199.136 225.123 198.573 225.008 198.07 224.777C197.567 224.543 197.169 224.204 196.875 223.761C196.585 223.318 196.44 222.775 196.44 222.131C196.44 221.577 196.547 221.121 196.76 220.763C196.973 220.405 197.261 220.122 197.623 219.913C197.985 219.704 198.39 219.547 198.837 219.44C199.285 219.334 199.741 219.253 200.205 219.197C200.793 219.129 201.271 219.074 201.637 219.031C202.004 218.984 202.27 218.91 202.436 218.807C202.602 218.705 202.685 218.539 202.685 218.309V218.264C202.685 217.706 202.528 217.273 202.212 216.966C201.901 216.66 201.437 216.506 200.819 216.506C200.175 216.506 199.668 216.649 199.298 216.934C198.931 217.216 198.678 217.529 198.537 217.874L196.741 217.465C196.954 216.868 197.265 216.387 197.674 216.02C198.087 215.65 198.562 215.381 199.099 215.215C199.636 215.044 200.201 214.959 200.793 214.959C201.185 214.959 201.601 215.006 202.04 215.1C202.483 215.189 202.896 215.356 203.28 215.598C203.668 215.841 203.985 216.189 204.232 216.64C204.479 217.088 204.603 217.669 204.603 218.385V224.905H202.736V223.563H202.66C202.536 223.81 202.351 224.053 202.104 224.292C201.857 224.53 201.539 224.728 201.151 224.886C200.763 225.044 200.299 225.123 199.758 225.123ZM200.173 223.589C200.702 223.589 201.153 223.484 201.528 223.275C201.908 223.066 202.195 222.794 202.391 222.457C202.592 222.116 202.692 221.752 202.692 221.364V220.098C202.624 220.167 202.491 220.231 202.295 220.29C202.104 220.346 201.884 220.395 201.637 220.437C201.39 220.476 201.149 220.512 200.915 220.546C200.68 220.576 200.484 220.601 200.327 220.623C199.956 220.669 199.617 220.748 199.31 220.859C199.008 220.97 198.765 221.13 198.582 221.339C198.403 221.543 198.313 221.816 198.313 222.157C198.313 222.63 198.488 222.988 198.837 223.231C199.187 223.469 199.632 223.589 200.173 223.589ZM211.552 215.087V216.621H206.189V215.087H211.552ZM207.627 212.735H209.538V222.022C209.538 222.393 209.594 222.672 209.704 222.86C209.815 223.043 209.958 223.169 210.133 223.237C210.312 223.301 210.506 223.333 210.714 223.333C210.868 223.333 211.002 223.322 211.117 223.301C211.232 223.28 211.322 223.263 211.385 223.25L211.731 224.829C211.62 224.871 211.462 224.914 211.258 224.956C211.053 225.003 210.797 225.029 210.491 225.033C209.988 225.042 209.519 224.952 209.084 224.765C208.65 224.577 208.298 224.287 208.03 223.895C207.761 223.503 207.627 223.011 207.627 222.419V212.735ZM213.486 224.905V215.087H215.397V224.905H213.486ZM214.451 213.572C214.119 213.572 213.833 213.461 213.595 213.24C213.36 213.014 213.243 212.745 213.243 212.434C213.243 212.119 213.36 211.851 213.595 211.629C213.833 211.403 214.119 211.29 214.451 211.29C214.783 211.29 215.067 211.403 215.301 211.629C215.54 211.851 215.659 212.119 215.659 212.434C215.659 212.745 215.54 213.014 215.301 213.24C215.067 213.461 214.783 213.572 214.451 213.572ZM221.924 225.103C221.003 225.103 220.2 224.892 219.514 224.471C218.828 224.049 218.295 223.459 217.916 222.7C217.537 221.941 217.347 221.055 217.347 220.041C217.347 219.022 217.537 218.132 217.916 217.369C218.295 216.606 218.828 216.014 219.514 215.592C220.2 215.17 221.003 214.959 221.924 214.959C222.844 214.959 223.648 215.17 224.334 215.592C225.02 216.014 225.552 216.606 225.932 217.369C226.311 218.132 226.501 219.022 226.501 220.041C226.501 221.055 226.311 221.941 225.932 222.7C225.552 223.459 225.02 224.049 224.334 224.471C223.648 224.892 222.844 225.103 221.924 225.103ZM221.93 223.499C222.527 223.499 223.021 223.341 223.413 223.026C223.805 222.711 224.095 222.291 224.283 221.767C224.474 221.243 224.57 220.665 224.57 220.035C224.57 219.408 224.474 218.833 224.283 218.309C224.095 217.78 223.805 217.356 223.413 217.037C223.021 216.717 222.527 216.557 221.93 216.557C221.329 216.557 220.831 216.717 220.435 217.037C220.043 217.356 219.751 217.78 219.559 218.309C219.371 218.833 219.278 219.408 219.278 220.035C219.278 220.665 219.371 221.243 219.559 221.767C219.751 222.291 220.043 222.711 220.435 223.026C220.831 223.341 221.329 223.499 221.93 223.499ZM230.365 219.076V224.905H228.454V215.087H230.288V216.685H230.41C230.636 216.165 230.989 215.748 231.471 215.432C231.957 215.117 232.568 214.959 233.306 214.959C233.975 214.959 234.561 215.1 235.063 215.381C235.566 215.658 235.956 216.071 236.233 216.621C236.51 217.171 236.649 217.851 236.649 218.66V224.905H234.737V218.89C234.737 218.179 234.552 217.623 234.181 217.222C233.811 216.817 233.301 216.615 232.654 216.615C232.21 216.615 231.816 216.711 231.471 216.902C231.13 217.094 230.86 217.375 230.659 217.746C230.463 218.113 230.365 218.556 230.365 219.076Z" fill="white"/>
<path d="M178.454 170.518H176.46C176.383 170.092 176.241 169.717 176.032 169.393C175.823 169.069 175.567 168.794 175.265 168.568C174.962 168.342 174.623 168.172 174.248 168.057C173.878 167.942 173.483 167.884 173.066 167.884C172.312 167.884 171.636 168.074 171.04 168.453C170.447 168.832 169.978 169.388 169.633 170.121C169.292 170.854 169.122 171.749 169.122 172.806C169.122 173.871 169.292 174.771 169.633 175.504C169.978 176.237 170.449 176.79 171.046 177.165C171.642 177.54 172.314 177.728 173.059 177.728C173.473 177.728 173.865 177.673 174.236 177.562C174.611 177.447 174.949 177.278 175.252 177.057C175.554 176.835 175.81 176.565 176.019 176.245C176.232 175.921 176.379 175.55 176.46 175.133L178.454 175.139C178.348 175.783 178.141 176.375 177.834 176.916C177.532 177.453 177.142 177.918 176.665 178.31C176.191 178.697 175.65 178.998 175.041 179.211C174.432 179.424 173.767 179.531 173.047 179.531C171.913 179.531 170.903 179.262 170.017 178.725C169.13 178.184 168.432 177.411 167.92 176.405C167.413 175.399 167.16 174.2 167.16 172.806C167.16 171.408 167.415 170.209 167.927 169.207C168.438 168.202 169.137 167.43 170.023 166.893C170.91 166.352 171.917 166.082 173.047 166.082C173.741 166.082 174.389 166.182 174.99 166.382C175.595 166.578 176.138 166.868 176.62 167.251C177.101 167.631 177.5 168.095 177.815 168.645C178.13 169.19 178.343 169.815 178.454 170.518ZM182.396 166.261V179.352H180.484V166.261H182.396ZM184.787 179.352V169.533H186.698V179.352H184.787ZM185.752 168.018C185.42 168.018 185.134 167.908 184.895 167.686C184.661 167.46 184.544 167.192 184.544 166.881C184.544 166.565 184.661 166.297 184.895 166.075C185.134 165.849 185.42 165.737 185.752 165.737C186.084 165.737 186.368 165.849 186.602 166.075C186.841 166.297 186.96 166.565 186.96 166.881C186.96 167.192 186.841 167.46 186.602 167.686C186.368 167.908 186.084 168.018 185.752 168.018ZM193.225 179.55C192.275 179.55 191.456 179.335 190.77 178.904C190.088 178.469 189.564 177.871 189.198 177.108C188.831 176.345 188.648 175.472 188.648 174.487C188.648 173.49 188.836 172.61 189.211 171.847C189.586 171.08 190.114 170.482 190.796 170.051C191.478 169.621 192.281 169.406 193.206 169.406C193.951 169.406 194.616 169.544 195.2 169.821C195.784 170.094 196.255 170.477 196.613 170.972C196.975 171.466 197.19 172.043 197.258 172.704H195.398C195.296 172.244 195.061 171.847 194.695 171.515C194.333 171.183 193.847 171.016 193.238 171.016C192.705 171.016 192.238 171.157 191.838 171.438C191.441 171.715 191.132 172.112 190.911 172.627C190.689 173.138 190.579 173.744 190.579 174.442C190.579 175.158 190.687 175.776 190.905 176.296C191.122 176.816 191.429 177.219 191.825 177.504C192.226 177.79 192.696 177.933 193.238 177.933C193.6 177.933 193.928 177.866 194.222 177.734C194.52 177.598 194.77 177.404 194.97 177.153C195.174 176.901 195.317 176.599 195.398 176.245H197.258C197.19 176.88 196.983 177.447 196.638 177.945C196.293 178.444 195.831 178.836 195.251 179.121C194.676 179.407 194 179.55 193.225 179.55ZM200.88 176.021L200.867 173.688H201.199L205.111 169.533H207.4L202.938 174.263H202.638L200.88 176.021ZM199.122 179.352V166.261H201.033V179.352H199.122ZM205.322 179.352L201.807 174.685L203.123 173.349L207.668 179.352H205.322Z" fill="white"/>
<path d="M168.609 117.909L172.253 128.571H172.4L176.043 117.909H178.178L173.467 131H171.185L166.474 117.909H168.609ZM179.735 131V121.182H181.646V131H179.735ZM180.7 119.667C180.368 119.667 180.082 119.556 179.844 119.335C179.609 119.109 179.492 118.84 179.492 118.529C179.492 118.214 179.609 117.945 179.844 117.724C180.082 117.498 180.368 117.385 180.7 117.385C181.033 117.385 181.316 117.498 181.55 117.724C181.789 117.945 181.908 118.214 181.908 118.529C181.908 118.84 181.789 119.109 181.55 119.335C181.316 119.556 181.033 119.667 180.7 119.667ZM188.269 131.198C187.302 131.198 186.469 130.991 185.77 130.578C185.075 130.161 184.538 129.575 184.159 128.82C183.784 128.062 183.597 127.173 183.597 126.155C183.597 125.149 183.784 124.263 184.159 123.496C184.538 122.729 185.067 122.13 185.744 121.7C186.426 121.269 187.223 121.054 188.135 121.054C188.689 121.054 189.226 121.146 189.746 121.329C190.266 121.512 190.732 121.8 191.146 122.192C191.559 122.584 191.885 123.093 192.124 123.719C192.362 124.342 192.481 125.098 192.481 125.989V126.666H184.677V125.234H190.609C190.609 124.732 190.506 124.286 190.302 123.898C190.097 123.506 189.81 123.197 189.439 122.972C189.072 122.746 188.642 122.633 188.148 122.633C187.611 122.633 187.142 122.765 186.741 123.029C186.345 123.289 186.038 123.63 185.821 124.052C185.608 124.469 185.501 124.923 185.501 125.413V126.532C185.501 127.188 185.616 127.746 185.847 128.207C186.081 128.667 186.407 129.018 186.825 129.261C187.242 129.5 187.73 129.619 188.288 129.619C188.651 129.619 188.981 129.568 189.279 129.466C189.577 129.359 189.835 129.202 190.052 128.993C190.27 128.784 190.436 128.526 190.551 128.219L192.36 128.545C192.215 129.078 191.955 129.545 191.58 129.945C191.209 130.342 190.743 130.651 190.18 130.872C189.622 131.089 188.985 131.198 188.269 131.198ZM196.533 131L193.644 121.182H195.619L197.543 128.392H197.639L199.569 121.182H201.544L203.462 128.36H203.558L205.469 121.182H207.444L204.561 131H202.612L200.618 123.911H200.471L198.476 131H196.533Z" fill="white"/>
<path d="M148.929 310.668V297.577H153.595C154.613 297.577 155.457 297.762 156.126 298.133C156.795 298.504 157.296 299.011 157.628 299.654C157.961 300.294 158.127 301.014 158.127 301.815C158.127 302.62 157.958 303.345 157.622 303.988C157.289 304.627 156.787 305.135 156.113 305.51C155.444 305.88 154.603 306.066 153.588 306.066H150.38V304.391H153.409C154.053 304.391 154.575 304.28 154.975 304.059C155.376 303.833 155.67 303.526 155.858 303.138C156.045 302.75 156.139 302.309 156.139 301.815C156.139 301.321 156.045 300.882 155.858 300.498C155.67 300.115 155.374 299.814 154.969 299.597C154.568 299.38 154.04 299.271 153.384 299.271H150.904V310.668H148.929ZM166.328 306.596V300.85H168.246V310.668H166.367V308.968H166.264C166.039 309.492 165.676 309.929 165.178 310.278C164.683 310.623 164.068 310.796 163.33 310.796C162.7 310.796 162.141 310.657 161.656 310.38C161.174 310.099 160.795 309.684 160.518 309.134C160.245 308.584 160.109 307.904 160.109 307.095V300.85H162.02V306.865C162.02 307.534 162.205 308.066 162.576 308.463C162.947 308.859 163.428 309.057 164.021 309.057C164.379 309.057 164.735 308.968 165.088 308.789C165.446 308.61 165.742 308.339 165.977 307.977C166.215 307.615 166.333 307.154 166.328 306.596ZM170.634 310.668V300.85H172.481V302.409H172.583C172.762 301.881 173.078 301.466 173.529 301.163C173.985 300.856 174.501 300.703 175.076 300.703C175.196 300.703 175.336 300.707 175.498 300.716C175.664 300.724 175.794 300.735 175.888 300.748V302.576C175.811 302.554 175.675 302.531 175.479 302.505C175.283 302.475 175.087 302.461 174.891 302.461C174.439 302.461 174.037 302.556 173.683 302.748C173.333 302.936 173.056 303.198 172.852 303.534C172.647 303.867 172.545 304.246 172.545 304.672V310.668H170.634ZM181.146 310.866C180.196 310.866 179.378 310.651 178.692 310.221C178.01 309.786 177.486 309.187 177.119 308.424C176.753 307.662 176.569 306.788 176.569 305.804C176.569 304.806 176.757 303.926 177.132 303.164C177.507 302.397 178.035 301.798 178.717 301.368C179.399 300.937 180.202 300.722 181.127 300.722C181.873 300.722 182.538 300.86 183.121 301.137C183.705 301.41 184.176 301.794 184.534 302.288C184.896 302.782 185.111 303.36 185.18 304.02H183.319C183.217 303.56 182.983 303.164 182.616 302.831C182.254 302.499 181.768 302.333 181.159 302.333C180.626 302.333 180.16 302.473 179.759 302.755C179.363 303.032 179.054 303.428 178.832 303.944C178.611 304.455 178.5 305.06 178.5 305.759C178.5 306.475 178.609 307.093 178.826 307.613C179.043 308.132 179.35 308.535 179.746 308.821C180.147 309.106 180.618 309.249 181.159 309.249C181.521 309.249 181.849 309.183 182.143 309.051C182.442 308.914 182.691 308.721 182.891 308.469C183.096 308.218 183.239 307.915 183.319 307.561H185.18C185.111 308.196 184.905 308.763 184.56 309.262C184.214 309.76 183.752 310.152 183.172 310.438C182.597 310.723 181.922 310.866 181.146 310.866ZM188.955 304.838V310.668H187.043V297.577H188.929V302.448H189.051C189.281 301.919 189.632 301.5 190.105 301.189C190.578 300.877 191.196 300.722 191.959 300.722C192.632 300.722 193.22 300.86 193.723 301.137C194.23 301.414 194.622 301.828 194.899 302.377C195.181 302.923 195.321 303.605 195.321 304.423V310.668H193.41V304.653C193.41 303.933 193.225 303.375 192.854 302.978C192.483 302.578 191.967 302.377 191.307 302.377C190.855 302.377 190.45 302.473 190.092 302.665C189.739 302.857 189.46 303.138 189.255 303.509C189.055 303.875 188.955 304.319 188.955 304.838ZM200.549 310.885C199.927 310.885 199.364 310.77 198.861 310.54C198.358 310.306 197.96 309.967 197.666 309.524C197.376 309.081 197.231 308.537 197.231 307.894C197.231 307.34 197.338 306.884 197.551 306.526C197.764 306.168 198.052 305.885 198.414 305.676C198.776 305.467 199.181 305.309 199.628 305.203C200.076 305.096 200.532 305.015 200.996 304.96C201.584 304.892 202.062 304.836 202.428 304.794C202.795 304.747 203.061 304.672 203.227 304.57C203.393 304.468 203.476 304.301 203.476 304.071V304.027C203.476 303.468 203.319 303.036 203.003 302.729C202.692 302.422 202.228 302.269 201.61 302.269C200.966 302.269 200.459 302.412 200.089 302.697C199.722 302.978 199.469 303.292 199.328 303.637L197.532 303.228C197.745 302.631 198.056 302.15 198.465 301.783C198.878 301.412 199.353 301.144 199.89 300.978C200.427 300.807 200.992 300.722 201.584 300.722C201.976 300.722 202.392 300.769 202.831 300.863C203.274 300.952 203.687 301.118 204.071 301.361C204.459 301.604 204.776 301.951 205.023 302.403C205.27 302.85 205.394 303.432 205.394 304.148V310.668H203.527V309.326H203.451C203.327 309.573 203.142 309.816 202.895 310.054C202.648 310.293 202.33 310.491 201.942 310.649C201.554 310.806 201.09 310.885 200.549 310.885ZM200.964 309.351C201.493 309.351 201.944 309.247 202.319 309.038C202.699 308.829 202.986 308.556 203.182 308.22C203.383 307.879 203.483 307.515 203.483 307.127V305.861C203.415 305.929 203.282 305.993 203.086 306.053C202.895 306.108 202.675 306.157 202.428 306.2C202.181 306.238 201.94 306.275 201.706 306.309C201.471 306.338 201.275 306.364 201.118 306.385C200.747 306.432 200.408 306.511 200.101 306.622C199.799 306.733 199.556 306.892 199.373 307.101C199.194 307.306 199.104 307.578 199.104 307.919C199.104 308.392 199.279 308.75 199.628 308.993C199.978 309.232 200.423 309.351 200.964 309.351ZM215.117 303.247L213.385 303.554C213.312 303.332 213.197 303.121 213.039 302.921C212.886 302.721 212.677 302.556 212.413 302.429C212.149 302.301 211.819 302.237 211.422 302.237C210.881 302.237 210.429 302.358 210.067 302.601C209.705 302.84 209.524 303.149 209.524 303.528C209.524 303.856 209.645 304.12 209.888 304.321C210.131 304.521 210.523 304.685 211.064 304.813L212.624 305.171C213.527 305.38 214.201 305.701 214.644 306.136C215.087 306.571 215.309 307.135 215.309 307.83C215.309 308.418 215.138 308.942 214.797 309.402C214.461 309.858 213.99 310.216 213.385 310.476C212.784 310.736 212.087 310.866 211.294 310.866C210.195 310.866 209.298 310.632 208.603 310.163C207.909 309.69 207.483 309.019 207.325 308.15L209.172 307.868C209.287 308.35 209.524 308.714 209.882 308.961C210.24 309.204 210.706 309.326 211.282 309.326C211.908 309.326 212.409 309.196 212.784 308.936C213.159 308.672 213.346 308.35 213.346 307.971C213.346 307.664 213.231 307.406 213.001 307.197C212.775 306.988 212.428 306.831 211.959 306.724L210.297 306.36C209.381 306.151 208.703 305.819 208.265 305.363C207.83 304.907 207.613 304.329 207.613 303.63C207.613 303.051 207.775 302.544 208.098 302.109C208.422 301.674 208.87 301.336 209.441 301.093C210.012 300.846 210.666 300.722 211.403 300.722C212.464 300.722 213.299 300.952 213.909 301.412C214.518 301.868 214.921 302.48 215.117 303.247ZM221.462 310.866C220.494 310.866 219.661 310.659 218.962 310.246C218.268 309.828 217.731 309.243 217.351 308.488C216.976 307.73 216.789 306.841 216.789 305.823C216.789 304.817 216.976 303.931 217.351 303.164C217.731 302.397 218.259 301.798 218.937 301.368C219.618 300.937 220.415 300.722 221.327 300.722C221.881 300.722 222.418 300.814 222.938 300.997C223.458 301.18 223.925 301.468 224.338 301.86C224.751 302.252 225.077 302.761 225.316 303.387C225.555 304.01 225.674 304.766 225.674 305.657V306.334H217.869V304.902H223.801C223.801 304.4 223.699 303.954 223.494 303.566C223.29 303.174 223.002 302.865 222.631 302.64C222.265 302.414 221.834 302.301 221.34 302.301C220.803 302.301 220.334 302.433 219.934 302.697C219.538 302.957 219.231 303.298 219.013 303.72C218.8 304.137 218.694 304.591 218.694 305.081V306.2C218.694 306.856 218.809 307.414 219.039 307.875C219.273 308.335 219.599 308.686 220.017 308.929C220.435 309.168 220.922 309.287 221.481 309.287C221.843 309.287 222.173 309.236 222.471 309.134C222.77 309.027 223.028 308.87 223.245 308.661C223.462 308.452 223.628 308.194 223.743 307.887L225.552 308.213C225.408 308.746 225.148 309.213 224.773 309.613C224.402 310.01 223.935 310.319 223.373 310.54C222.815 310.757 222.177 310.866 221.462 310.866Z" fill="white"/>
<path d="M147.788 354.518V341.427H152.454C153.468 341.427 154.31 341.601 154.979 341.951C155.652 342.3 156.155 342.784 156.488 343.402C156.82 344.015 156.986 344.725 156.986 345.53C156.986 346.331 156.818 347.037 156.481 347.646C156.149 348.251 155.646 348.722 154.973 349.059C154.304 349.395 153.462 349.564 152.448 349.564H148.913V347.863H152.269C152.908 347.863 153.428 347.772 153.829 347.589C154.233 347.405 154.53 347.139 154.717 346.79C154.905 346.44 154.998 346.02 154.998 345.53C154.998 345.036 154.902 344.608 154.711 344.246C154.523 343.883 154.227 343.606 153.822 343.415C153.422 343.219 152.895 343.121 152.243 343.121H149.763V354.518H147.788ZM154.25 348.611L157.485 354.518H155.235L152.064 348.611H154.25ZM163.165 354.716C162.197 354.716 161.364 354.509 160.665 354.096C159.971 353.678 159.434 353.092 159.055 352.338C158.68 351.579 158.492 350.691 158.492 349.672C158.492 348.667 158.68 347.78 159.055 347.013C159.434 346.246 159.962 345.648 160.64 345.217C161.322 344.787 162.119 344.572 163.031 344.572C163.584 344.572 164.121 344.663 164.641 344.846C165.161 345.03 165.628 345.317 166.041 345.709C166.455 346.101 166.781 346.611 167.019 347.237C167.258 347.859 167.377 348.616 167.377 349.506V350.184H159.572V348.752H165.504C165.504 348.249 165.402 347.804 165.197 347.416C164.993 347.024 164.705 346.715 164.334 346.489C163.968 346.263 163.538 346.15 163.043 346.15C162.506 346.15 162.038 346.282 161.637 346.547C161.241 346.807 160.934 347.148 160.717 347.569C160.504 347.987 160.397 348.441 160.397 348.931V350.05C160.397 350.706 160.512 351.264 160.742 351.724C160.977 352.184 161.303 352.536 161.72 352.779C162.138 353.018 162.626 353.137 163.184 353.137C163.546 353.137 163.876 353.086 164.175 352.983C164.473 352.877 164.731 352.719 164.948 352.51C165.165 352.302 165.332 352.044 165.447 351.737L167.256 352.063C167.111 352.596 166.851 353.062 166.476 353.463C166.105 353.859 165.638 354.168 165.076 354.39C164.518 354.607 163.881 354.716 163.165 354.716ZM173.901 344.699V346.233H168.538V344.699H173.901ZM169.976 342.347H171.887V351.635C171.887 352.006 171.943 352.285 172.053 352.472C172.164 352.655 172.307 352.781 172.482 352.849C172.661 352.913 172.855 352.945 173.063 352.945C173.217 352.945 173.351 352.934 173.466 352.913C173.581 352.892 173.671 352.875 173.735 352.862L174.08 354.441C173.969 354.483 173.811 354.526 173.607 354.569C173.402 354.616 173.146 354.641 172.84 354.645C172.337 354.654 171.868 354.564 171.433 354.377C170.999 354.189 170.647 353.9 170.379 353.508C170.11 353.116 169.976 352.623 169.976 352.031V342.347ZM179.961 354.716C178.994 354.716 178.161 354.509 177.462 354.096C176.767 353.678 176.23 353.092 175.851 352.338C175.476 351.579 175.288 350.691 175.288 349.672C175.288 348.667 175.476 347.78 175.851 347.013C176.23 346.246 176.759 345.648 177.436 345.217C178.118 344.787 178.915 344.572 179.827 344.572C180.381 344.572 180.918 344.663 181.438 344.846C181.957 345.03 182.424 345.317 182.837 345.709C183.251 346.101 183.577 346.611 183.815 347.237C184.054 347.859 184.173 348.616 184.173 349.506V350.184H176.369V348.752H182.3C182.3 348.249 182.198 347.804 181.994 347.416C181.789 347.024 181.501 346.715 181.131 346.489C180.764 346.263 180.334 346.15 179.84 346.15C179.303 346.15 178.834 346.282 178.433 346.547C178.037 346.807 177.73 347.148 177.513 347.569C177.3 347.987 177.193 348.441 177.193 348.931V350.05C177.193 350.706 177.308 351.264 177.538 351.724C177.773 352.184 178.099 352.536 178.516 352.779C178.934 353.018 179.422 353.137 179.98 353.137C180.342 353.137 180.673 353.086 180.971 352.983C181.269 352.877 181.527 352.719 181.744 352.51C181.962 352.302 182.128 352.044 182.243 351.737L184.052 352.063C183.907 352.596 183.647 353.062 183.272 353.463C182.901 353.859 182.435 354.168 181.872 354.39C181.314 354.607 180.677 354.716 179.961 354.716ZM188.025 348.688V354.518H186.114V344.699H187.948V346.297H188.07C188.296 345.778 188.649 345.36 189.131 345.045C189.617 344.729 190.228 344.572 190.965 344.572C191.634 344.572 192.22 344.712 192.723 344.993C193.226 345.27 193.616 345.684 193.893 346.233C194.17 346.783 194.309 347.463 194.309 348.273V354.518H192.397V348.503C192.397 347.791 192.212 347.235 191.841 346.834C191.47 346.43 190.961 346.227 190.313 346.227C189.87 346.227 189.476 346.323 189.131 346.515C188.79 346.706 188.519 346.988 188.319 347.358C188.123 347.725 188.025 348.168 188.025 348.688ZM201.275 344.699V346.233H195.912V344.699H201.275ZM197.35 342.347H199.261V351.635C199.261 352.006 199.317 352.285 199.428 352.472C199.538 352.655 199.681 352.781 199.856 352.849C200.035 352.913 200.229 352.945 200.437 352.945C200.591 352.945 200.725 352.934 200.84 352.913C200.955 352.892 201.045 352.875 201.109 352.862L201.454 354.441C201.343 354.483 201.185 354.526 200.981 354.569C200.776 354.616 200.521 354.641 200.214 354.645C199.711 354.654 199.242 354.564 198.807 354.377C198.373 354.189 198.021 353.9 197.753 353.508C197.484 353.116 197.35 352.623 197.35 352.031V342.347ZM203.209 354.518V344.699H205.12V354.518H203.209ZM204.174 343.184C203.842 343.184 203.556 343.074 203.318 342.852C203.083 342.626 202.966 342.358 202.966 342.047C202.966 341.731 203.083 341.463 203.318 341.241C203.556 341.015 203.842 340.903 204.174 340.903C204.507 340.903 204.79 341.015 205.024 341.241C205.263 341.463 205.382 341.731 205.382 342.047C205.382 342.358 205.263 342.626 205.024 342.852C204.79 343.074 204.507 343.184 204.174 343.184ZM211.647 354.716C210.727 354.716 209.923 354.505 209.237 354.083C208.551 353.661 208.019 353.071 207.639 352.312C207.26 351.554 207.07 350.667 207.07 349.653C207.07 348.635 207.26 347.744 207.639 346.981C208.019 346.219 208.551 345.626 209.237 345.204C209.923 344.782 210.727 344.572 211.647 344.572C212.568 344.572 213.371 344.782 214.057 345.204C214.743 345.626 215.276 346.219 215.655 346.981C216.034 347.744 216.224 348.635 216.224 349.653C216.224 350.667 216.034 351.554 215.655 352.312C215.276 353.071 214.743 353.661 214.057 354.083C213.371 354.505 212.568 354.716 211.647 354.716ZM211.653 353.111C212.25 353.111 212.744 352.954 213.136 352.638C213.528 352.323 213.818 351.903 214.006 351.379C214.197 350.855 214.293 350.278 214.293 349.647C214.293 349.02 214.197 348.445 214.006 347.921C213.818 347.393 213.528 346.969 213.136 346.649C212.744 346.329 212.25 346.17 211.653 346.17C211.053 346.17 210.554 346.329 210.158 346.649C209.766 346.969 209.474 347.393 209.282 347.921C209.095 348.445 209.001 349.02 209.001 349.647C209.001 350.278 209.095 350.855 209.282 351.379C209.474 351.903 209.766 352.323 210.158 352.638C210.554 352.954 211.053 353.111 211.653 353.111ZM220.088 348.688V354.518H218.177V344.699H220.012V346.297H220.133C220.359 345.778 220.713 345.36 221.194 345.045C221.68 344.729 222.291 344.572 223.029 344.572C223.698 344.572 224.284 344.712 224.786 344.993C225.289 345.27 225.679 345.684 225.956 346.233C226.233 346.783 226.372 347.463 226.372 348.273V354.518H224.46V348.503C224.46 347.791 224.275 347.235 223.904 346.834C223.534 346.43 223.024 346.227 222.377 346.227C221.933 346.227 221.539 346.323 221.194 346.515C220.853 346.706 220.583 346.988 220.382 347.358C220.186 347.725 220.088 348.168 220.088 348.688Z" fill="white"/>
<rect y="148" width="374" height="2" fill="white"/>
<rect y="196" width="374" height="2" fill="white"/>
<rect y="239" width="374" height="2" fill="white"/>
<rect y="282" width="374" height="2" fill="white"/>
<rect y="325" width="374" height="2" fill="white"/>
<path d="M231.166 434C229.508 429.411 226.478 425.412 222.469 422.516C218.459 419.62 213.652 417.96 208.666 417.75H175.333C168.703 417.75 162.344 420.318 157.655 424.889C152.967 429.46 150.333 435.66 150.333 442.125C150.333 448.59 152.967 454.79 157.655 459.361C162.344 463.932 168.703 466.5 175.333 466.5H208.666C215.297 466.5 221.656 469.068 226.344 473.639C231.032 478.21 233.666 484.41 233.666 490.875C233.666 497.34 231.032 503.54 226.344 508.111C221.656 512.682 215.297 515.25 208.666 515.25H175.333C170.348 515.04 165.541 513.38 161.531 510.484C157.521 507.588 154.492 503.589 152.833 499" stroke="#23A6F0" stroke-width="5" stroke-linecap="round" stroke-linejoin="round"/>
<path d="M192 515.25V539.625M192 393.375V417.75V393.375Z" stroke="#23A6F0" stroke-width="5" stroke-linecap="round" stroke-linejoin="round"/>
<rect width="373.029" height="94" rx="8" fill="#23A6F0"/>
<path d="M33.4468 52L28.6059 34.5455H31.3758L34.7763 48.0625H34.9383L38.4752 34.5455H41.2195L44.7564 48.071H44.9184L48.3104 34.5455H51.0888L46.2394 52H43.5888L39.9155 38.9261H39.7792L36.1059 52H33.4468ZM57.3985 52.2642C56.1088 52.2642 54.998 51.9886 54.0662 51.4375C53.14 50.8807 52.4241 50.0994 51.9184 49.0938C51.4184 48.0824 51.1684 46.8977 51.1684 45.5398C51.1684 44.1989 51.4184 43.017 51.9184 41.9943C52.4241 40.9716 53.1287 40.1733 54.0321 39.5994C54.9412 39.0256 56.0037 38.7386 57.2196 38.7386C57.9582 38.7386 58.6741 38.8608 59.3673 39.1051C60.0605 39.3494 60.6826 39.733 61.2338 40.2557C61.7849 40.7784 62.2196 41.4574 62.5378 42.2926C62.8559 43.1222 63.015 44.1307 63.015 45.3182V46.2216H52.6088V44.3125H60.5179C60.5179 43.642 60.3815 43.0483 60.1088 42.5312C59.836 42.0085 59.4525 41.5966 58.9582 41.2955C58.4696 40.9943 57.8957 40.8438 57.2366 40.8438C56.5207 40.8438 55.8957 41.0199 55.3616 41.3722C54.8332 41.7187 54.4241 42.1733 54.1343 42.7358C53.8503 43.2926 53.7082 43.8977 53.7082 44.5511V46.0426C53.7082 46.9176 53.8616 47.6619 54.1684 48.2756C54.4809 48.8892 54.9156 49.358 55.4724 49.6818C56.0292 50 56.6798 50.1591 57.4241 50.1591C57.9071 50.1591 58.3474 50.0909 58.7451 49.9545C59.1429 49.8125 59.4866 49.6023 59.7764 49.3239C60.0662 49.0455 60.2878 48.7017 60.4412 48.2926L62.8531 48.7273C62.6599 49.4375 62.3133 50.0597 61.8133 50.5938C61.319 51.1222 60.6968 51.5341 59.9468 51.8295C59.2025 52.1193 58.3531 52.2642 57.3985 52.2642ZM65.807 52V34.5455H68.3553V41.0312H68.5087C68.6564 40.7585 68.8695 40.4432 69.1479 40.0852C69.4263 39.7273 69.8127 39.4148 70.307 39.1477C70.8013 38.875 71.4547 38.7386 72.2672 38.7386C73.324 38.7386 74.2672 39.0057 75.0968 39.5398C75.9263 40.0739 76.5769 40.8437 77.0485 41.8494C77.5257 42.8551 77.7644 44.0653 77.7644 45.4801C77.7644 46.8949 77.5286 48.108 77.057 49.1193C76.5854 50.125 75.9377 50.9006 75.1138 51.446C74.2899 51.9858 73.3496 52.2557 72.2928 52.2557C71.4973 52.2557 70.8468 52.1222 70.3411 51.8551C69.8411 51.5881 69.449 51.2756 69.1649 50.9176C68.8808 50.5597 68.6621 50.2415 68.5087 49.9631H68.2956V52H65.807ZM68.3041 45.4545C68.3041 46.375 68.4377 47.1818 68.7047 47.875C68.9718 48.5682 69.3581 49.1108 69.8638 49.5028C70.3695 49.8892 70.9888 50.0824 71.7218 50.0824C72.4831 50.0824 73.1195 49.8807 73.6308 49.4773C74.1422 49.0682 74.5286 48.5142 74.7899 47.8153C75.057 47.1165 75.1905 46.3295 75.1905 45.4545C75.1905 44.5909 75.0598 43.8153 74.7985 43.1278C74.5428 42.4403 74.1564 41.8977 73.6394 41.5C73.128 41.1023 72.4888 40.9034 71.7218 40.9034C70.9831 40.9034 70.3581 41.0937 69.8468 41.4744C69.3411 41.8551 68.9576 42.3864 68.6962 43.0682C68.4348 43.75 68.3041 44.5455 68.3041 45.4545ZM90.1955 42.1051L87.8859 42.5142C87.7893 42.2187 87.6359 41.9375 87.4256 41.6705C87.2211 41.4034 86.9427 41.1847 86.5904 41.0142C86.2381 40.8437 85.7978 40.7585 85.2694 40.7585C84.5478 40.7585 83.9455 40.9205 83.4626 41.2443C82.9796 41.5625 82.7381 41.9744 82.7381 42.4801C82.7381 42.9176 82.9001 43.2699 83.2239 43.5369C83.5478 43.804 84.0705 44.0227 84.7921 44.1932L86.8717 44.6705C88.0762 44.9489 88.9739 45.3778 89.5649 45.9574C90.1558 46.5369 90.4512 47.2898 90.4512 48.2159C90.4512 49 90.2239 49.6989 89.7694 50.3125C89.3205 50.9205 88.6927 51.3977 87.8859 51.7443C87.0847 52.0909 86.1558 52.2642 85.0989 52.2642C83.633 52.2642 82.437 51.9517 81.5109 51.3267C80.5847 50.696 80.0166 49.8011 79.8063 48.642L82.2694 48.267C82.4228 48.9091 82.7381 49.3949 83.2154 49.7244C83.6927 50.0483 84.3149 50.2102 85.0819 50.2102C85.9171 50.2102 86.5847 50.0369 87.0847 49.6903C87.5847 49.3381 87.8347 48.9091 87.8347 48.4034C87.8347 47.9943 87.6813 47.6506 87.3745 47.3722C87.0734 47.0937 86.6103 46.8835 85.9853 46.7415L83.7694 46.2557C82.5478 45.9773 81.6444 45.5341 81.0592 44.9261C80.4796 44.3182 80.1899 43.5483 80.1899 42.6165C80.1899 41.8437 80.4058 41.1676 80.8376 40.5881C81.2694 40.0085 81.866 39.5568 82.6274 39.233C83.3887 38.9034 84.2609 38.7386 85.2438 38.7386C86.6586 38.7386 87.7722 39.0455 88.5847 39.6591C89.3972 40.267 89.9342 41.0824 90.1955 42.1051ZM93.0131 52V38.9091H95.5614V52H93.0131ZM94.3 36.8892C93.8568 36.8892 93.4761 36.7415 93.1579 36.446C92.8454 36.1449 92.6892 35.7869 92.6892 35.3722C92.6892 34.9517 92.8454 34.5937 93.1579 34.2983C93.4761 33.9972 93.8568 33.8466 94.3 33.8466C94.7432 33.8466 95.121 33.9972 95.4335 34.2983C95.7517 34.5937 95.9108 34.9517 95.9108 35.3722C95.9108 35.7869 95.7517 36.1449 95.4335 36.446C95.121 36.7415 94.7432 36.8892 94.3 36.8892ZM104.86 38.9091V40.9545H97.7099V38.9091H104.86ZM99.6275 35.7727H102.176V48.1562C102.176 48.6506 102.25 49.0227 102.397 49.2727C102.545 49.517 102.735 49.6847 102.968 49.7756C103.207 49.8608 103.466 49.9034 103.744 49.9034C103.948 49.9034 104.127 49.8892 104.281 49.8608C104.434 49.8324 104.554 49.8097 104.639 49.7926L105.099 51.8977C104.951 51.9545 104.741 52.0114 104.468 52.0682C104.196 52.1307 103.855 52.1648 103.446 52.1705C102.775 52.1818 102.15 52.0625 101.571 51.8125C100.991 51.5625 100.522 51.1761 100.164 50.6534C99.8064 50.1307 99.6275 49.4744 99.6275 48.6847V35.7727ZM112.941 52.2642C111.651 52.2642 110.54 51.9886 109.608 51.4375C108.682 50.8807 107.966 50.0994 107.461 49.0938C106.961 48.0824 106.711 46.8977 106.711 45.5398C106.711 44.1989 106.961 43.017 107.461 41.9943C107.966 40.9716 108.671 40.1733 109.574 39.5994C110.483 39.0256 111.546 38.7386 112.762 38.7386C113.5 38.7386 114.216 38.8608 114.909 39.1051C115.603 39.3494 116.225 39.733 116.776 40.2557C117.327 40.7784 117.762 41.4574 118.08 42.2926C118.398 43.1222 118.557 44.1307 118.557 45.3182V46.2216H108.151V44.3125H116.06C116.06 43.642 115.924 43.0483 115.651 42.5312C115.378 42.0085 114.995 41.5966 114.5 41.2955C114.012 40.9943 113.438 40.8438 112.779 40.8438C112.063 40.8438 111.438 41.0199 110.904 41.3722C110.375 41.7187 109.966 42.1733 109.677 42.7358C109.392 43.2926 109.25 43.8977 109.25 44.5511V46.0426C109.25 46.9176 109.404 47.6619 109.711 48.2756C110.023 48.8892 110.458 49.358 111.015 49.6818C111.571 50 112.222 50.1591 112.966 50.1591C113.449 50.1591 113.89 50.0909 114.287 49.9545C114.685 49.8125 115.029 49.6023 115.319 49.3239C115.608 49.0455 115.83 48.7017 115.983 48.2926L118.395 48.7273C118.202 49.4375 117.856 50.0597 117.356 50.5938C116.861 51.1222 116.239 51.5341 115.489 51.8295C114.745 52.1193 113.895 52.2642 112.941 52.2642ZM127.461 34.5455H130.657L136.214 48.1136H136.418L141.975 34.5455H145.171V52H142.665V39.3693H142.503L137.356 51.9744H135.276L130.128 39.3608H129.966V52H127.461V34.5455ZM159.984 34.5455H162.626V46.0256C162.626 47.2472 162.339 48.3295 161.765 49.2727C161.192 50.2102 160.385 50.9489 159.345 51.4886C158.305 52.0227 157.086 52.2898 155.689 52.2898C154.297 52.2898 153.081 52.0227 152.041 51.4886C151.001 50.9489 150.194 50.2102 149.621 49.2727C149.047 48.3295 148.76 47.2472 148.76 46.0256V34.5455H151.393V45.8125C151.393 46.6023 151.567 47.304 151.913 47.9176C152.265 48.5312 152.763 49.0142 153.405 49.3665C154.047 49.7131 154.808 49.8864 155.689 49.8864C156.575 49.8864 157.339 49.7131 157.981 49.3665C158.629 49.0142 159.123 48.5312 159.464 47.9176C159.811 47.304 159.984 46.6023 159.984 45.8125V34.5455ZM175.735 39.1307C175.644 38.3239 175.269 37.6989 174.61 37.2557C173.951 36.8068 173.121 36.5824 172.121 36.5824C171.405 36.5824 170.786 36.696 170.263 36.9233C169.741 37.1449 169.334 37.4517 169.045 37.8438C168.761 38.2301 168.619 38.6705 168.619 39.1648C168.619 39.5795 168.715 39.9375 168.908 40.2386C169.107 40.5398 169.366 40.7926 169.684 40.9972C170.008 41.196 170.354 41.3636 170.724 41.5C171.093 41.6307 171.448 41.7386 171.789 41.8239L173.494 42.267C174.05 42.4034 174.621 42.5881 175.207 42.821C175.792 43.054 176.334 43.3608 176.834 43.7415C177.334 44.1222 177.738 44.5938 178.045 45.1562C178.357 45.7188 178.513 46.392 178.513 47.1761C178.513 48.1648 178.258 49.0426 177.746 49.8097C177.241 50.5767 176.505 51.1818 175.539 51.625C174.579 52.0682 173.417 52.2898 172.053 52.2898C170.746 52.2898 169.616 52.0824 168.661 51.6676C167.707 51.2528 166.959 50.6648 166.42 49.9034C165.88 49.1364 165.582 48.2273 165.525 47.1761H168.167C168.218 47.8068 168.423 48.3324 168.78 48.7528C169.144 49.1676 169.607 49.4773 170.17 49.6818C170.738 49.8807 171.36 49.9801 172.036 49.9801C172.78 49.9801 173.442 49.8636 174.022 49.6307C174.607 49.392 175.067 49.0625 175.403 48.642C175.738 48.2159 175.905 47.7187 175.905 47.1506C175.905 46.6335 175.758 46.2102 175.462 45.8807C175.173 45.5511 174.778 45.2784 174.278 45.0625C173.783 44.8466 173.224 44.6562 172.599 44.4915L170.536 43.929C169.138 43.5483 168.03 42.9886 167.212 42.25C166.4 41.5114 165.994 40.5341 165.994 39.3182C165.994 38.3125 166.266 37.4347 166.812 36.6847C167.357 35.9347 168.096 35.3523 169.028 34.9375C169.959 34.517 171.011 34.3068 172.181 34.3068C173.363 34.3068 174.405 34.5142 175.309 34.929C176.218 35.3438 176.934 35.9148 177.457 36.642C177.979 37.3636 178.252 38.1932 178.275 39.1307H175.735ZM180.56 36.8125V34.5455H194.068V36.8125H188.622V52H185.997V36.8125H180.56ZM202.925 52V34.5455H205.558V42.1307H214.26V34.5455H216.902V52H214.26V44.3892H205.558V52H202.925ZM221.972 52H219.176L225.458 34.5455H228.5L234.781 52H231.986L227.051 37.7159H226.915L221.972 52ZM222.44 45.1648H231.509V47.3807H222.44V45.1648ZM236.759 34.5455L241.617 48.7614H241.813L246.671 34.5455H249.518L243.237 52H240.194L233.913 34.5455H236.759ZM251.799 52V34.5455H262.742V36.8125H254.432V42.1307H262.171V44.3892H254.432V49.733H262.844V52H251.799ZM277.569 52.2642C276.279 52.2642 275.168 51.9886 274.236 51.4375C273.31 50.8807 272.594 50.0994 272.088 49.0938C271.588 48.0824 271.338 46.8977 271.338 45.5398C271.338 44.1989 271.588 43.017 272.088 41.9943C272.594 40.9716 273.299 40.1733 274.202 39.5994C275.111 39.0256 276.174 38.7386 277.39 38.7386C278.128 38.7386 278.844 38.8608 279.537 39.1051C280.23 39.3494 280.853 39.733 281.404 40.2557C281.955 40.7784 282.39 41.4574 282.708 42.2926C283.026 43.1222 283.185 44.1307 283.185 45.3182V46.2216H272.779V44.3125H280.688C280.688 43.642 280.552 43.0483 280.279 42.5312C280.006 42.0085 279.623 41.5966 279.128 41.2955C278.64 40.9943 278.066 40.8438 277.407 40.8438C276.691 40.8438 276.066 41.0199 275.532 41.3722C275.003 41.7187 274.594 42.1733 274.304 42.7358C274.02 43.2926 273.878 43.8977 273.878 44.5511V46.0426C273.878 46.9176 274.032 47.6619 274.338 48.2756C274.651 48.8892 275.086 49.358 275.642 49.6818C276.199 50 276.85 50.1591 277.594 50.1591C278.077 50.1591 278.517 50.0909 278.915 49.9545C279.313 49.8125 279.657 49.6023 279.946 49.3239C280.236 49.0455 280.458 48.7017 280.611 48.2926L283.023 48.7273C282.83 49.4375 282.483 50.0597 281.983 50.5938C281.489 51.1222 280.867 51.5341 280.117 51.8295C279.373 52.1193 278.523 52.2642 277.569 52.2642ZM296.596 38.9091L291.849 52H289.122L284.366 38.9091H287.102L290.417 48.983H290.554L293.861 38.9091H296.596ZM303.948 52.2642C302.658 52.2642 301.547 51.9886 300.616 51.4375C299.689 50.8807 298.974 50.0994 298.468 49.0938C297.968 48.0824 297.718 46.8977 297.718 45.5398C297.718 44.1989 297.968 43.017 298.468 41.9943C298.974 40.9716 299.678 40.1733 300.581 39.5994C301.491 39.0256 302.553 38.7386 303.769 38.7386C304.508 38.7386 305.224 38.8608 305.917 39.1051C306.61 39.3494 307.232 39.733 307.783 40.2557C308.334 40.7784 308.769 41.4574 309.087 42.2926C309.405 43.1222 309.564 44.1307 309.564 45.3182V46.2216H299.158V44.3125H307.067C307.067 43.642 306.931 43.0483 306.658 42.5312C306.385 42.0085 306.002 41.5966 305.508 41.2955C305.019 40.9943 304.445 40.8438 303.786 40.8438C303.07 40.8438 302.445 41.0199 301.911 41.3722C301.383 41.7187 300.974 42.1733 300.684 42.7358C300.4 43.2926 300.258 43.8977 300.258 44.5511V46.0426C300.258 46.9176 300.411 47.6619 300.718 48.2756C301.03 48.8892 301.465 49.358 302.022 49.6818C302.579 50 303.229 50.1591 303.974 50.1591C304.456 50.1591 304.897 50.0909 305.295 49.9545C305.692 49.8125 306.036 49.6023 306.326 49.3239C306.616 49.0455 306.837 48.7017 306.991 48.2926L309.402 48.7273C309.209 49.4375 308.863 50.0597 308.363 50.5938C307.868 51.1222 307.246 51.5341 306.496 51.8295C305.752 52.1193 304.902 52.2642 303.948 52.2642ZM314.7 44.2273V52H312.152V38.9091H314.598V41.0398H314.76C315.061 40.3466 315.532 39.7898 316.175 39.3693C316.822 38.9489 317.638 38.7386 318.621 38.7386C319.513 38.7386 320.294 38.9261 320.964 39.3011C321.635 39.6705 322.155 40.2216 322.524 40.9545C322.893 41.6875 323.078 42.5937 323.078 43.6733V52H320.53V43.9801C320.53 43.0312 320.282 42.2898 319.788 41.7557C319.294 41.2159 318.615 40.946 317.751 40.946C317.16 40.946 316.635 41.0739 316.175 41.3295C315.72 41.5852 315.359 41.9602 315.092 42.4545C314.831 42.9432 314.7 43.5341 314.7 44.2273ZM332.366 38.9091V40.9545H325.216V38.9091H332.366ZM327.133 35.7727H329.682V48.1562C329.682 48.6506 329.756 49.0227 329.903 49.2727C330.051 49.517 330.241 49.6847 330.474 49.7756C330.713 49.8608 330.971 49.9034 331.25 49.9034C331.454 49.9034 331.633 49.8892 331.787 49.8608C331.94 49.8324 332.06 49.8097 332.145 49.7926L332.605 51.8977C332.457 51.9545 332.247 52.0114 331.974 52.0682C331.702 52.1307 331.361 52.1648 330.952 52.1705C330.281 52.1818 329.656 52.0625 329.077 51.8125C328.497 51.5625 328.028 51.1761 327.67 50.6534C327.312 50.1307 327.133 49.4744 327.133 48.6847V35.7727ZM344.544 42.1051L342.234 42.5142C342.138 42.2187 341.984 41.9375 341.774 41.6705C341.57 41.4034 341.291 41.1847 340.939 41.0142C340.587 40.8437 340.146 40.7585 339.618 40.7585C338.896 40.7585 338.294 40.9205 337.811 41.2443C337.328 41.5625 337.087 41.9744 337.087 42.4801C337.087 42.9176 337.249 43.2699 337.572 43.5369C337.896 43.804 338.419 44.0227 339.141 44.1932L341.22 44.6705C342.425 44.9489 343.322 45.3778 343.913 45.9574C344.504 46.5369 344.8 47.2898 344.8 48.2159C344.8 49 344.572 49.6989 344.118 50.3125C343.669 50.9205 343.041 51.3977 342.234 51.7443C341.433 52.0909 340.504 52.2642 339.447 52.2642C337.981 52.2642 336.785 51.9517 335.859 51.3267C334.933 50.696 334.365 49.8011 334.155 48.642L336.618 48.267C336.771 48.9091 337.087 49.3949 337.564 49.7244C338.041 50.0483 338.663 50.2102 339.43 50.2102C340.266 50.2102 340.933 50.0369 341.433 49.6903C341.933 49.3381 342.183 48.9091 342.183 48.4034C342.183 47.9943 342.03 47.6506 341.723 47.3722C341.422 47.0937 340.959 46.8835 340.334 46.7415L338.118 46.2557C336.896 45.9773 335.993 45.5341 335.408 44.9261C334.828 44.3182 334.538 43.5483 334.538 42.6165C334.538 41.8437 334.754 41.1676 335.186 40.5881C335.618 40.0085 336.214 39.5568 336.976 39.233C337.737 38.9034 338.609 38.7386 339.592 38.7386C341.007 38.7386 342.121 39.0455 342.933 39.6591C343.746 40.267 344.283 41.0824 344.544 42.1051Z" fill="white"/>
</svg>
