<svg width="375" height="619" viewBox="0 0 375 619" fill="none" xmlns="http://www.w3.org/2000/svg">
<path d="M1 107H375L292.326 379H92.5316L1 107Z" fill="#4361EE"/>
<path d="M160.192 267.927C160.192 269.325 159.936 270.527 159.425 271.532C158.913 272.534 158.212 273.305 157.322 273.846C156.435 274.383 155.427 274.652 154.298 274.652C153.165 274.652 152.153 274.383 151.262 273.846C150.376 273.305 149.677 272.532 149.165 271.526C148.654 270.52 148.398 269.321 148.398 267.927C148.398 266.529 148.654 265.33 149.165 264.328C149.677 263.323 150.376 262.551 151.262 262.015C152.153 261.473 153.165 261.203 154.298 261.203C155.427 261.203 156.435 261.473 157.322 262.015C158.212 262.551 158.913 263.323 159.425 264.328C159.936 265.33 160.192 266.529 160.192 267.927ZM158.236 267.927C158.236 266.862 158.063 265.965 157.718 265.236C157.377 264.503 156.908 263.949 156.312 263.574C155.719 263.195 155.048 263.005 154.298 263.005C153.544 263.005 152.871 263.195 152.278 263.574C151.686 263.949 151.217 264.503 150.872 265.236C150.531 265.965 150.361 266.862 150.361 267.927C150.361 268.993 150.531 269.892 150.872 270.625C151.217 271.353 151.686 271.907 152.278 272.287C152.871 272.662 153.544 272.849 154.298 272.849C155.048 272.849 155.719 272.662 156.312 272.287C156.908 271.907 157.377 271.353 157.718 270.625C158.063 269.892 158.236 268.993 158.236 267.927ZM162.321 278.154V264.654H164.187V266.246H164.347C164.458 266.042 164.618 265.805 164.826 265.537C165.035 265.268 165.325 265.034 165.696 264.833C166.066 264.629 166.557 264.527 167.166 264.527C167.959 264.527 168.666 264.727 169.288 265.127C169.91 265.528 170.398 266.105 170.752 266.86C171.11 267.614 171.289 268.522 171.289 269.583C171.289 270.644 171.112 271.554 170.758 272.312C170.405 273.066 169.919 273.648 169.301 274.057C168.683 274.462 167.978 274.664 167.185 274.664C166.588 274.664 166.101 274.564 165.721 274.364C165.346 274.164 165.052 273.929 164.839 273.661C164.626 273.392 164.462 273.154 164.347 272.945H164.232V278.154H162.321ZM164.194 269.564C164.194 270.254 164.294 270.859 164.494 271.379C164.694 271.899 164.984 272.306 165.363 272.6C165.743 272.89 166.207 273.034 166.757 273.034C167.328 273.034 167.805 272.883 168.189 272.581C168.572 272.274 168.862 271.858 169.058 271.334C169.258 270.81 169.358 270.22 169.358 269.564C169.358 268.916 169.26 268.334 169.064 267.819C168.873 267.303 168.583 266.896 168.195 266.598C167.812 266.299 167.332 266.15 166.757 266.15C166.203 266.15 165.734 266.293 165.351 266.578C164.971 266.864 164.684 267.262 164.488 267.774C164.292 268.285 164.194 268.882 164.194 269.564ZM177.482 274.671C176.514 274.671 175.681 274.464 174.982 274.051C174.288 273.633 173.751 273.047 173.372 272.293C172.997 271.534 172.809 270.646 172.809 269.627C172.809 268.622 172.997 267.735 173.372 266.968C173.751 266.201 174.279 265.603 174.957 265.172C175.639 264.742 176.435 264.527 177.347 264.527C177.901 264.527 178.438 264.618 178.958 264.801C179.478 264.985 179.945 265.272 180.358 265.664C180.771 266.056 181.097 266.566 181.336 267.192C181.575 267.814 181.694 268.571 181.694 269.461V270.139H173.889V268.707H179.821C179.821 268.204 179.719 267.759 179.514 267.371C179.31 266.979 179.022 266.67 178.651 266.444C178.285 266.218 177.855 266.105 177.36 266.105C176.823 266.105 176.355 266.238 175.954 266.502C175.558 266.762 175.251 267.103 175.033 267.525C174.82 267.942 174.714 268.396 174.714 268.886V270.005C174.714 270.661 174.829 271.219 175.059 271.679C175.293 272.14 175.619 272.491 176.037 272.734C176.455 272.973 176.943 273.092 177.501 273.092C177.863 273.092 178.193 273.041 178.492 272.939C178.79 272.832 179.048 272.674 179.265 272.466C179.482 272.257 179.649 271.999 179.764 271.692L181.573 272.018C181.428 272.551 181.168 273.017 180.793 273.418C180.422 273.814 179.955 274.123 179.393 274.345C178.835 274.562 178.198 274.671 177.482 274.671ZM185.546 268.643V274.473H183.635V264.654H185.469V266.252H185.591C185.816 265.733 186.17 265.315 186.652 265C187.137 264.684 187.749 264.527 188.486 264.527C189.155 264.527 189.741 264.667 190.244 264.949C190.747 265.225 191.137 265.639 191.414 266.189C191.691 266.738 191.829 267.418 191.829 268.228V274.473H189.918V268.458C189.918 267.746 189.733 267.19 189.362 266.789C188.991 266.385 188.482 266.182 187.834 266.182C187.391 266.182 186.997 266.278 186.652 266.47C186.311 266.662 186.04 266.943 185.84 267.314C185.644 267.68 185.546 268.123 185.546 268.643ZM201.653 274.69C201.031 274.69 200.469 274.575 199.966 274.345C199.463 274.11 199.065 273.772 198.77 273.328C198.481 272.885 198.336 272.342 198.336 271.699C198.336 271.145 198.442 270.689 198.655 270.331C198.868 269.973 199.156 269.689 199.518 269.48C199.881 269.272 200.285 269.114 200.733 269.007C201.18 268.901 201.636 268.82 202.101 268.765C202.689 268.696 203.166 268.641 203.533 268.598C203.899 268.551 204.165 268.477 204.332 268.375C204.498 268.272 204.581 268.106 204.581 267.876V267.831C204.581 267.273 204.423 266.841 204.108 266.534C203.797 266.227 203.332 266.074 202.714 266.074C202.071 266.074 201.564 266.216 201.193 266.502C200.827 266.783 200.573 267.096 200.432 267.441L198.636 267.032C198.849 266.436 199.16 265.954 199.569 265.588C199.983 265.217 200.458 264.949 200.995 264.782C201.532 264.612 202.096 264.527 202.689 264.527C203.081 264.527 203.496 264.574 203.935 264.667C204.378 264.757 204.792 264.923 205.175 265.166C205.563 265.409 205.881 265.756 206.128 266.208C206.375 266.655 206.498 267.237 206.498 267.953V274.473H204.632V273.13H204.555C204.432 273.377 204.246 273.62 203.999 273.859C203.752 274.098 203.435 274.296 203.047 274.453C202.659 274.611 202.194 274.69 201.653 274.69ZM202.069 273.156C202.597 273.156 203.049 273.051 203.424 272.843C203.803 272.634 204.091 272.361 204.287 272.025C204.487 271.684 204.587 271.319 204.587 270.931V269.666C204.519 269.734 204.387 269.798 204.191 269.858C203.999 269.913 203.78 269.962 203.533 270.005C203.285 270.043 203.045 270.079 202.81 270.113C202.576 270.143 202.38 270.169 202.222 270.19C201.851 270.237 201.513 270.316 201.206 270.426C200.903 270.537 200.66 270.697 200.477 270.906C200.298 271.11 200.209 271.383 200.209 271.724C200.209 272.197 200.383 272.555 200.733 272.798C201.082 273.037 201.528 273.156 202.069 273.156ZM208.864 278.154V264.654H210.731V266.246H210.89C211.001 266.042 211.161 265.805 211.37 265.537C211.579 265.268 211.868 265.034 212.239 264.833C212.61 264.629 213.1 264.527 213.709 264.527C214.502 264.527 215.209 264.727 215.831 265.127C216.454 265.528 216.942 266.105 217.295 266.86C217.653 267.614 217.832 268.522 217.832 269.583C217.832 270.644 217.655 271.554 217.302 272.312C216.948 273.066 216.462 273.648 215.844 274.057C215.226 274.462 214.521 274.664 213.728 274.664C213.132 274.664 212.644 274.564 212.265 274.364C211.89 274.164 211.596 273.929 211.383 273.661C211.169 273.392 211.005 273.154 210.89 272.945H210.775V278.154H208.864ZM210.737 269.564C210.737 270.254 210.837 270.859 211.037 271.379C211.238 271.899 211.527 272.306 211.907 272.6C212.286 272.89 212.75 273.034 213.3 273.034C213.871 273.034 214.348 272.883 214.732 272.581C215.116 272.274 215.405 271.858 215.601 271.334C215.802 270.81 215.902 270.22 215.902 269.564C215.902 268.916 215.804 268.334 215.608 267.819C215.416 267.303 215.126 266.896 214.738 266.598C214.355 266.299 213.875 266.15 213.3 266.15C212.746 266.15 212.277 266.293 211.894 266.578C211.515 266.864 211.227 267.262 211.031 267.774C210.835 268.285 210.737 268.882 210.737 269.564ZM219.793 278.154V264.654H221.66V266.246H221.82C221.931 266.042 222.09 265.805 222.299 265.537C222.508 265.268 222.798 265.034 223.168 264.833C223.539 264.629 224.029 264.527 224.639 264.527C225.431 264.527 226.139 264.727 226.761 265.127C227.383 265.528 227.871 266.105 228.225 266.86C228.583 267.614 228.762 268.522 228.762 269.583C228.762 270.644 228.585 271.554 228.231 272.312C227.877 273.066 227.391 273.648 226.774 274.057C226.156 274.462 225.45 274.664 224.658 274.664C224.061 274.664 223.573 274.564 223.194 274.364C222.819 274.164 222.525 273.929 222.312 273.661C222.099 273.392 221.935 273.154 221.82 272.945H221.705V278.154H219.793ZM221.666 269.564C221.666 270.254 221.766 270.859 221.967 271.379C222.167 271.899 222.457 272.306 222.836 272.6C223.215 272.89 223.68 273.034 224.23 273.034C224.801 273.034 225.278 272.883 225.661 272.581C226.045 272.274 226.335 271.858 226.531 271.334C226.731 270.81 226.831 270.22 226.831 269.564C226.831 268.916 226.733 268.334 226.537 267.819C226.345 267.303 226.056 266.896 225.668 266.598C225.284 266.299 224.805 266.15 224.23 266.15C223.676 266.15 223.207 266.293 222.823 266.578C222.444 266.864 222.156 267.262 221.96 267.774C221.764 268.285 221.666 268.882 221.666 269.564Z" fill="white"/>
<path d="M151.81 231.905H147.572V218.814H151.944C153.227 218.814 154.329 219.076 155.249 219.601C156.169 220.12 156.875 220.868 157.365 221.844C157.859 222.816 158.106 223.981 158.106 225.341C158.106 226.704 157.857 227.876 157.358 228.856C156.864 229.836 156.148 230.591 155.211 231.119C154.273 231.643 153.14 231.905 151.81 231.905ZM149.547 230.179H151.701C152.699 230.179 153.527 229.992 154.188 229.617C154.848 229.238 155.343 228.69 155.671 227.974C155.999 227.254 156.163 226.376 156.163 225.341C156.163 224.314 155.999 223.442 155.671 222.726C155.347 222.01 154.863 221.467 154.22 221.096C153.576 220.726 152.777 220.54 151.823 220.54H149.547V230.179ZM164.365 232.103C163.444 232.103 162.641 231.892 161.955 231.471C161.269 231.049 160.736 230.459 160.357 229.7C159.978 228.941 159.788 228.055 159.788 227.041C159.788 226.022 159.978 225.132 160.357 224.369C160.736 223.606 161.269 223.014 161.955 222.592C162.641 222.17 163.444 221.959 164.365 221.959C165.285 221.959 166.088 222.17 166.774 222.592C167.46 223.014 167.993 223.606 168.372 224.369C168.752 225.132 168.941 226.022 168.941 227.041C168.941 228.055 168.752 228.941 168.372 229.7C167.993 230.459 167.46 231.049 166.774 231.471C166.088 231.892 165.285 232.103 164.365 232.103ZM164.371 230.499C164.968 230.499 165.462 230.341 165.854 230.026C166.246 229.711 166.536 229.291 166.723 228.767C166.915 228.243 167.011 227.665 167.011 227.035C167.011 226.408 166.915 225.833 166.723 225.309C166.536 224.78 166.246 224.356 165.854 224.037C165.462 223.717 164.968 223.557 164.371 223.557C163.77 223.557 163.272 223.717 162.875 224.037C162.483 224.356 162.191 224.78 162 225.309C161.812 225.833 161.718 226.408 161.718 227.035C161.718 227.665 161.812 228.243 162 228.767C162.191 229.291 162.483 229.711 162.875 230.026C163.272 230.341 163.77 230.499 164.371 230.499ZM172.724 231.905L169.835 222.087H171.81L173.734 229.297H173.83L175.761 222.087H177.736L179.653 229.265H179.749L181.66 222.087H183.636L180.753 231.905H178.803L176.809 224.816H176.662L174.668 231.905H172.724ZM187.181 226.076V231.905H185.269V222.087H187.104V223.685H187.225C187.451 223.165 187.805 222.748 188.286 222.432C188.772 222.117 189.384 221.959 190.121 221.959C190.79 221.959 191.376 222.1 191.879 222.381C192.382 222.658 192.771 223.071 193.048 223.621C193.325 224.171 193.464 224.851 193.464 225.66V231.905H191.553V225.89C191.553 225.179 191.367 224.623 190.997 224.222C190.626 223.817 190.117 223.615 189.469 223.615C189.026 223.615 188.632 223.711 188.286 223.902C187.945 224.094 187.675 224.375 187.475 224.746C187.279 225.113 187.181 225.556 187.181 226.076ZM197.758 218.814V231.905H195.847V218.814H197.758ZM204.285 232.103C203.365 232.103 202.561 231.892 201.875 231.471C201.189 231.049 200.657 230.459 200.277 229.7C199.898 228.941 199.709 228.055 199.709 227.041C199.709 226.022 199.898 225.132 200.277 224.369C200.657 223.606 201.189 223.014 201.875 222.592C202.561 222.17 203.365 221.959 204.285 221.959C205.206 221.959 206.009 222.17 206.695 222.592C207.381 223.014 207.914 223.606 208.293 224.369C208.672 225.132 208.862 226.022 208.862 227.041C208.862 228.055 208.672 228.941 208.293 229.7C207.914 230.459 207.381 231.049 206.695 231.471C206.009 231.892 205.206 232.103 204.285 232.103ZM204.292 230.499C204.888 230.499 205.383 230.341 205.775 230.026C206.167 229.711 206.456 229.291 206.644 228.767C206.836 228.243 206.932 227.665 206.932 227.035C206.932 226.408 206.836 225.833 206.644 225.309C206.456 224.78 206.167 224.356 205.775 224.037C205.383 223.717 204.888 223.557 204.292 223.557C203.691 223.557 203.192 223.717 202.796 224.037C202.404 224.356 202.112 224.78 201.92 225.309C201.733 225.833 201.639 226.408 201.639 227.035C201.639 227.665 201.733 228.243 201.92 228.767C202.112 229.291 202.404 229.711 202.796 230.026C203.192 230.341 203.691 230.499 204.292 230.499ZM213.673 232.123C213.05 232.123 212.488 232.008 211.985 231.777C211.482 231.543 211.084 231.204 210.79 230.761C210.5 230.318 210.355 229.775 210.355 229.131C210.355 228.577 210.462 228.121 210.675 227.763C210.888 227.405 211.175 227.122 211.538 226.913C211.9 226.704 212.305 226.547 212.752 226.44C213.2 226.334 213.655 226.253 214.12 226.197C214.708 226.129 215.185 226.074 215.552 226.031C215.918 225.984 216.185 225.91 216.351 225.807C216.517 225.705 216.6 225.539 216.6 225.309V225.264C216.6 224.706 216.442 224.273 216.127 223.966C215.816 223.66 215.351 223.506 214.734 223.506C214.09 223.506 213.583 223.649 213.212 223.934C212.846 224.216 212.592 224.529 212.452 224.874L210.655 224.465C210.869 223.868 211.18 223.387 211.589 223.02C212.002 222.65 212.477 222.381 213.014 222.215C213.551 222.044 214.116 221.959 214.708 221.959C215.1 221.959 215.516 222.006 215.954 222.1C216.398 222.189 216.811 222.356 217.195 222.598C217.582 222.841 217.9 223.189 218.147 223.64C218.394 224.088 218.518 224.669 218.518 225.385V231.905H216.651V230.563H216.575C216.451 230.81 216.266 231.053 216.018 231.292C215.771 231.53 215.454 231.728 215.066 231.886C214.678 232.044 214.214 232.123 213.673 232.123ZM214.088 230.589C214.616 230.589 215.068 230.484 215.443 230.275C215.822 230.066 216.11 229.794 216.306 229.457C216.506 229.116 216.606 228.752 216.606 228.364V227.098C216.538 227.167 216.406 227.231 216.21 227.29C216.018 227.346 215.799 227.395 215.552 227.437C215.305 227.476 215.064 227.512 214.829 227.546C214.595 227.576 214.399 227.601 214.241 227.623C213.871 227.669 213.532 227.748 213.225 227.859C212.923 227.97 212.68 228.13 212.496 228.339C212.317 228.543 212.228 228.816 212.228 229.157C212.228 229.63 212.403 229.988 212.752 230.231C213.101 230.469 213.547 230.589 214.088 230.589ZM224.559 232.097C223.766 232.097 223.059 231.895 222.437 231.49C221.819 231.081 221.333 230.499 220.979 229.745C220.63 228.986 220.455 228.076 220.455 227.015C220.455 225.954 220.632 225.047 220.986 224.292C221.344 223.538 221.834 222.961 222.456 222.56C223.078 222.16 223.783 221.959 224.572 221.959C225.181 221.959 225.671 222.062 226.042 222.266C226.417 222.466 226.706 222.701 226.911 222.969C227.12 223.238 227.282 223.474 227.397 223.679H227.512V218.814H229.423V231.905H227.557V230.378H227.397C227.282 230.586 227.116 230.825 226.898 231.093C226.685 231.362 226.391 231.596 226.016 231.797C225.641 231.997 225.155 232.097 224.559 232.097ZM224.981 230.467C225.53 230.467 225.995 230.322 226.374 230.032C226.758 229.738 227.047 229.331 227.243 228.812C227.444 228.292 227.544 227.687 227.544 226.996C227.544 226.314 227.446 225.718 227.25 225.206C227.054 224.695 226.766 224.297 226.387 224.011C226.008 223.726 225.539 223.583 224.981 223.583C224.405 223.583 223.926 223.732 223.542 224.03C223.159 224.329 222.869 224.736 222.673 225.251C222.481 225.767 222.385 226.348 222.385 226.996C222.385 227.652 222.483 228.243 222.679 228.767C222.875 229.291 223.165 229.706 223.549 230.013C223.937 230.316 224.414 230.467 224.981 230.467Z" fill="white"/>
<path d="M179.454 177.518H177.46C177.383 177.092 177.241 176.717 177.032 176.393C176.823 176.069 176.567 175.794 176.265 175.568C175.962 175.342 175.623 175.172 175.248 175.057C174.878 174.942 174.483 174.884 174.066 174.884C173.312 174.884 172.636 175.074 172.04 175.453C171.447 175.832 170.978 176.388 170.633 177.121C170.292 177.854 170.122 178.749 170.122 179.806C170.122 180.871 170.292 181.771 170.633 182.504C170.978 183.237 171.449 183.79 172.046 184.165C172.642 184.54 173.314 184.728 174.059 184.728C174.473 184.728 174.865 184.673 175.236 184.562C175.611 184.447 175.949 184.278 176.252 184.057C176.554 183.835 176.81 183.565 177.019 183.245C177.232 182.921 177.379 182.55 177.46 182.133L179.454 182.139C179.348 182.783 179.141 183.375 178.834 183.916C178.532 184.453 178.142 184.918 177.665 185.31C177.191 185.697 176.65 185.998 176.041 186.211C175.432 186.424 174.767 186.531 174.047 186.531C172.913 186.531 171.903 186.262 171.017 185.725C170.13 185.184 169.432 184.411 168.92 183.405C168.413 182.399 168.16 181.2 168.16 179.806C168.16 178.408 168.415 177.209 168.927 176.207C169.438 175.202 170.137 174.43 171.023 173.893C171.91 173.352 172.917 173.082 174.047 173.082C174.741 173.082 175.389 173.182 175.99 173.382C176.595 173.578 177.138 173.868 177.62 174.251C178.101 174.631 178.5 175.095 178.815 175.645C179.13 176.19 179.343 176.815 179.454 177.518ZM183.396 173.261V186.352H181.484V173.261H183.396ZM185.787 186.352V176.533H187.698V186.352H185.787ZM186.752 175.018C186.42 175.018 186.134 174.908 185.895 174.686C185.661 174.46 185.544 174.192 185.544 173.881C185.544 173.565 185.661 173.297 185.895 173.075C186.134 172.849 186.42 172.737 186.752 172.737C187.084 172.737 187.368 172.849 187.602 173.075C187.841 173.297 187.96 173.565 187.96 173.881C187.96 174.192 187.841 174.46 187.602 174.686C187.368 174.908 187.084 175.018 186.752 175.018ZM194.225 186.55C193.275 186.55 192.456 186.335 191.77 185.904C191.088 185.469 190.564 184.871 190.198 184.108C189.831 183.345 189.648 182.472 189.648 181.487C189.648 180.49 189.836 179.61 190.211 178.847C190.586 178.08 191.114 177.482 191.796 177.051C192.478 176.621 193.281 176.406 194.206 176.406C194.951 176.406 195.616 176.544 196.2 176.821C196.784 177.094 197.255 177.477 197.613 177.972C197.975 178.466 198.19 179.043 198.258 179.704H196.398C196.296 179.244 196.061 178.847 195.695 178.515C195.333 178.183 194.847 178.016 194.238 178.016C193.705 178.016 193.238 178.157 192.838 178.438C192.441 178.715 192.132 179.112 191.911 179.627C191.689 180.138 191.579 180.744 191.579 181.442C191.579 182.158 191.687 182.776 191.905 183.296C192.122 183.816 192.429 184.219 192.825 184.504C193.226 184.79 193.696 184.933 194.238 184.933C194.6 184.933 194.928 184.866 195.222 184.734C195.52 184.598 195.77 184.404 195.97 184.153C196.174 183.901 196.317 183.599 196.398 183.245H198.258C198.19 183.88 197.983 184.447 197.638 184.945C197.293 185.444 196.831 185.836 196.251 186.121C195.676 186.407 195 186.55 194.225 186.55ZM201.88 183.021L201.867 180.688H202.199L206.111 176.533H208.4L203.938 181.263H203.638L201.88 183.021ZM200.122 186.352V173.261H202.033V186.352H200.122ZM206.322 186.352L202.807 181.685L204.123 180.349L208.668 186.352H206.322Z" fill="white"/>
<path d="M169.609 124.909L173.253 135.571H173.4L177.043 124.909H179.178L174.467 138H172.185L167.474 124.909H169.609ZM180.735 138V128.182H182.646V138H180.735ZM181.7 126.667C181.368 126.667 181.082 126.556 180.844 126.335C180.609 126.109 180.492 125.84 180.492 125.529C180.492 125.214 180.609 124.945 180.844 124.724C181.082 124.498 181.368 124.385 181.7 124.385C182.033 124.385 182.316 124.498 182.55 124.724C182.789 124.945 182.908 125.214 182.908 125.529C182.908 125.84 182.789 126.109 182.55 126.335C182.316 126.556 182.033 126.667 181.7 126.667ZM189.269 138.198C188.302 138.198 187.469 137.991 186.77 137.578C186.075 137.161 185.538 136.575 185.159 135.82C184.784 135.062 184.597 134.173 184.597 133.155C184.597 132.149 184.784 131.263 185.159 130.496C185.538 129.729 186.067 129.13 186.744 128.7C187.426 128.269 188.223 128.054 189.135 128.054C189.689 128.054 190.226 128.146 190.746 128.329C191.266 128.512 191.732 128.8 192.146 129.192C192.559 129.584 192.885 130.093 193.124 130.719C193.362 131.342 193.481 132.098 193.481 132.989V133.666H185.677V132.234H191.609C191.609 131.732 191.506 131.286 191.302 130.898C191.097 130.506 190.81 130.197 190.439 129.972C190.072 129.746 189.642 129.633 189.148 129.633C188.611 129.633 188.142 129.765 187.741 130.029C187.345 130.289 187.038 130.63 186.821 131.052C186.608 131.469 186.501 131.923 186.501 132.413V133.532C186.501 134.188 186.616 134.746 186.847 135.207C187.081 135.667 187.407 136.018 187.825 136.261C188.242 136.5 188.73 136.619 189.288 136.619C189.651 136.619 189.981 136.568 190.279 136.466C190.577 136.359 190.835 136.202 191.052 135.993C191.27 135.784 191.436 135.526 191.551 135.219L193.36 135.545C193.215 136.078 192.955 136.545 192.58 136.945C192.209 137.342 191.743 137.651 191.18 137.872C190.622 138.089 189.985 138.198 189.269 138.198ZM197.533 138L194.644 128.182H196.619L198.543 135.392H198.639L200.569 128.182H202.544L204.462 135.36H204.558L206.469 128.182H208.444L205.561 138H203.612L201.618 130.911H201.471L199.476 138H197.533Z" fill="white"/>
<path d="M149.929 317.668V304.577H154.595C155.613 304.577 156.457 304.762 157.126 305.133C157.795 305.504 158.296 306.011 158.628 306.654C158.961 307.294 159.127 308.014 159.127 308.815C159.127 309.62 158.958 310.345 158.622 310.988C158.289 311.627 157.787 312.135 157.113 312.51C156.444 312.88 155.603 313.066 154.588 313.066H151.38V311.391H154.409C155.053 311.391 155.575 311.28 155.975 311.059C156.376 310.833 156.67 310.526 156.858 310.138C157.045 309.75 157.139 309.309 157.139 308.815C157.139 308.321 157.045 307.882 156.858 307.498C156.67 307.115 156.374 306.814 155.969 306.597C155.568 306.38 155.04 306.271 154.384 306.271H151.904V317.668H149.929ZM167.328 313.596V307.85H169.246V317.668H167.367V315.968H167.264C167.039 316.492 166.676 316.929 166.178 317.278C165.683 317.623 165.068 317.796 164.33 317.796C163.7 317.796 163.141 317.657 162.656 317.38C162.174 317.099 161.795 316.684 161.518 316.134C161.245 315.584 161.109 314.904 161.109 314.095V307.85H163.02V313.865C163.02 314.534 163.205 315.066 163.576 315.463C163.947 315.859 164.428 316.057 165.021 316.057C165.379 316.057 165.735 315.968 166.088 315.789C166.446 315.61 166.742 315.339 166.977 314.977C167.215 314.615 167.333 314.154 167.328 313.596ZM171.634 317.668V307.85H173.481V309.409H173.583C173.762 308.881 174.078 308.466 174.529 308.163C174.985 307.856 175.501 307.703 176.076 307.703C176.196 307.703 176.336 307.707 176.498 307.716C176.664 307.724 176.794 307.735 176.888 307.748V309.576C176.811 309.554 176.675 309.531 176.479 309.505C176.283 309.475 176.087 309.461 175.891 309.461C175.439 309.461 175.037 309.556 174.683 309.748C174.333 309.936 174.056 310.198 173.852 310.534C173.647 310.867 173.545 311.246 173.545 311.672V317.668H171.634ZM182.146 317.866C181.196 317.866 180.378 317.651 179.692 317.221C179.01 316.786 178.486 316.187 178.119 315.424C177.753 314.662 177.569 313.788 177.569 312.804C177.569 311.806 177.757 310.926 178.132 310.164C178.507 309.397 179.035 308.798 179.717 308.368C180.399 307.937 181.202 307.722 182.127 307.722C182.873 307.722 183.538 307.86 184.121 308.137C184.705 308.41 185.176 308.794 185.534 309.288C185.896 309.782 186.111 310.36 186.18 311.02H184.319C184.217 310.56 183.983 310.164 183.616 309.831C183.254 309.499 182.768 309.333 182.159 309.333C181.626 309.333 181.16 309.473 180.759 309.755C180.363 310.032 180.054 310.428 179.832 310.944C179.611 311.455 179.5 312.06 179.5 312.759C179.5 313.475 179.609 314.093 179.826 314.613C180.043 315.132 180.35 315.535 180.746 315.821C181.147 316.106 181.618 316.249 182.159 316.249C182.521 316.249 182.849 316.183 183.143 316.051C183.442 315.914 183.691 315.721 183.891 315.469C184.096 315.218 184.239 314.915 184.319 314.561H186.18C186.111 315.196 185.905 315.763 185.56 316.262C185.214 316.76 184.752 317.152 184.172 317.438C183.597 317.723 182.922 317.866 182.146 317.866ZM189.955 311.838V317.668H188.043V304.577H189.929V309.448H190.051C190.281 308.919 190.632 308.5 191.105 308.189C191.578 307.877 192.196 307.722 192.959 307.722C193.632 307.722 194.22 307.86 194.723 308.137C195.23 308.414 195.622 308.828 195.899 309.377C196.181 309.923 196.321 310.605 196.321 311.423V317.668H194.41V311.653C194.41 310.933 194.225 310.375 193.854 309.978C193.483 309.578 192.967 309.377 192.307 309.377C191.855 309.377 191.45 309.473 191.092 309.665C190.739 309.857 190.46 310.138 190.255 310.509C190.055 310.875 189.955 311.319 189.955 311.838ZM201.549 317.885C200.927 317.885 200.364 317.77 199.861 317.54C199.358 317.306 198.96 316.967 198.666 316.524C198.376 316.081 198.231 315.537 198.231 314.894C198.231 314.34 198.338 313.884 198.551 313.526C198.764 313.168 199.052 312.885 199.414 312.676C199.776 312.467 200.181 312.309 200.628 312.203C201.076 312.096 201.532 312.015 201.996 311.96C202.584 311.892 203.062 311.836 203.428 311.794C203.795 311.747 204.061 311.672 204.227 311.57C204.393 311.468 204.476 311.301 204.476 311.071V311.027C204.476 310.468 204.319 310.036 204.003 309.729C203.692 309.422 203.228 309.269 202.61 309.269C201.966 309.269 201.459 309.412 201.089 309.697C200.722 309.978 200.469 310.292 200.328 310.637L198.532 310.228C198.745 309.631 199.056 309.15 199.465 308.783C199.878 308.412 200.353 308.144 200.89 307.978C201.427 307.807 201.992 307.722 202.584 307.722C202.976 307.722 203.392 307.769 203.831 307.863C204.274 307.952 204.687 308.118 205.071 308.361C205.459 308.604 205.776 308.951 206.023 309.403C206.27 309.85 206.394 310.432 206.394 311.148V317.668H204.527V316.326H204.451C204.327 316.573 204.142 316.816 203.895 317.054C203.648 317.293 203.33 317.491 202.942 317.649C202.554 317.806 202.09 317.885 201.549 317.885ZM201.964 316.351C202.493 316.351 202.944 316.247 203.319 316.038C203.699 315.829 203.986 315.556 204.182 315.22C204.383 314.879 204.483 314.515 204.483 314.127V312.861C204.415 312.929 204.282 312.993 204.086 313.053C203.895 313.108 203.675 313.157 203.428 313.2C203.181 313.238 202.94 313.275 202.706 313.309C202.471 313.338 202.275 313.364 202.118 313.385C201.747 313.432 201.408 313.511 201.101 313.622C200.799 313.733 200.556 313.892 200.373 314.101C200.194 314.306 200.104 314.578 200.104 314.919C200.104 315.392 200.279 315.75 200.628 315.993C200.978 316.232 201.423 316.351 201.964 316.351ZM216.117 310.247L214.385 310.554C214.312 310.332 214.197 310.121 214.039 309.921C213.886 309.721 213.677 309.556 213.413 309.429C213.149 309.301 212.819 309.237 212.422 309.237C211.881 309.237 211.429 309.358 211.067 309.601C210.705 309.84 210.524 310.149 210.524 310.528C210.524 310.856 210.645 311.12 210.888 311.321C211.131 311.521 211.523 311.685 212.064 311.813L213.624 312.171C214.527 312.38 215.201 312.701 215.644 313.136C216.087 313.571 216.309 314.135 216.309 314.83C216.309 315.418 216.138 315.942 215.797 316.402C215.461 316.858 214.99 317.216 214.385 317.476C213.784 317.736 213.087 317.866 212.294 317.866C211.195 317.866 210.298 317.632 209.603 317.163C208.909 316.69 208.483 316.019 208.325 315.15L210.172 314.868C210.287 315.35 210.524 315.714 210.882 315.961C211.24 316.204 211.706 316.326 212.282 316.326C212.908 316.326 213.409 316.196 213.784 315.936C214.159 315.672 214.346 315.35 214.346 314.971C214.346 314.664 214.231 314.406 214.001 314.197C213.775 313.988 213.428 313.831 212.959 313.724L211.297 313.36C210.381 313.151 209.703 312.819 209.265 312.363C208.83 311.907 208.613 311.329 208.613 310.63C208.613 310.051 208.775 309.544 209.098 309.109C209.422 308.674 209.87 308.336 210.441 308.093C211.012 307.846 211.666 307.722 212.403 307.722C213.464 307.722 214.299 307.952 214.909 308.412C215.518 308.868 215.921 309.48 216.117 310.247ZM222.462 317.866C221.494 317.866 220.661 317.659 219.962 317.246C219.268 316.828 218.731 316.243 218.351 315.488C217.976 314.73 217.789 313.841 217.789 312.823C217.789 311.817 217.976 310.931 218.351 310.164C218.731 309.397 219.259 308.798 219.937 308.368C220.618 307.937 221.415 307.722 222.327 307.722C222.881 307.722 223.418 307.814 223.938 307.997C224.458 308.18 224.925 308.468 225.338 308.86C225.751 309.252 226.077 309.761 226.316 310.387C226.555 311.01 226.674 311.766 226.674 312.657V313.334H218.869V311.902H224.801C224.801 311.4 224.699 310.954 224.494 310.566C224.29 310.174 224.002 309.865 223.631 309.64C223.265 309.414 222.834 309.301 222.34 309.301C221.803 309.301 221.334 309.433 220.934 309.697C220.538 309.957 220.231 310.298 220.013 310.72C219.8 311.137 219.694 311.591 219.694 312.081V313.2C219.694 313.856 219.809 314.414 220.039 314.875C220.273 315.335 220.599 315.686 221.017 315.929C221.435 316.168 221.922 316.287 222.481 316.287C222.843 316.287 223.173 316.236 223.471 316.134C223.77 316.027 224.028 315.87 224.245 315.661C224.462 315.452 224.628 315.194 224.743 314.887L226.552 315.213C226.408 315.746 226.148 316.213 225.773 316.613C225.402 317.01 224.935 317.319 224.373 317.54C223.815 317.757 223.177 317.866 222.462 317.866Z" fill="white"/>
<path d="M148.788 361.518V348.427H153.454C154.468 348.427 155.31 348.601 155.979 348.951C156.652 349.3 157.155 349.784 157.488 350.402C157.82 351.015 157.986 351.725 157.986 352.53C157.986 353.331 157.818 354.037 157.481 354.646C157.149 355.251 156.646 355.722 155.973 356.059C155.304 356.395 154.462 356.564 153.448 356.564H149.913V354.863H153.269C153.908 354.863 154.428 354.772 154.829 354.589C155.233 354.405 155.53 354.139 155.717 353.79C155.905 353.44 155.998 353.02 155.998 352.53C155.998 352.036 155.902 351.608 155.711 351.246C155.523 350.883 155.227 350.606 154.822 350.415C154.422 350.219 153.895 350.121 153.243 350.121H150.763V361.518H148.788ZM155.25 355.611L158.485 361.518H156.235L153.064 355.611H155.25ZM164.165 361.716C163.197 361.716 162.364 361.509 161.665 361.096C160.971 360.678 160.434 360.092 160.055 359.338C159.68 358.579 159.492 357.691 159.492 356.672C159.492 355.667 159.68 354.78 160.055 354.013C160.434 353.246 160.962 352.648 161.64 352.217C162.322 351.787 163.119 351.572 164.031 351.572C164.584 351.572 165.121 351.663 165.641 351.846C166.161 352.03 166.628 352.317 167.041 352.709C167.455 353.101 167.781 353.611 168.019 354.237C168.258 354.859 168.377 355.616 168.377 356.506V357.184H160.572V355.752H166.504C166.504 355.249 166.402 354.804 166.197 354.416C165.993 354.024 165.705 353.715 165.334 353.489C164.968 353.263 164.538 353.15 164.043 353.15C163.506 353.15 163.038 353.282 162.637 353.547C162.241 353.807 161.934 354.148 161.717 354.569C161.504 354.987 161.397 355.441 161.397 355.931V357.05C161.397 357.706 161.512 358.264 161.742 358.724C161.977 359.184 162.303 359.536 162.72 359.779C163.138 360.018 163.626 360.137 164.184 360.137C164.546 360.137 164.876 360.086 165.175 359.983C165.473 359.877 165.731 359.719 165.948 359.51C166.165 359.302 166.332 359.044 166.447 358.737L168.256 359.063C168.111 359.596 167.851 360.062 167.476 360.463C167.105 360.859 166.638 361.168 166.076 361.39C165.518 361.607 164.881 361.716 164.165 361.716ZM174.901 351.699V353.233H169.538V351.699H174.901ZM170.976 349.347H172.887V358.635C172.887 359.006 172.943 359.285 173.053 359.472C173.164 359.655 173.307 359.781 173.482 359.849C173.661 359.913 173.855 359.945 174.063 359.945C174.217 359.945 174.351 359.934 174.466 359.913C174.581 359.892 174.671 359.875 174.735 359.862L175.08 361.441C174.969 361.483 174.811 361.526 174.607 361.569C174.402 361.616 174.146 361.641 173.84 361.645C173.337 361.654 172.868 361.564 172.433 361.377C171.999 361.189 171.647 360.9 171.379 360.508C171.11 360.116 170.976 359.623 170.976 359.031V349.347ZM180.961 361.716C179.994 361.716 179.161 361.509 178.462 361.096C177.767 360.678 177.23 360.092 176.851 359.338C176.476 358.579 176.288 357.691 176.288 356.672C176.288 355.667 176.476 354.78 176.851 354.013C177.23 353.246 177.759 352.648 178.436 352.217C179.118 351.787 179.915 351.572 180.827 351.572C181.381 351.572 181.918 351.663 182.438 351.846C182.957 352.03 183.424 352.317 183.837 352.709C184.251 353.101 184.577 353.611 184.815 354.237C185.054 354.859 185.173 355.616 185.173 356.506V357.184H177.369V355.752H183.3C183.3 355.249 183.198 354.804 182.994 354.416C182.789 354.024 182.501 353.715 182.131 353.489C181.764 353.263 181.334 353.15 180.84 353.15C180.303 353.15 179.834 353.282 179.433 353.547C179.037 353.807 178.73 354.148 178.513 354.569C178.3 354.987 178.193 355.441 178.193 355.931V357.05C178.193 357.706 178.308 358.264 178.538 358.724C178.773 359.184 179.099 359.536 179.516 359.779C179.934 360.018 180.422 360.137 180.98 360.137C181.342 360.137 181.673 360.086 181.971 359.983C182.269 359.877 182.527 359.719 182.744 359.51C182.962 359.302 183.128 359.044 183.243 358.737L185.052 359.063C184.907 359.596 184.647 360.062 184.272 360.463C183.901 360.859 183.435 361.168 182.872 361.39C182.314 361.607 181.677 361.716 180.961 361.716ZM189.025 355.688V361.518H187.114V351.699H188.948V353.297H189.07C189.296 352.778 189.649 352.36 190.131 352.045C190.617 351.729 191.228 351.572 191.965 351.572C192.634 351.572 193.22 351.712 193.723 351.993C194.226 352.27 194.616 352.684 194.893 353.233C195.17 353.783 195.309 354.463 195.309 355.273V361.518H193.397V355.503C193.397 354.791 193.212 354.235 192.841 353.834C192.47 353.43 191.961 353.227 191.313 353.227C190.87 353.227 190.476 353.323 190.131 353.515C189.79 353.706 189.519 353.988 189.319 354.358C189.123 354.725 189.025 355.168 189.025 355.688ZM202.275 351.699V353.233H196.912V351.699H202.275ZM198.35 349.347H200.261V358.635C200.261 359.006 200.317 359.285 200.428 359.472C200.538 359.655 200.681 359.781 200.856 359.849C201.035 359.913 201.229 359.945 201.437 359.945C201.591 359.945 201.725 359.934 201.84 359.913C201.955 359.892 202.045 359.875 202.109 359.862L202.454 361.441C202.343 361.483 202.185 361.526 201.981 361.569C201.776 361.616 201.521 361.641 201.214 361.645C200.711 361.654 200.242 361.564 199.807 361.377C199.373 361.189 199.021 360.9 198.753 360.508C198.484 360.116 198.35 359.623 198.35 359.031V349.347ZM204.209 361.518V351.699H206.12V361.518H204.209ZM205.174 350.184C204.842 350.184 204.556 350.074 204.318 349.852C204.083 349.626 203.966 349.358 203.966 349.047C203.966 348.731 204.083 348.463 204.318 348.241C204.556 348.015 204.842 347.903 205.174 347.903C205.507 347.903 205.79 348.015 206.024 348.241C206.263 348.463 206.382 348.731 206.382 349.047C206.382 349.358 206.263 349.626 206.024 349.852C205.79 350.074 205.507 350.184 205.174 350.184ZM212.647 361.716C211.727 361.716 210.923 361.505 210.237 361.083C209.551 360.661 209.019 360.071 208.639 359.312C208.26 358.554 208.07 357.667 208.07 356.653C208.07 355.635 208.26 354.744 208.639 353.981C209.019 353.219 209.551 352.626 210.237 352.204C210.923 351.782 211.727 351.572 212.647 351.572C213.568 351.572 214.371 351.782 215.057 352.204C215.743 352.626 216.276 353.219 216.655 353.981C217.034 354.744 217.224 355.635 217.224 356.653C217.224 357.667 217.034 358.554 216.655 359.312C216.276 360.071 215.743 360.661 215.057 361.083C214.371 361.505 213.568 361.716 212.647 361.716ZM212.653 360.111C213.25 360.111 213.744 359.954 214.136 359.638C214.528 359.323 214.818 358.903 215.006 358.379C215.197 357.855 215.293 357.278 215.293 356.647C215.293 356.02 215.197 355.445 215.006 354.921C214.818 354.393 214.528 353.969 214.136 353.649C213.744 353.329 213.25 353.17 212.653 353.17C212.053 353.17 211.554 353.329 211.158 353.649C210.766 353.969 210.474 354.393 210.282 354.921C210.095 355.445 210.001 356.02 210.001 356.647C210.001 357.278 210.095 357.855 210.282 358.379C210.474 358.903 210.766 359.323 211.158 359.638C211.554 359.954 212.053 360.111 212.653 360.111ZM221.088 355.688V361.518H219.177V351.699H221.012V353.297H221.133C221.359 352.778 221.713 352.36 222.194 352.045C222.68 351.729 223.291 351.572 224.029 351.572C224.698 351.572 225.284 351.712 225.786 351.993C226.289 352.27 226.679 352.684 226.956 353.233C227.233 353.783 227.372 354.463 227.372 355.273V361.518H225.46V355.503C225.46 354.791 225.275 354.235 224.904 353.834C224.534 353.43 224.024 353.227 223.377 353.227C222.933 353.227 222.539 353.323 222.194 353.515C221.853 353.706 221.583 353.988 221.382 354.358C221.186 354.725 221.088 355.168 221.088 355.688Z" fill="white"/>
<rect x="1" y="155" width="374" height="2" fill="white"/>
<rect x="1" y="203" width="374" height="2" fill="white"/>
<rect x="1" y="246" width="374" height="2" fill="white"/>
<rect x="1" y="289" width="374" height="2" fill="white"/>
<rect x="1" y="332" width="374" height="2" fill="white"/>
<rect x="93" y="382" width="200" height="39" fill="#4361EE"/>
<path d="M156.538 407V393.909H161.204C162.218 393.909 163.06 394.084 163.729 394.433C164.402 394.783 164.905 395.266 165.238 395.884C165.57 396.498 165.736 397.207 165.736 398.013C165.736 398.814 165.568 399.519 165.231 400.129C164.899 400.734 164.396 401.205 163.723 401.541C163.054 401.878 162.212 402.046 161.198 402.046H157.663V400.346H161.019C161.658 400.346 162.178 400.254 162.578 400.071C162.983 399.888 163.279 399.621 163.467 399.272C163.654 398.923 163.748 398.503 163.748 398.013C163.748 397.518 163.652 397.09 163.461 396.728C163.273 396.366 162.977 396.089 162.572 395.897C162.171 395.701 161.645 395.603 160.993 395.603H158.513V407H156.538ZM163 401.094L166.235 407H163.985L160.814 401.094H163ZM171.915 407.198C170.947 407.198 170.114 406.991 169.415 406.578C168.721 406.161 168.184 405.575 167.804 404.82C167.429 404.062 167.242 403.173 167.242 402.155C167.242 401.149 167.429 400.263 167.804 399.496C168.184 398.729 168.712 398.13 169.39 397.7C170.072 397.269 170.868 397.054 171.78 397.054C172.334 397.054 172.871 397.146 173.391 397.329C173.911 397.512 174.378 397.8 174.791 398.192C175.204 398.584 175.53 399.093 175.769 399.719C176.008 400.342 176.127 401.098 176.127 401.989V402.666H168.322V401.234H174.254C174.254 400.732 174.152 400.286 173.947 399.898C173.743 399.506 173.455 399.197 173.084 398.972C172.718 398.746 172.287 398.633 171.793 398.633C171.256 398.633 170.787 398.765 170.387 399.029C169.991 399.289 169.684 399.63 169.466 400.052C169.253 400.469 169.147 400.923 169.147 401.413V402.532C169.147 403.188 169.262 403.746 169.492 404.207C169.726 404.667 170.052 405.018 170.47 405.261C170.888 405.5 171.376 405.619 171.934 405.619C172.296 405.619 172.626 405.568 172.925 405.466C173.223 405.359 173.481 405.202 173.698 404.993C173.915 404.784 174.081 404.526 174.197 404.219L176.005 404.545C175.861 405.078 175.601 405.545 175.226 405.945C174.855 406.342 174.388 406.651 173.826 406.872C173.268 407.089 172.63 407.198 171.915 407.198ZM182.74 397.182V398.716H177.192V397.182H182.74ZM178.713 407V396.044C178.713 395.43 178.847 394.921 179.116 394.516C179.384 394.107 179.74 393.803 180.183 393.602C180.626 393.398 181.108 393.295 181.628 393.295C182.011 393.295 182.34 393.327 182.612 393.391C182.885 393.451 183.087 393.506 183.219 393.558L182.772 395.104C182.683 395.079 182.567 395.049 182.427 395.015C182.286 394.977 182.116 394.957 181.916 394.957C181.451 394.957 181.119 395.072 180.918 395.303C180.722 395.533 180.624 395.865 180.624 396.3V407H178.713ZM189.205 397.182V398.716H183.656V397.182H189.205ZM185.178 407V396.044C185.178 395.43 185.312 394.921 185.58 394.516C185.849 394.107 186.205 393.803 186.648 393.602C187.091 393.398 187.573 393.295 188.092 393.295C188.476 393.295 188.804 393.327 189.077 393.391C189.349 393.451 189.552 393.506 189.684 393.558L189.237 395.104C189.147 395.079 189.032 395.049 188.891 395.015C188.751 394.977 188.58 394.957 188.38 394.957C187.916 394.957 187.583 395.072 187.383 395.303C187.187 395.533 187.089 395.865 187.089 396.3V407H185.178ZM194.841 407.198C193.874 407.198 193.041 406.991 192.342 406.578C191.647 406.161 191.111 405.575 190.731 404.82C190.356 404.062 190.169 403.173 190.169 402.155C190.169 401.149 190.356 400.263 190.731 399.496C191.111 398.729 191.639 398.13 192.317 397.7C192.998 397.269 193.795 397.054 194.707 397.054C195.261 397.054 195.798 397.146 196.318 397.329C196.838 397.512 197.304 397.8 197.718 398.192C198.131 398.584 198.457 399.093 198.696 399.719C198.934 400.342 199.054 401.098 199.054 401.989V402.666H191.249V401.234H197.181C197.181 400.732 197.079 400.286 196.874 399.898C196.669 399.506 196.382 399.197 196.011 398.972C195.645 398.746 195.214 398.633 194.72 398.633C194.183 398.633 193.714 398.765 193.314 399.029C192.917 399.289 192.611 399.63 192.393 400.052C192.18 400.469 192.074 400.923 192.074 401.413V402.532C192.074 403.188 192.189 403.746 192.419 404.207C192.653 404.667 192.979 405.018 193.397 405.261C193.814 405.5 194.302 405.619 194.861 405.619C195.223 405.619 195.553 405.568 195.851 405.466C196.15 405.359 196.407 405.202 196.625 404.993C196.842 404.784 197.008 404.526 197.123 404.219L198.932 404.545C198.787 405.078 198.527 405.545 198.152 405.945C197.782 406.342 197.315 406.651 196.753 406.872C196.194 407.089 195.557 407.198 194.841 407.198ZM200.994 407V397.182H202.842V398.741H202.944C203.123 398.213 203.438 397.798 203.89 397.495C204.346 397.188 204.861 397.035 205.437 397.035C205.556 397.035 205.697 397.039 205.859 397.048C206.025 397.056 206.155 397.067 206.249 397.08V398.908C206.172 398.886 206.035 398.863 205.839 398.837C205.643 398.808 205.447 398.793 205.251 398.793C204.8 398.793 204.397 398.888 204.043 399.08C203.694 399.268 203.417 399.53 203.212 399.866C203.008 400.199 202.906 400.578 202.906 401.004V407H200.994ZM210.492 407.217C209.87 407.217 209.307 407.102 208.804 406.872C208.302 406.638 207.903 406.299 207.609 405.856C207.319 405.413 207.174 404.869 207.174 404.226C207.174 403.672 207.281 403.216 207.494 402.858C207.707 402.5 207.995 402.217 208.357 402.008C208.719 401.799 209.124 401.641 209.571 401.535C210.019 401.428 210.475 401.347 210.939 401.292C211.527 401.224 212.005 401.168 212.371 401.126C212.738 401.079 213.004 401.004 213.17 400.902C213.336 400.8 213.419 400.634 213.419 400.403V400.359C213.419 399.8 213.262 399.368 212.946 399.061C212.635 398.754 212.171 398.601 211.553 398.601C210.909 398.601 210.402 398.744 210.032 399.029C209.665 399.31 209.412 399.624 209.271 399.969L207.475 399.56C207.688 398.963 207.999 398.482 208.408 398.115C208.821 397.744 209.297 397.476 209.833 397.31C210.37 397.139 210.935 397.054 211.527 397.054C211.919 397.054 212.335 397.101 212.774 397.195C213.217 397.284 213.63 397.45 214.014 397.693C214.402 397.936 214.719 398.283 214.966 398.735C215.213 399.183 215.337 399.764 215.337 400.48V407H213.471V405.658H213.394C213.27 405.905 213.085 406.148 212.838 406.386C212.591 406.625 212.273 406.823 211.885 406.981C211.498 407.138 211.033 407.217 210.492 407.217ZM210.907 405.683C211.436 405.683 211.887 405.579 212.262 405.37C212.642 405.161 212.929 404.888 213.125 404.552C213.326 404.211 213.426 403.847 213.426 403.459V402.193C213.358 402.261 213.226 402.325 213.029 402.385C212.838 402.44 212.618 402.489 212.371 402.532C212.124 402.57 211.883 402.607 211.649 402.641C211.414 402.67 211.218 402.696 211.061 402.717C210.69 402.764 210.351 402.843 210.044 402.954C209.742 403.065 209.499 403.224 209.316 403.433C209.137 403.638 209.047 403.911 209.047 404.251C209.047 404.724 209.222 405.082 209.571 405.325C209.921 405.564 210.366 405.683 210.907 405.683ZM219.614 393.909V407H217.703V393.909H219.614Z" fill="white"/>
<rect x="95" y="426" width="196" height="191" stroke="#4361EE" stroke-width="4"/>
<path d="M232.166 483C230.508 478.411 227.478 474.412 223.469 471.516C219.459 468.62 214.652 466.96 209.666 466.75H176.333C169.703 466.75 163.344 469.318 158.655 473.889C153.967 478.46 151.333 484.66 151.333 491.125C151.333 497.59 153.967 503.79 158.655 508.361C163.344 512.932 169.703 515.5 176.333 515.5H209.666C216.297 515.5 222.656 518.068 227.344 522.639C232.032 527.21 234.666 533.41 234.666 539.875C234.666 546.34 232.032 552.54 227.344 557.111C222.656 561.682 216.297 564.25 209.666 564.25H176.333C171.348 564.04 166.541 562.38 162.531 559.484C158.521 556.588 155.492 552.589 153.833 548" stroke="#4361EE" stroke-width="5" stroke-linecap="round" stroke-linejoin="round"/>
<path d="M193 564.25V588.625M193 442.375V466.75V442.375Z" stroke="#4361EE" stroke-width="5" stroke-linecap="round" stroke-linejoin="round"/>
<rect x="1" width="374" height="94" rx="8" fill="#23A6F0"/>
<path d="M8.37246 38.5455H11.5685L17.1253 52.1136H17.3298L22.8867 38.5455H26.0827V56H23.577V43.3693H23.4151L18.2673 55.9744H16.1878L11.0401 43.3608H10.8781V56H8.37246V38.5455ZM34.9812 56.2642C33.7539 56.2642 32.6829 55.983 31.7681 55.4205C30.8533 54.858 30.1431 54.071 29.6374 53.0597C29.1318 52.0483 28.8789 50.8665 28.8789 49.5142C28.8789 48.1562 29.1318 46.9687 29.6374 45.9517C30.1431 44.9347 30.8533 44.1449 31.7681 43.5824C32.6829 43.0199 33.7539 42.7386 34.9812 42.7386C36.2085 42.7386 37.2795 43.0199 38.1943 43.5824C39.109 44.1449 39.8193 44.9347 40.3249 45.9517C40.8306 46.9687 41.0835 48.1562 41.0835 49.5142C41.0835 50.8665 40.8306 52.0483 40.3249 53.0597C39.8193 54.071 39.109 54.858 38.1943 55.4205C37.2795 55.983 36.2085 56.2642 34.9812 56.2642ZM34.9897 54.125C35.7852 54.125 36.4443 53.9148 36.967 53.4943C37.4897 53.0739 37.8761 52.5142 38.1261 51.8153C38.3818 51.1165 38.5096 50.3466 38.5096 49.5057C38.5096 48.6705 38.3818 47.9034 38.1261 47.2045C37.8761 46.5 37.4897 45.9347 36.967 45.5085C36.4443 45.0824 35.7852 44.8693 34.9897 44.8693C34.1886 44.8693 33.5238 45.0824 32.9954 45.5085C32.4727 45.9347 32.0835 46.5 31.8278 47.2045C31.5778 47.9034 31.4528 48.6705 31.4528 49.5057C31.4528 50.3466 31.5778 51.1165 31.8278 51.8153C32.0835 52.5142 32.4727 53.0739 32.9954 53.4943C33.5238 53.9148 34.1886 54.125 34.9897 54.125ZM43.8925 56V38.5455H46.4408V45.0312H46.5942C46.7419 44.7585 46.955 44.4432 47.2334 44.0852C47.5118 43.7273 47.8981 43.4148 48.3925 43.1477C48.8868 42.875 49.5402 42.7386 50.3527 42.7386C51.4095 42.7386 52.3527 43.0057 53.1822 43.5398C54.0118 44.0739 54.6624 44.8437 55.1339 45.8494C55.6112 46.8551 55.8498 48.0653 55.8498 49.4801C55.8498 50.8949 55.6141 52.108 55.1425 53.1193C54.6709 54.125 54.0231 54.9006 53.1993 55.446C52.3754 55.9858 51.4351 56.2557 50.3783 56.2557C49.5828 56.2557 48.9322 56.1222 48.4266 55.8551C47.9266 55.5881 47.5345 55.2756 47.2504 54.9176C46.9663 54.5597 46.7476 54.2415 46.5942 53.9631H46.3811V56H43.8925ZM46.3896 49.4545C46.3896 50.375 46.5231 51.1818 46.7902 51.875C47.0572 52.5682 47.4436 53.1108 47.9493 53.5028C48.455 53.8892 49.0743 54.0824 49.8072 54.0824C50.5686 54.0824 51.205 53.8807 51.7163 53.4773C52.2277 53.0682 52.6141 52.5142 52.8754 51.8153C53.1425 51.1165 53.276 50.3295 53.276 49.4545C53.276 48.5909 53.1453 47.8153 52.8839 47.1278C52.6283 46.4403 52.2419 45.8977 51.7248 45.5C51.2135 45.1023 50.5743 44.9034 49.8072 44.9034C49.0686 44.9034 48.4436 45.0937 47.9322 45.4744C47.4266 45.8551 47.043 46.3864 46.7817 47.0682C46.5203 47.75 46.3896 48.5455 46.3896 49.4545ZM58.4714 56V42.9091H61.0196V56H58.4714ZM59.7583 40.8892C59.3151 40.8892 58.9344 40.7415 58.6162 40.446C58.3037 40.1449 58.1475 39.7869 58.1475 39.3722C58.1475 38.9517 58.3037 38.5937 58.6162 38.2983C58.9344 37.9972 59.3151 37.8466 59.7583 37.8466C60.2015 37.8466 60.5793 37.9972 60.8918 38.2983C61.21 38.5937 61.3691 38.9517 61.3691 39.3722C61.3691 39.7869 61.21 40.1449 60.8918 40.446C60.5793 40.7415 60.2015 40.8892 59.7583 40.8892ZM66.7562 38.5455V56H64.2079V38.5455H66.7562ZM75.5865 56.2642C74.2968 56.2642 73.186 55.9886 72.2541 55.4375C71.328 54.8807 70.6121 54.0994 70.1064 53.0938C69.6064 52.0824 69.3564 50.8977 69.3564 49.5398C69.3564 48.1989 69.6064 47.017 70.1064 45.9943C70.6121 44.9716 71.3166 44.1733 72.2201 43.5994C73.1291 43.0256 74.1916 42.7386 75.4076 42.7386C76.1462 42.7386 76.8621 42.8608 77.5553 43.1051C78.2485 43.3494 78.8706 43.733 79.4218 44.2557C79.9729 44.7784 80.4076 45.4574 80.7257 46.2926C81.0439 47.1222 81.203 48.1307 81.203 49.3182V50.2216H70.7968V48.3125H78.7058C78.7058 47.642 78.5695 47.0483 78.2968 46.5312C78.024 46.0085 77.6405 45.5966 77.1462 45.2955C76.6576 44.9943 76.0837 44.8438 75.4246 44.8438C74.7087 44.8438 74.0837 45.0199 73.5496 45.3722C73.0212 45.7187 72.6121 46.1733 72.3223 46.7358C72.0382 47.2926 71.8962 47.8977 71.8962 48.5511V50.0426C71.8962 50.9176 72.0496 51.6619 72.3564 52.2756C72.6689 52.8892 73.1036 53.358 73.6604 53.6818C74.2172 54 74.8678 54.1591 75.6121 54.1591C76.0951 54.1591 76.5354 54.0909 76.9331 53.9545C77.3308 53.8125 77.6746 53.6023 77.9644 53.3239C78.2541 53.0455 78.4757 52.7017 78.6291 52.2926L81.0411 52.7273C80.8479 53.4375 80.5013 54.0597 80.0013 54.5938C79.507 55.1222 78.8848 55.5341 78.1348 55.8295C77.3905 56.1193 76.5411 56.2642 75.5865 56.2642ZM97.6925 56H94.8971L101.178 38.5455H104.221L110.502 56H107.707L102.772 41.7159H102.636L97.6925 56ZM98.1613 49.1648H107.229V51.3807H98.1613V49.1648ZM112.783 56V38.5455H119.004C120.362 38.5455 121.487 38.7926 122.379 39.2869C123.271 39.7812 123.939 40.4574 124.382 41.3153C124.825 42.1676 125.047 43.1278 125.047 44.196C125.047 45.2699 124.823 46.2358 124.374 47.0938C123.93 47.946 123.26 48.6222 122.362 49.1222C121.47 49.6165 120.348 49.8636 118.996 49.8636H114.717V47.6307H118.757C119.615 47.6307 120.311 47.483 120.845 47.1875C121.379 46.8864 121.771 46.4773 122.021 45.9602C122.271 45.4432 122.396 44.8551 122.396 44.196C122.396 43.5369 122.271 42.9517 122.021 42.4403C121.771 41.929 121.377 41.5284 120.837 41.2386C120.303 40.9489 119.598 40.804 118.723 40.804H115.416V56H112.783ZM127.894 56V38.5455H134.116C135.474 38.5455 136.599 38.7926 137.491 39.2869C138.383 39.7812 139.051 40.4574 139.494 41.3153C139.937 42.1676 140.159 43.1278 140.159 44.196C140.159 45.2699 139.934 46.2358 139.485 47.0938C139.042 47.946 138.372 48.6222 137.474 49.1222C136.582 49.6165 135.46 49.8636 134.107 49.8636H129.829V47.6307H133.869C134.727 47.6307 135.423 47.483 135.957 47.1875C136.491 46.8864 136.883 46.4773 137.133 45.9602C137.383 45.4432 137.508 44.8551 137.508 44.196C137.508 43.5369 137.383 42.9517 137.133 42.4403C136.883 41.929 136.488 41.5284 135.948 41.2386C135.414 40.9489 134.71 40.804 133.835 40.804H130.528V56H127.894ZM149.117 38.5455H152.313L157.87 52.1136H158.075L163.632 38.5455H166.828V56H164.322V43.3693H164.16L159.012 55.9744H156.933L151.785 43.3608H151.623V56H149.117V38.5455ZM181.641 38.5455H184.283V50.0256C184.283 51.2472 183.996 52.3295 183.422 53.2727C182.848 54.2102 182.042 54.9489 181.002 55.4886C179.962 56.0227 178.743 56.2898 177.346 56.2898C175.953 56.2898 174.738 56.0227 173.698 55.4886C172.658 54.9489 171.851 54.2102 171.277 53.2727C170.703 52.3295 170.417 51.2472 170.417 50.0256V38.5455H173.05V49.8125C173.05 50.6023 173.223 51.304 173.57 51.9176C173.922 52.5312 174.419 53.0142 175.061 53.3665C175.703 53.7131 176.465 53.8864 177.346 53.8864C178.232 53.8864 178.996 53.7131 179.638 53.3665C180.286 53.0142 180.78 52.5312 181.121 51.9176C181.468 51.304 181.641 50.6023 181.641 49.8125V38.5455ZM197.392 43.1307C197.301 42.3239 196.926 41.6989 196.267 41.2557C195.608 40.8068 194.778 40.5824 193.778 40.5824C193.062 40.5824 192.443 40.696 191.92 40.9233C191.397 41.1449 190.991 41.4517 190.701 41.8438C190.417 42.2301 190.275 42.6705 190.275 43.1648C190.275 43.5795 190.372 43.9375 190.565 44.2386C190.764 44.5398 191.022 44.7926 191.341 44.9972C191.664 45.196 192.011 45.3636 192.38 45.5C192.75 45.6307 193.105 45.7386 193.446 45.8239L195.15 46.267C195.707 46.4034 196.278 46.5881 196.863 46.821C197.449 47.054 197.991 47.3608 198.491 47.7415C198.991 48.1222 199.395 48.5938 199.701 49.1562C200.014 49.7188 200.17 50.392 200.17 51.1761C200.17 52.1648 199.914 53.0426 199.403 53.8097C198.897 54.5767 198.162 55.1818 197.196 55.625C196.235 56.0682 195.074 56.2898 193.71 56.2898C192.403 56.2898 191.272 56.0824 190.318 55.6676C189.363 55.2528 188.616 54.6648 188.076 53.9034C187.537 53.1364 187.238 52.2273 187.181 51.1761H189.824C189.875 51.8068 190.079 52.3324 190.437 52.7528C190.801 53.1676 191.264 53.4773 191.826 53.6818C192.395 53.8807 193.017 53.9801 193.693 53.9801C194.437 53.9801 195.099 53.8636 195.679 53.6307C196.264 53.392 196.724 53.0625 197.059 52.642C197.395 52.2159 197.562 51.7187 197.562 51.1506C197.562 50.6335 197.414 50.2102 197.119 49.8807C196.829 49.5511 196.434 49.2784 195.934 49.0625C195.44 48.8466 194.88 48.6562 194.255 48.4915L192.193 47.929C190.795 47.5483 189.687 46.9886 188.869 46.25C188.056 45.5114 187.65 44.5341 187.65 43.3182C187.65 42.3125 187.923 41.4347 188.468 40.6847C189.014 39.9347 189.753 39.3523 190.684 38.9375C191.616 38.517 192.667 38.3068 193.838 38.3068C195.02 38.3068 196.062 38.5142 196.966 38.929C197.875 39.3438 198.591 39.9148 199.113 40.642C199.636 41.3636 199.909 42.1932 199.931 43.1307H197.392ZM202.216 40.8125V38.5455H215.725V40.8125H210.279V56H207.654V40.8125H202.216ZM224.582 56V38.5455H227.215V46.1307H235.917V38.5455H238.559V56H235.917V48.3892H227.215V56H224.582ZM243.628 56H240.833L247.114 38.5455H250.157L256.438 56H253.643L248.708 41.7159H248.572L243.628 56ZM244.097 49.1648H253.165V51.3807H244.097V49.1648ZM258.416 38.5455L263.274 52.7614H263.47L268.328 38.5455H271.175L264.893 56H261.851L255.57 38.5455H258.416ZM273.455 56V38.5455H284.398V40.8125H276.089V46.1307H283.827V48.3892H276.089V53.733H284.501V56H273.455ZM299.225 56.2642C297.936 56.2642 296.825 55.9886 295.893 55.4375C294.967 54.8807 294.251 54.0994 293.745 53.0938C293.245 52.0824 292.995 50.8977 292.995 49.5398C292.995 48.1989 293.245 47.017 293.745 45.9943C294.251 44.9716 294.955 44.1733 295.859 43.5994C296.768 43.0256 297.83 42.7386 299.046 42.7386C299.785 42.7386 300.501 42.8608 301.194 43.1051C301.887 43.3494 302.509 43.733 303.061 44.2557C303.612 44.7784 304.046 45.4574 304.364 46.2926C304.683 47.1222 304.842 48.1307 304.842 49.3182V50.2216H294.436V48.3125H302.345C302.345 47.642 302.208 47.0483 301.936 46.5312C301.663 46.0085 301.279 45.5966 300.785 45.2955C300.296 44.9943 299.722 44.8438 299.063 44.8438C298.347 44.8438 297.722 45.0199 297.188 45.3722C296.66 45.7187 296.251 46.1733 295.961 46.7358C295.677 47.2926 295.535 47.8977 295.535 48.5511V50.0426C295.535 50.9176 295.688 51.6619 295.995 52.2756C296.308 52.8892 296.742 53.358 297.299 53.6818C297.856 54 298.507 54.1591 299.251 54.1591C299.734 54.1591 300.174 54.0909 300.572 53.9545C300.97 53.8125 301.313 53.6023 301.603 53.3239C301.893 53.0455 302.114 52.7017 302.268 52.2926L304.68 52.7273C304.487 53.4375 304.14 54.0597 303.64 54.5938C303.146 55.1222 302.524 55.5341 301.774 55.8295C301.029 56.1193 300.18 56.2642 299.225 56.2642ZM318.253 42.9091L313.506 56H310.779L306.023 42.9091H308.759L312.074 52.983H312.21L315.517 42.9091H318.253ZM325.605 56.2642C324.315 56.2642 323.204 55.9886 322.272 55.4375C321.346 54.8807 320.63 54.0994 320.125 53.0938C319.625 52.0824 319.375 50.8977 319.375 49.5398C319.375 48.1989 319.625 47.017 320.125 45.9943C320.63 44.9716 321.335 44.1733 322.238 43.5994C323.147 43.0256 324.21 42.7386 325.426 42.7386C326.164 42.7386 326.88 42.8608 327.573 43.1051C328.267 43.3494 328.889 43.733 329.44 44.2557C329.991 44.7784 330.426 45.4574 330.744 46.2926C331.062 47.1222 331.221 48.1307 331.221 49.3182V50.2216H320.815V48.3125H328.724C328.724 47.642 328.588 47.0483 328.315 46.5312C328.042 46.0085 327.659 45.5966 327.164 45.2955C326.676 44.9943 326.102 44.8438 325.443 44.8438C324.727 44.8438 324.102 45.0199 323.568 45.3722C323.039 45.7187 322.63 46.1733 322.34 46.7358C322.056 47.2926 321.914 47.8977 321.914 48.5511V50.0426C321.914 50.9176 322.068 51.6619 322.375 52.2756C322.687 52.8892 323.122 53.358 323.678 53.6818C324.235 54 324.886 54.1591 325.63 54.1591C326.113 54.1591 326.553 54.0909 326.951 53.9545C327.349 53.8125 327.693 53.6023 327.982 53.3239C328.272 53.0455 328.494 52.7017 328.647 52.2926L331.059 52.7273C330.866 53.4375 330.519 54.0597 330.019 54.5938C329.525 55.1222 328.903 55.5341 328.153 55.8295C327.409 56.1193 326.559 56.2642 325.605 56.2642ZM336.357 48.2273V56H333.809V42.9091H336.255V45.0398H336.416C336.718 44.3466 337.189 43.7898 337.831 43.3693C338.479 42.9489 339.294 42.7386 340.277 42.7386C341.169 42.7386 341.951 42.9261 342.621 43.3011C343.291 43.6705 343.811 44.2216 344.181 44.9545C344.55 45.6875 344.735 46.5937 344.735 47.6733V56H342.186V47.9801C342.186 47.0312 341.939 46.2898 341.445 45.7557C340.951 45.2159 340.272 44.946 339.408 44.946C338.817 44.946 338.291 45.0739 337.831 45.3295C337.377 45.5852 337.016 45.9602 336.749 46.4545C336.488 46.9432 336.357 47.5341 336.357 48.2273ZM354.023 42.9091V44.9545H346.873V42.9091H354.023ZM348.79 39.7727H351.338V52.1562C351.338 52.6506 351.412 53.0227 351.56 53.2727C351.708 53.517 351.898 53.6847 352.131 53.7756C352.37 53.8608 352.628 53.9034 352.907 53.9034C353.111 53.9034 353.29 53.8892 353.444 53.8608C353.597 53.8324 353.716 53.8097 353.801 53.7926L354.262 55.8977C354.114 55.9545 353.904 56.0114 353.631 56.0682C353.358 56.1307 353.017 56.1648 352.608 56.1705C351.938 56.1818 351.313 56.0625 350.733 55.8125C350.154 55.5625 349.685 55.1761 349.327 54.6534C348.969 54.1307 348.79 53.4744 348.79 52.6847V39.7727ZM366.201 46.1051L363.891 46.5142C363.794 46.2187 363.641 45.9375 363.431 45.6705C363.226 45.4034 362.948 45.1847 362.596 45.0142C362.243 44.8437 361.803 44.7585 361.275 44.7585C360.553 44.7585 359.951 44.9205 359.468 45.2443C358.985 45.5625 358.743 45.9744 358.743 46.4801C358.743 46.9176 358.905 47.2699 359.229 47.5369C359.553 47.804 360.076 48.0227 360.797 48.1932L362.877 48.6705C364.081 48.9489 364.979 49.3778 365.57 49.9574C366.161 50.5369 366.456 51.2898 366.456 52.2159C366.456 53 366.229 53.6989 365.775 54.3125C365.326 54.9205 364.698 55.3977 363.891 55.7443C363.09 56.0909 362.161 56.2642 361.104 56.2642C359.638 56.2642 358.442 55.9517 357.516 55.3267C356.59 54.696 356.022 53.8011 355.812 52.642L358.275 52.267C358.428 52.9091 358.743 53.3949 359.221 53.7244C359.698 54.0483 360.32 54.2102 361.087 54.2102C361.922 54.2102 362.59 54.0369 363.09 53.6903C363.59 53.3381 363.84 52.9091 363.84 52.4034C363.84 51.9943 363.687 51.6506 363.38 51.3722C363.079 51.0937 362.615 50.8835 361.99 50.7415L359.775 50.2557C358.553 49.9773 357.65 49.5341 357.064 48.9261C356.485 48.3182 356.195 47.5483 356.195 46.6165C356.195 45.8437 356.411 45.1676 356.843 44.5881C357.275 44.0085 357.871 43.5568 358.633 43.233C359.394 42.9034 360.266 42.7386 361.249 42.7386C362.664 42.7386 363.777 43.0455 364.59 43.6591C365.402 44.267 365.939 45.0824 366.201 46.1051Z" fill="white"/>
</svg>
