<svg width="374" height="571" viewBox="0 0 374 571" fill="none" xmlns="http://www.w3.org/2000/svg">
<rect x="94" y="378" width="196" height="191" stroke="#4361EE" stroke-width="4"/>
<path d="M231.166 438C229.508 433.411 226.478 429.412 222.469 426.516C218.459 423.62 213.652 421.96 208.666 421.75H175.333C168.703 421.75 162.344 424.318 157.655 428.889C152.967 433.46 150.333 439.66 150.333 446.125C150.333 452.59 152.967 458.79 157.655 463.361C162.344 467.932 168.703 470.5 175.333 470.5H208.666C215.297 470.5 221.656 473.068 226.344 477.639C231.032 482.21 233.666 488.41 233.666 494.875C233.666 501.34 231.032 507.54 226.344 512.111C221.656 516.682 215.297 519.25 208.666 519.25H175.333C170.348 519.04 165.541 517.38 161.531 514.484C157.521 511.588 154.492 507.589 152.833 503" stroke="#4361EE" stroke-width="5" stroke-linecap="round" stroke-linejoin="round"/>
<path d="M192 519.25V543.625M192 397.375V421.75V397.375Z" stroke="#4361EE" stroke-width="5" stroke-linecap="round" stroke-linejoin="round"/>
<path d="M0 101H374L291.326 373H91.5316L0 101Z" fill="#4361EE"/>
<path d="M149.443 268.473V255.382H157.56V257.082H151.418V261.071H156.979V262.765H151.418V268.473H149.443ZM159.656 268.473V258.654H161.567V268.473H159.656ZM160.621 257.14C160.289 257.14 160.003 257.029 159.765 256.807C159.53 256.581 159.413 256.313 159.413 256.002C159.413 255.686 159.53 255.418 159.765 255.196C160.003 254.971 160.289 254.858 160.621 254.858C160.954 254.858 161.237 254.971 161.471 255.196C161.71 255.418 161.829 255.686 161.829 256.002C161.829 256.313 161.71 256.581 161.471 256.807C161.237 257.029 160.954 257.14 160.621 257.14ZM163.958 268.473V258.654H165.806V260.214H165.908C166.087 259.686 166.402 259.27 166.854 258.968C167.31 258.661 167.826 258.507 168.401 258.507C168.52 258.507 168.661 258.512 168.823 258.52C168.989 258.529 169.119 258.539 169.213 258.552V260.38C169.136 260.359 169 260.336 168.804 260.31C168.608 260.28 168.412 260.265 168.216 260.265C167.764 260.265 167.361 260.361 167.007 260.553C166.658 260.74 166.381 261.002 166.176 261.339C165.972 261.672 165.87 262.051 165.87 262.477V268.473H163.958ZM178.044 261.051L176.312 261.358C176.239 261.137 176.124 260.926 175.966 260.725C175.813 260.525 175.604 260.361 175.34 260.233C175.076 260.105 174.746 260.042 174.349 260.042C173.808 260.042 173.356 260.163 172.994 260.406C172.632 260.645 172.451 260.953 172.451 261.333C172.451 261.661 172.572 261.925 172.815 262.125C173.058 262.326 173.45 262.49 173.991 262.618L175.551 262.975C176.454 263.184 177.128 263.506 177.571 263.941C178.014 264.375 178.236 264.94 178.236 265.635C178.236 266.223 178.065 266.747 177.724 267.207C177.388 267.663 176.917 268.021 176.312 268.281C175.711 268.541 175.014 268.671 174.221 268.671C173.122 268.671 172.225 268.436 171.53 267.968C170.836 267.495 170.41 266.824 170.252 265.954L172.099 265.673C172.214 266.154 172.451 266.519 172.809 266.766C173.167 267.009 173.633 267.13 174.209 267.13C174.835 267.13 175.336 267 175.711 266.74C176.086 266.476 176.273 266.154 176.273 265.775C176.273 265.468 176.158 265.211 175.928 265.002C175.702 264.793 175.355 264.635 174.886 264.529L173.224 264.164C172.308 263.956 171.631 263.623 171.192 263.167C170.757 262.711 170.54 262.134 170.54 261.435C170.54 260.855 170.702 260.348 171.025 259.914C171.349 259.479 171.797 259.14 172.368 258.897C172.939 258.65 173.593 258.527 174.33 258.527C175.391 258.527 176.226 258.757 176.836 259.217C177.445 259.673 177.848 260.284 178.044 261.051ZM184.74 258.654V260.189H179.377V258.654H184.74ZM180.815 256.302H182.727V265.59C182.727 265.961 182.782 266.24 182.893 266.427C183.004 266.61 183.146 266.736 183.321 266.804C183.5 266.868 183.694 266.9 183.903 266.9C184.056 266.9 184.19 266.89 184.305 266.868C184.421 266.847 184.51 266.83 184.574 266.817L184.919 268.396C184.808 268.439 184.651 268.481 184.446 268.524C184.242 268.571 183.986 268.596 183.679 268.6C183.176 268.609 182.707 268.52 182.273 268.332C181.838 268.145 181.487 267.855 181.218 267.463C180.95 267.071 180.815 266.578 180.815 265.986V256.302ZM193.169 255.382V268.473H191.258V255.382H193.169ZM199.792 268.671C198.825 268.671 197.991 268.464 197.293 268.051C196.598 267.633 196.061 267.047 195.682 266.293C195.307 265.534 195.119 264.646 195.119 263.627C195.119 262.622 195.307 261.735 195.682 260.968C196.061 260.201 196.59 259.603 197.267 259.172C197.949 258.742 198.746 258.527 199.658 258.527C200.212 258.527 200.749 258.618 201.268 258.801C201.788 258.985 202.255 259.272 202.668 259.664C203.082 260.056 203.408 260.566 203.646 261.192C203.885 261.814 204.004 262.571 204.004 263.461V264.139H196.2V262.707H202.131C202.131 262.204 202.029 261.759 201.825 261.371C201.62 260.979 201.332 260.67 200.962 260.444C200.595 260.218 200.165 260.105 199.67 260.105C199.134 260.105 198.665 260.238 198.264 260.502C197.868 260.762 197.561 261.103 197.344 261.525C197.131 261.942 197.024 262.396 197.024 262.886V264.005C197.024 264.661 197.139 265.219 197.369 265.679C197.604 266.14 197.93 266.491 198.347 266.734C198.765 266.973 199.253 267.092 199.811 267.092C200.173 267.092 200.504 267.041 200.802 266.939C201.1 266.832 201.358 266.674 201.575 266.466C201.793 266.257 201.959 265.999 202.074 265.692L203.883 266.018C203.738 266.551 203.478 267.017 203.103 267.418C202.732 267.814 202.266 268.123 201.703 268.345C201.145 268.562 200.508 268.671 199.792 268.671ZM208.802 268.69C208.18 268.69 207.617 268.575 207.115 268.345C206.612 268.11 206.213 267.772 205.919 267.328C205.63 266.885 205.485 266.342 205.485 265.699C205.485 265.145 205.591 264.689 205.804 264.331C206.017 263.973 206.305 263.689 206.667 263.48C207.029 263.272 207.434 263.114 207.882 263.007C208.329 262.901 208.785 262.82 209.25 262.765C209.838 262.696 210.315 262.641 210.681 262.598C211.048 262.551 211.314 262.477 211.48 262.375C211.647 262.272 211.73 262.106 211.73 261.876V261.831C211.73 261.273 211.572 260.841 211.257 260.534C210.946 260.227 210.481 260.074 209.863 260.074C209.22 260.074 208.713 260.216 208.342 260.502C207.975 260.783 207.722 261.096 207.581 261.441L205.785 261.032C205.998 260.436 206.309 259.954 206.718 259.588C207.132 259.217 207.607 258.949 208.144 258.782C208.681 258.612 209.245 258.527 209.838 258.527C210.23 258.527 210.645 258.574 211.084 258.667C211.527 258.757 211.941 258.923 212.324 259.166C212.712 259.409 213.029 259.756 213.277 260.208C213.524 260.655 213.647 261.237 213.647 261.953V268.473H211.781V267.13H211.704C211.58 267.377 211.395 267.62 211.148 267.859C210.901 268.098 210.583 268.296 210.196 268.453C209.808 268.611 209.343 268.69 208.802 268.69ZM209.218 267.156C209.746 267.156 210.198 267.051 210.573 266.843C210.952 266.634 211.24 266.361 211.436 266.025C211.636 265.684 211.736 265.319 211.736 264.931V263.666C211.668 263.734 211.536 263.798 211.34 263.858C211.148 263.913 210.929 263.962 210.681 264.005C210.434 264.043 210.193 264.079 209.959 264.113C209.725 264.143 209.529 264.169 209.371 264.19C209 264.237 208.661 264.316 208.355 264.426C208.052 264.537 207.809 264.697 207.626 264.906C207.447 265.11 207.357 265.383 207.357 265.724C207.357 266.197 207.532 266.555 207.882 266.798C208.231 267.037 208.676 267.156 209.218 267.156ZM219.688 268.664C218.896 268.664 218.188 268.462 217.566 268.057C216.948 267.648 216.462 267.066 216.109 266.312C215.759 265.554 215.585 264.644 215.585 263.583C215.585 262.522 215.761 261.614 216.115 260.86C216.473 260.105 216.963 259.528 217.585 259.127C218.207 258.727 218.913 258.527 219.701 258.527C220.31 258.527 220.801 258.629 221.171 258.833C221.546 259.034 221.836 259.268 222.041 259.537C222.249 259.805 222.411 260.042 222.526 260.246H222.641V255.382H224.553V268.473H222.686V266.945H222.526C222.411 267.154 222.245 267.392 222.028 267.661C221.815 267.929 221.521 268.164 221.146 268.364C220.771 268.564 220.285 268.664 219.688 268.664ZM220.11 267.034C220.66 267.034 221.124 266.89 221.504 266.6C221.887 266.306 222.177 265.899 222.373 265.379C222.573 264.859 222.673 264.254 222.673 263.564C222.673 262.882 222.575 262.285 222.379 261.774C222.183 261.262 221.896 260.864 221.516 260.578C221.137 260.293 220.668 260.15 220.11 260.15C219.535 260.15 219.056 260.299 218.672 260.598C218.288 260.896 217.999 261.303 217.803 261.819C217.611 262.334 217.515 262.916 217.515 263.564C217.515 264.22 217.613 264.81 217.809 265.334C218.005 265.858 218.295 266.274 218.678 266.581C219.066 266.883 219.543 267.034 220.11 267.034Z" fill="white"/>
<path d="M137.511 225.905V212.814H142.177C143.192 212.814 144.033 212.989 144.702 213.339C145.376 213.688 145.878 214.172 146.211 214.79C146.543 215.403 146.709 216.113 146.709 216.918C146.709 217.719 146.541 218.424 146.204 219.034C145.872 219.639 145.369 220.11 144.696 220.446C144.027 220.783 143.185 220.951 142.171 220.951H138.636V219.251H141.992C142.631 219.251 143.151 219.16 143.552 218.976C143.957 218.793 144.253 218.527 144.44 218.177C144.628 217.828 144.721 217.408 144.721 216.918C144.721 216.424 144.626 215.995 144.434 215.633C144.246 215.271 143.95 214.994 143.545 214.802C143.145 214.606 142.618 214.508 141.966 214.508H139.486V225.905H137.511ZM143.974 219.999L147.208 225.905H144.958L141.787 219.999H143.974ZM152.888 226.103C151.921 226.103 151.087 225.897 150.389 225.483C149.694 225.066 149.157 224.48 148.778 223.726C148.403 222.967 148.215 222.079 148.215 221.06C148.215 220.054 148.403 219.168 148.778 218.401C149.157 217.634 149.685 217.035 150.363 216.605C151.045 216.174 151.842 215.959 152.754 215.959C153.308 215.959 153.845 216.051 154.364 216.234C154.884 216.417 155.351 216.705 155.764 217.097C156.178 217.489 156.504 217.998 156.742 218.625C156.981 219.247 157.1 220.003 157.1 220.894V221.571H149.296V220.14H155.227C155.227 219.637 155.125 219.191 154.921 218.804C154.716 218.412 154.428 218.103 154.058 217.877C153.691 217.651 153.261 217.538 152.766 217.538C152.229 217.538 151.761 217.67 151.36 217.934C150.964 218.194 150.657 218.535 150.44 218.957C150.227 219.375 150.12 219.829 150.12 220.319V221.437C150.12 222.093 150.235 222.652 150.465 223.112C150.7 223.572 151.026 223.924 151.443 224.167C151.861 224.405 152.349 224.525 152.907 224.525C153.269 224.525 153.6 224.473 153.898 224.371C154.196 224.265 154.454 224.107 154.671 223.898C154.889 223.689 155.055 223.432 155.17 223.125L156.979 223.451C156.834 223.983 156.574 224.45 156.199 224.851C155.828 225.247 155.362 225.556 154.799 225.777C154.241 225.995 153.604 226.103 152.888 226.103ZM163.157 229.792C162.377 229.792 161.706 229.689 161.144 229.485C160.586 229.28 160.13 229.01 159.776 228.673C159.422 228.336 159.158 227.968 158.983 227.567L160.626 226.89C160.741 227.077 160.894 227.275 161.086 227.484C161.282 227.697 161.546 227.878 161.879 228.027C162.215 228.177 162.648 228.251 163.176 228.251C163.901 228.251 164.5 228.074 164.973 227.721C165.446 227.371 165.682 226.813 165.682 226.046V224.116H165.561C165.446 224.324 165.279 224.557 165.062 224.812C164.849 225.068 164.555 225.29 164.18 225.477C163.805 225.665 163.317 225.758 162.716 225.758C161.941 225.758 161.242 225.577 160.62 225.215C160.002 224.848 159.512 224.309 159.149 223.598C158.791 222.882 158.613 222.002 158.613 220.958C158.613 219.914 158.789 219.019 159.143 218.273C159.501 217.527 159.991 216.956 160.613 216.56C161.235 216.16 161.941 215.959 162.729 215.959C163.338 215.959 163.831 216.062 164.206 216.266C164.581 216.466 164.872 216.701 165.081 216.969C165.294 217.238 165.458 217.474 165.573 217.679H165.714V216.087H167.587V226.123C167.587 226.966 167.391 227.659 166.999 228.2C166.607 228.741 166.076 229.142 165.407 229.402C164.742 229.662 163.992 229.792 163.157 229.792ZM163.138 224.173C163.688 224.173 164.152 224.045 164.532 223.79C164.915 223.53 165.205 223.159 165.401 222.677C165.601 222.191 165.701 221.61 165.701 220.932C165.701 220.272 165.603 219.69 165.407 219.187C165.211 218.684 164.924 218.292 164.544 218.011C164.165 217.726 163.696 217.583 163.138 217.583C162.563 217.583 162.083 217.732 161.7 218.03C161.316 218.324 161.027 218.725 160.831 219.232C160.639 219.739 160.543 220.306 160.543 220.932C160.543 221.576 160.641 222.14 160.837 222.626C161.033 223.112 161.323 223.491 161.706 223.764C162.094 224.037 162.571 224.173 163.138 224.173ZM169.97 225.905V216.087H171.881V225.905H169.97ZM170.935 214.572C170.603 214.572 170.317 214.461 170.079 214.24C169.844 214.014 169.727 213.745 169.727 213.434C169.727 213.119 169.844 212.851 170.079 212.629C170.317 212.403 170.603 212.29 170.935 212.29C171.268 212.29 171.551 212.403 171.785 212.629C172.024 212.851 172.143 213.119 172.143 213.434C172.143 213.745 172.024 214.014 171.785 214.24C171.551 214.461 171.268 214.572 170.935 214.572ZM181.63 218.484L179.898 218.791C179.825 218.569 179.71 218.358 179.552 218.158C179.399 217.958 179.19 217.794 178.926 217.666C178.662 217.538 178.332 217.474 177.935 217.474C177.394 217.474 176.942 217.596 176.58 217.839C176.218 218.077 176.037 218.386 176.037 218.765C176.037 219.093 176.158 219.358 176.401 219.558C176.644 219.758 177.036 219.922 177.577 220.05L179.137 220.408C180.04 220.617 180.714 220.939 181.157 221.373C181.6 221.808 181.822 222.373 181.822 223.067C181.822 223.655 181.651 224.179 181.31 224.64C180.974 225.096 180.503 225.454 179.898 225.714C179.297 225.973 178.6 226.103 177.807 226.103C176.708 226.103 175.811 225.869 175.116 225.4C174.422 224.927 173.996 224.256 173.838 223.387L175.685 223.106C175.8 223.587 176.037 223.951 176.395 224.199C176.753 224.441 177.219 224.563 177.795 224.563C178.421 224.563 178.922 224.433 179.297 224.173C179.672 223.909 179.859 223.587 179.859 223.208C179.859 222.901 179.744 222.643 179.514 222.434C179.288 222.226 178.941 222.068 178.472 221.961L176.81 221.597C175.894 221.388 175.216 221.056 174.778 220.6C174.343 220.144 174.126 219.566 174.126 218.868C174.126 218.288 174.287 217.781 174.611 217.346C174.935 216.912 175.383 216.573 175.954 216.33C176.525 216.083 177.179 215.959 177.916 215.959C178.977 215.959 179.812 216.189 180.422 216.65C181.031 217.106 181.434 217.717 181.63 218.484ZM188.326 216.087V217.621H182.963V216.087H188.326ZM184.401 213.735H186.313V223.022C186.313 223.393 186.368 223.672 186.479 223.86C186.59 224.043 186.732 224.169 186.907 224.237C187.086 224.301 187.28 224.333 187.489 224.333C187.642 224.333 187.776 224.322 187.891 224.301C188.006 224.28 188.096 224.263 188.16 224.25L188.505 225.829C188.394 225.871 188.237 225.914 188.032 225.956C187.827 226.003 187.572 226.029 187.265 226.033C186.762 226.042 186.293 225.952 185.859 225.765C185.424 225.577 185.073 225.287 184.804 224.895C184.536 224.503 184.401 224.011 184.401 223.419V213.735ZM190.26 225.905V216.087H192.108V217.647H192.21C192.389 217.118 192.704 216.703 193.156 216.4C193.612 216.093 194.127 215.94 194.703 215.94C194.822 215.94 194.963 215.944 195.125 215.953C195.291 215.961 195.421 215.972 195.514 215.985V217.813C195.438 217.792 195.301 217.768 195.105 217.743C194.909 217.713 194.713 217.698 194.517 217.698C194.066 217.698 193.663 217.794 193.309 217.986C192.96 218.173 192.683 218.435 192.478 218.772C192.274 219.104 192.171 219.483 192.171 219.91V225.905H190.26ZM199.758 226.123C199.136 226.123 198.573 226.008 198.07 225.777C197.567 225.543 197.169 225.204 196.875 224.761C196.585 224.318 196.44 223.775 196.44 223.131C196.44 222.577 196.547 222.121 196.76 221.763C196.973 221.405 197.261 221.122 197.623 220.913C197.985 220.704 198.39 220.547 198.837 220.44C199.285 220.334 199.741 220.253 200.205 220.197C200.793 220.129 201.271 220.074 201.637 220.031C202.004 219.984 202.27 219.91 202.436 219.807C202.602 219.705 202.685 219.539 202.685 219.309V219.264C202.685 218.706 202.528 218.273 202.212 217.966C201.901 217.66 201.437 217.506 200.819 217.506C200.175 217.506 199.668 217.649 199.298 217.934C198.931 218.216 198.678 218.529 198.537 218.874L196.741 218.465C196.954 217.868 197.265 217.387 197.674 217.02C198.087 216.65 198.562 216.381 199.099 216.215C199.636 216.044 200.201 215.959 200.793 215.959C201.185 215.959 201.601 216.006 202.04 216.1C202.483 216.189 202.896 216.356 203.28 216.598C203.668 216.841 203.985 217.189 204.232 217.64C204.479 218.088 204.603 218.669 204.603 219.385V225.905H202.736V224.563H202.66C202.536 224.81 202.351 225.053 202.104 225.292C201.857 225.53 201.539 225.728 201.151 225.886C200.763 226.044 200.299 226.123 199.758 226.123ZM200.173 224.589C200.702 224.589 201.153 224.484 201.528 224.275C201.908 224.066 202.195 223.794 202.391 223.457C202.592 223.116 202.692 222.752 202.692 222.364V221.098C202.624 221.167 202.491 221.231 202.295 221.29C202.104 221.346 201.884 221.395 201.637 221.437C201.39 221.476 201.149 221.512 200.915 221.546C200.68 221.576 200.484 221.601 200.327 221.623C199.956 221.669 199.617 221.748 199.31 221.859C199.008 221.97 198.765 222.13 198.582 222.339C198.403 222.543 198.313 222.816 198.313 223.157C198.313 223.63 198.488 223.988 198.837 224.231C199.187 224.469 199.632 224.589 200.173 224.589ZM211.552 216.087V217.621H206.189V216.087H211.552ZM207.627 213.735H209.538V223.022C209.538 223.393 209.594 223.672 209.704 223.86C209.815 224.043 209.958 224.169 210.133 224.237C210.312 224.301 210.506 224.333 210.714 224.333C210.868 224.333 211.002 224.322 211.117 224.301C211.232 224.28 211.322 224.263 211.385 224.25L211.731 225.829C211.62 225.871 211.462 225.914 211.258 225.956C211.053 226.003 210.797 226.029 210.491 226.033C209.988 226.042 209.519 225.952 209.084 225.765C208.65 225.577 208.298 225.287 208.03 224.895C207.761 224.503 207.627 224.011 207.627 223.419V213.735ZM213.486 225.905V216.087H215.397V225.905H213.486ZM214.451 214.572C214.119 214.572 213.833 214.461 213.595 214.24C213.36 214.014 213.243 213.745 213.243 213.434C213.243 213.119 213.36 212.851 213.595 212.629C213.833 212.403 214.119 212.29 214.451 212.29C214.783 212.29 215.067 212.403 215.301 212.629C215.54 212.851 215.659 213.119 215.659 213.434C215.659 213.745 215.54 214.014 215.301 214.24C215.067 214.461 214.783 214.572 214.451 214.572ZM221.924 226.103C221.003 226.103 220.2 225.892 219.514 225.471C218.828 225.049 218.295 224.459 217.916 223.7C217.537 222.941 217.347 222.055 217.347 221.041C217.347 220.022 217.537 219.132 217.916 218.369C218.295 217.606 218.828 217.014 219.514 216.592C220.2 216.17 221.003 215.959 221.924 215.959C222.844 215.959 223.648 216.17 224.334 216.592C225.02 217.014 225.552 217.606 225.932 218.369C226.311 219.132 226.501 220.022 226.501 221.041C226.501 222.055 226.311 222.941 225.932 223.7C225.552 224.459 225.02 225.049 224.334 225.471C223.648 225.892 222.844 226.103 221.924 226.103ZM221.93 224.499C222.527 224.499 223.021 224.341 223.413 224.026C223.805 223.711 224.095 223.291 224.283 222.767C224.474 222.243 224.57 221.665 224.57 221.035C224.57 220.408 224.474 219.833 224.283 219.309C224.095 218.78 223.805 218.356 223.413 218.037C223.021 217.717 222.527 217.557 221.93 217.557C221.329 217.557 220.831 217.717 220.435 218.037C220.043 218.356 219.751 218.78 219.559 219.309C219.371 219.833 219.278 220.408 219.278 221.035C219.278 221.665 219.371 222.243 219.559 222.767C219.751 223.291 220.043 223.711 220.435 224.026C220.831 224.341 221.329 224.499 221.93 224.499ZM230.365 220.076V225.905H228.454V216.087H230.288V217.685H230.41C230.636 217.165 230.989 216.748 231.471 216.432C231.957 216.117 232.568 215.959 233.306 215.959C233.975 215.959 234.561 216.1 235.063 216.381C235.566 216.658 235.956 217.071 236.233 217.621C236.51 218.171 236.649 218.851 236.649 219.66V225.905H234.737V219.89C234.737 219.179 234.552 218.623 234.181 218.222C233.811 217.817 233.301 217.615 232.654 217.615C232.21 217.615 231.816 217.711 231.471 217.902C231.13 218.094 230.86 218.375 230.659 218.746C230.463 219.113 230.365 219.556 230.365 220.076Z" fill="white"/>
<path d="M178.454 171.518H176.46C176.383 171.092 176.241 170.717 176.032 170.393C175.823 170.069 175.567 169.794 175.265 169.568C174.962 169.342 174.623 169.172 174.248 169.057C173.878 168.942 173.483 168.884 173.066 168.884C172.312 168.884 171.636 169.074 171.04 169.453C170.447 169.832 169.978 170.388 169.633 171.121C169.292 171.854 169.122 172.749 169.122 173.806C169.122 174.871 169.292 175.771 169.633 176.504C169.978 177.237 170.449 177.79 171.046 178.165C171.642 178.54 172.314 178.728 173.059 178.728C173.473 178.728 173.865 178.673 174.236 178.562C174.611 178.447 174.949 178.278 175.252 178.057C175.554 177.835 175.81 177.565 176.019 177.245C176.232 176.921 176.379 176.55 176.46 176.133L178.454 176.139C178.348 176.783 178.141 177.375 177.834 177.916C177.532 178.453 177.142 178.918 176.665 179.31C176.191 179.697 175.65 179.998 175.041 180.211C174.432 180.424 173.767 180.531 173.047 180.531C171.913 180.531 170.903 180.262 170.017 179.725C169.13 179.184 168.432 178.411 167.92 177.405C167.413 176.399 167.16 175.2 167.16 173.806C167.16 172.408 167.415 171.209 167.927 170.207C168.438 169.202 169.137 168.43 170.023 167.893C170.91 167.352 171.917 167.082 173.047 167.082C173.741 167.082 174.389 167.182 174.99 167.382C175.595 167.578 176.138 167.868 176.62 168.251C177.101 168.631 177.5 169.095 177.815 169.645C178.13 170.19 178.343 170.815 178.454 171.518ZM182.396 167.261V180.352H180.484V167.261H182.396ZM184.787 180.352V170.533H186.698V180.352H184.787ZM185.752 169.018C185.42 169.018 185.134 168.908 184.895 168.686C184.661 168.46 184.544 168.192 184.544 167.881C184.544 167.565 184.661 167.297 184.895 167.075C185.134 166.849 185.42 166.737 185.752 166.737C186.084 166.737 186.368 166.849 186.602 167.075C186.841 167.297 186.96 167.565 186.96 167.881C186.96 168.192 186.841 168.46 186.602 168.686C186.368 168.908 186.084 169.018 185.752 169.018ZM193.225 180.55C192.275 180.55 191.456 180.335 190.77 179.904C190.088 179.469 189.564 178.871 189.198 178.108C188.831 177.345 188.648 176.472 188.648 175.487C188.648 174.49 188.836 173.61 189.211 172.847C189.586 172.08 190.114 171.482 190.796 171.051C191.478 170.621 192.281 170.406 193.206 170.406C193.951 170.406 194.616 170.544 195.2 170.821C195.784 171.094 196.255 171.477 196.613 171.972C196.975 172.466 197.19 173.043 197.258 173.704H195.398C195.296 173.244 195.061 172.847 194.695 172.515C194.333 172.183 193.847 172.016 193.238 172.016C192.705 172.016 192.238 172.157 191.838 172.438C191.441 172.715 191.132 173.112 190.911 173.627C190.689 174.138 190.579 174.744 190.579 175.442C190.579 176.158 190.687 176.776 190.905 177.296C191.122 177.816 191.429 178.219 191.825 178.504C192.226 178.79 192.696 178.933 193.238 178.933C193.6 178.933 193.928 178.866 194.222 178.734C194.52 178.598 194.77 178.404 194.97 178.153C195.174 177.901 195.317 177.599 195.398 177.245H197.258C197.19 177.88 196.983 178.447 196.638 178.945C196.293 179.444 195.831 179.836 195.251 180.121C194.676 180.407 194 180.55 193.225 180.55ZM200.88 177.021L200.867 174.688H201.199L205.111 170.533H207.4L202.938 175.263H202.638L200.88 177.021ZM199.122 180.352V167.261H201.033V180.352H199.122ZM205.322 180.352L201.807 175.685L203.123 174.349L207.668 180.352H205.322Z" fill="white"/>
<path d="M168.609 118.909L172.253 129.571H172.4L176.043 118.909H178.178L173.467 132H171.185L166.474 118.909H168.609ZM179.735 132V122.182H181.646V132H179.735ZM180.7 120.667C180.368 120.667 180.082 120.556 179.844 120.335C179.609 120.109 179.492 119.84 179.492 119.529C179.492 119.214 179.609 118.945 179.844 118.724C180.082 118.498 180.368 118.385 180.7 118.385C181.033 118.385 181.316 118.498 181.55 118.724C181.789 118.945 181.908 119.214 181.908 119.529C181.908 119.84 181.789 120.109 181.55 120.335C181.316 120.556 181.033 120.667 180.7 120.667ZM188.269 132.198C187.302 132.198 186.469 131.991 185.77 131.578C185.075 131.161 184.538 130.575 184.159 129.82C183.784 129.062 183.597 128.173 183.597 127.155C183.597 126.149 183.784 125.263 184.159 124.496C184.538 123.729 185.067 123.13 185.744 122.7C186.426 122.269 187.223 122.054 188.135 122.054C188.689 122.054 189.226 122.146 189.746 122.329C190.266 122.512 190.732 122.8 191.146 123.192C191.559 123.584 191.885 124.093 192.124 124.719C192.362 125.342 192.481 126.098 192.481 126.989V127.666H184.677V126.234H190.609C190.609 125.732 190.506 125.286 190.302 124.898C190.097 124.506 189.81 124.197 189.439 123.972C189.072 123.746 188.642 123.633 188.148 123.633C187.611 123.633 187.142 123.765 186.741 124.029C186.345 124.289 186.038 124.63 185.821 125.052C185.608 125.469 185.501 125.923 185.501 126.413V127.532C185.501 128.188 185.616 128.746 185.847 129.207C186.081 129.667 186.407 130.018 186.825 130.261C187.242 130.5 187.73 130.619 188.288 130.619C188.651 130.619 188.981 130.568 189.279 130.466C189.577 130.359 189.835 130.202 190.052 129.993C190.27 129.784 190.436 129.526 190.551 129.219L192.36 129.545C192.215 130.078 191.955 130.545 191.58 130.945C191.209 131.342 190.743 131.651 190.18 131.872C189.622 132.089 188.985 132.198 188.269 132.198ZM196.533 132L193.644 122.182H195.619L197.543 129.392H197.639L199.569 122.182H201.544L203.462 129.36H203.558L205.469 122.182H207.444L204.561 132H202.612L200.618 124.911H200.471L198.476 132H196.533Z" fill="white"/>
<path d="M148.929 311.668V298.577H153.595C154.613 298.577 155.457 298.762 156.126 299.133C156.795 299.504 157.296 300.011 157.628 300.654C157.961 301.294 158.127 302.014 158.127 302.815C158.127 303.62 157.958 304.345 157.622 304.988C157.289 305.627 156.787 306.135 156.113 306.51C155.444 306.88 154.603 307.066 153.588 307.066H150.38V305.391H153.409C154.053 305.391 154.575 305.28 154.975 305.059C155.376 304.833 155.67 304.526 155.858 304.138C156.045 303.75 156.139 303.309 156.139 302.815C156.139 302.321 156.045 301.882 155.858 301.498C155.67 301.115 155.374 300.814 154.969 300.597C154.568 300.38 154.04 300.271 153.384 300.271H150.904V311.668H148.929ZM166.328 307.596V301.85H168.246V311.668H166.367V309.968H166.264C166.039 310.492 165.676 310.929 165.178 311.278C164.683 311.623 164.068 311.796 163.33 311.796C162.7 311.796 162.141 311.657 161.656 311.38C161.174 311.099 160.795 310.684 160.518 310.134C160.245 309.584 160.109 308.904 160.109 308.095V301.85H162.02V307.865C162.02 308.534 162.205 309.066 162.576 309.463C162.947 309.859 163.428 310.057 164.021 310.057C164.379 310.057 164.735 309.968 165.088 309.789C165.446 309.61 165.742 309.339 165.977 308.977C166.215 308.615 166.333 308.154 166.328 307.596ZM170.634 311.668V301.85H172.481V303.409H172.583C172.762 302.881 173.078 302.466 173.529 302.163C173.985 301.856 174.501 301.703 175.076 301.703C175.196 301.703 175.336 301.707 175.498 301.716C175.664 301.724 175.794 301.735 175.888 301.748V303.576C175.811 303.554 175.675 303.531 175.479 303.505C175.283 303.475 175.087 303.461 174.891 303.461C174.439 303.461 174.037 303.556 173.683 303.748C173.333 303.936 173.056 304.198 172.852 304.534C172.647 304.867 172.545 305.246 172.545 305.672V311.668H170.634ZM181.146 311.866C180.196 311.866 179.378 311.651 178.692 311.221C178.01 310.786 177.486 310.187 177.119 309.424C176.753 308.662 176.569 307.788 176.569 306.804C176.569 305.806 176.757 304.926 177.132 304.164C177.507 303.397 178.035 302.798 178.717 302.368C179.399 301.937 180.202 301.722 181.127 301.722C181.873 301.722 182.538 301.86 183.121 302.137C183.705 302.41 184.176 302.794 184.534 303.288C184.896 303.782 185.111 304.36 185.18 305.02H183.319C183.217 304.56 182.983 304.164 182.616 303.831C182.254 303.499 181.768 303.333 181.159 303.333C180.626 303.333 180.16 303.473 179.759 303.755C179.363 304.032 179.054 304.428 178.832 304.944C178.611 305.455 178.5 306.06 178.5 306.759C178.5 307.475 178.609 308.093 178.826 308.613C179.043 309.132 179.35 309.535 179.746 309.821C180.147 310.106 180.618 310.249 181.159 310.249C181.521 310.249 181.849 310.183 182.143 310.051C182.442 309.914 182.691 309.721 182.891 309.469C183.096 309.218 183.239 308.915 183.319 308.561H185.18C185.111 309.196 184.905 309.763 184.56 310.262C184.214 310.76 183.752 311.152 183.172 311.438C182.597 311.723 181.922 311.866 181.146 311.866ZM188.955 305.838V311.668H187.043V298.577H188.929V303.448H189.051C189.281 302.919 189.632 302.5 190.105 302.189C190.578 301.877 191.196 301.722 191.959 301.722C192.632 301.722 193.22 301.86 193.723 302.137C194.23 302.414 194.622 302.828 194.899 303.377C195.181 303.923 195.321 304.605 195.321 305.423V311.668H193.41V305.653C193.41 304.933 193.225 304.375 192.854 303.978C192.483 303.578 191.967 303.377 191.307 303.377C190.855 303.377 190.45 303.473 190.092 303.665C189.739 303.857 189.46 304.138 189.255 304.509C189.055 304.875 188.955 305.319 188.955 305.838ZM200.549 311.885C199.927 311.885 199.364 311.77 198.861 311.54C198.358 311.306 197.96 310.967 197.666 310.524C197.376 310.081 197.231 309.537 197.231 308.894C197.231 308.34 197.338 307.884 197.551 307.526C197.764 307.168 198.052 306.885 198.414 306.676C198.776 306.467 199.181 306.309 199.628 306.203C200.076 306.096 200.532 306.015 200.996 305.96C201.584 305.892 202.062 305.836 202.428 305.794C202.795 305.747 203.061 305.672 203.227 305.57C203.393 305.468 203.476 305.301 203.476 305.071V305.027C203.476 304.468 203.319 304.036 203.003 303.729C202.692 303.422 202.228 303.269 201.61 303.269C200.966 303.269 200.459 303.412 200.089 303.697C199.722 303.978 199.469 304.292 199.328 304.637L197.532 304.228C197.745 303.631 198.056 303.15 198.465 302.783C198.878 302.412 199.353 302.144 199.89 301.978C200.427 301.807 200.992 301.722 201.584 301.722C201.976 301.722 202.392 301.769 202.831 301.863C203.274 301.952 203.687 302.118 204.071 302.361C204.459 302.604 204.776 302.951 205.023 303.403C205.27 303.85 205.394 304.432 205.394 305.148V311.668H203.527V310.326H203.451C203.327 310.573 203.142 310.816 202.895 311.054C202.648 311.293 202.33 311.491 201.942 311.649C201.554 311.806 201.09 311.885 200.549 311.885ZM200.964 310.351C201.493 310.351 201.944 310.247 202.319 310.038C202.699 309.829 202.986 309.556 203.182 309.22C203.383 308.879 203.483 308.515 203.483 308.127V306.861C203.415 306.929 203.282 306.993 203.086 307.053C202.895 307.108 202.675 307.157 202.428 307.2C202.181 307.238 201.94 307.275 201.706 307.309C201.471 307.338 201.275 307.364 201.118 307.385C200.747 307.432 200.408 307.511 200.101 307.622C199.799 307.733 199.556 307.892 199.373 308.101C199.194 308.306 199.104 308.578 199.104 308.919C199.104 309.392 199.279 309.75 199.628 309.993C199.978 310.232 200.423 310.351 200.964 310.351ZM215.117 304.247L213.385 304.554C213.312 304.332 213.197 304.121 213.039 303.921C212.886 303.721 212.677 303.556 212.413 303.429C212.149 303.301 211.819 303.237 211.422 303.237C210.881 303.237 210.429 303.358 210.067 303.601C209.705 303.84 209.524 304.149 209.524 304.528C209.524 304.856 209.645 305.12 209.888 305.321C210.131 305.521 210.523 305.685 211.064 305.813L212.624 306.171C213.527 306.38 214.201 306.701 214.644 307.136C215.087 307.571 215.309 308.135 215.309 308.83C215.309 309.418 215.138 309.942 214.797 310.402C214.461 310.858 213.99 311.216 213.385 311.476C212.784 311.736 212.087 311.866 211.294 311.866C210.195 311.866 209.298 311.632 208.603 311.163C207.909 310.69 207.483 310.019 207.325 309.15L209.172 308.868C209.287 309.35 209.524 309.714 209.882 309.961C210.24 310.204 210.706 310.326 211.282 310.326C211.908 310.326 212.409 310.196 212.784 309.936C213.159 309.672 213.346 309.35 213.346 308.971C213.346 308.664 213.231 308.406 213.001 308.197C212.775 307.988 212.428 307.831 211.959 307.724L210.297 307.36C209.381 307.151 208.703 306.819 208.265 306.363C207.83 305.907 207.613 305.329 207.613 304.63C207.613 304.051 207.775 303.544 208.098 303.109C208.422 302.674 208.87 302.336 209.441 302.093C210.012 301.846 210.666 301.722 211.403 301.722C212.464 301.722 213.299 301.952 213.909 302.412C214.518 302.868 214.921 303.48 215.117 304.247ZM221.462 311.866C220.494 311.866 219.661 311.659 218.962 311.246C218.268 310.828 217.731 310.243 217.351 309.488C216.976 308.73 216.789 307.841 216.789 306.823C216.789 305.817 216.976 304.931 217.351 304.164C217.731 303.397 218.259 302.798 218.937 302.368C219.618 301.937 220.415 301.722 221.327 301.722C221.881 301.722 222.418 301.814 222.938 301.997C223.458 302.18 223.925 302.468 224.338 302.86C224.751 303.252 225.077 303.761 225.316 304.387C225.555 305.01 225.674 305.766 225.674 306.657V307.334H217.869V305.902H223.801C223.801 305.4 223.699 304.954 223.494 304.566C223.29 304.174 223.002 303.865 222.631 303.64C222.265 303.414 221.834 303.301 221.34 303.301C220.803 303.301 220.334 303.433 219.934 303.697C219.538 303.957 219.231 304.298 219.013 304.72C218.8 305.137 218.694 305.591 218.694 306.081V307.2C218.694 307.856 218.809 308.414 219.039 308.875C219.273 309.335 219.599 309.686 220.017 309.929C220.435 310.168 220.922 310.287 221.481 310.287C221.843 310.287 222.173 310.236 222.471 310.134C222.77 310.027 223.028 309.87 223.245 309.661C223.462 309.452 223.628 309.194 223.743 308.887L225.552 309.213C225.408 309.746 225.148 310.213 224.773 310.613C224.402 311.01 223.935 311.319 223.373 311.54C222.815 311.757 222.177 311.866 221.462 311.866Z" fill="white"/>
<path d="M147.788 355.518V342.427H152.454C153.468 342.427 154.31 342.601 154.979 342.951C155.652 343.3 156.155 343.784 156.488 344.402C156.82 345.015 156.986 345.725 156.986 346.53C156.986 347.331 156.818 348.037 156.481 348.646C156.149 349.251 155.646 349.722 154.973 350.059C154.304 350.395 153.462 350.564 152.448 350.564H148.913V348.863H152.269C152.908 348.863 153.428 348.772 153.829 348.589C154.233 348.405 154.53 348.139 154.717 347.79C154.905 347.44 154.998 347.02 154.998 346.53C154.998 346.036 154.902 345.608 154.711 345.246C154.523 344.883 154.227 344.606 153.822 344.415C153.422 344.219 152.895 344.121 152.243 344.121H149.763V355.518H147.788ZM154.25 349.611L157.485 355.518H155.235L152.064 349.611H154.25ZM163.165 355.716C162.197 355.716 161.364 355.509 160.665 355.096C159.971 354.678 159.434 354.092 159.055 353.338C158.68 352.579 158.492 351.691 158.492 350.672C158.492 349.667 158.68 348.78 159.055 348.013C159.434 347.246 159.962 346.648 160.64 346.217C161.322 345.787 162.119 345.572 163.031 345.572C163.584 345.572 164.121 345.663 164.641 345.846C165.161 346.03 165.628 346.317 166.041 346.709C166.455 347.101 166.781 347.611 167.019 348.237C167.258 348.859 167.377 349.616 167.377 350.506V351.184H159.572V349.752H165.504C165.504 349.249 165.402 348.804 165.197 348.416C164.993 348.024 164.705 347.715 164.334 347.489C163.968 347.263 163.538 347.15 163.043 347.15C162.506 347.15 162.038 347.282 161.637 347.547C161.241 347.807 160.934 348.148 160.717 348.569C160.504 348.987 160.397 349.441 160.397 349.931V351.05C160.397 351.706 160.512 352.264 160.742 352.724C160.977 353.184 161.303 353.536 161.72 353.779C162.138 354.018 162.626 354.137 163.184 354.137C163.546 354.137 163.876 354.086 164.175 353.983C164.473 353.877 164.731 353.719 164.948 353.51C165.165 353.302 165.332 353.044 165.447 352.737L167.256 353.063C167.111 353.596 166.851 354.062 166.476 354.463C166.105 354.859 165.638 355.168 165.076 355.39C164.518 355.607 163.881 355.716 163.165 355.716ZM173.901 345.699V347.233H168.538V345.699H173.901ZM169.976 343.347H171.887V352.635C171.887 353.006 171.943 353.285 172.053 353.472C172.164 353.655 172.307 353.781 172.482 353.849C172.661 353.913 172.855 353.945 173.063 353.945C173.217 353.945 173.351 353.934 173.466 353.913C173.581 353.892 173.671 353.875 173.735 353.862L174.08 355.441C173.969 355.483 173.811 355.526 173.607 355.569C173.402 355.616 173.146 355.641 172.84 355.645C172.337 355.654 171.868 355.564 171.433 355.377C170.999 355.189 170.647 354.9 170.379 354.508C170.11 354.116 169.976 353.623 169.976 353.031V343.347ZM179.961 355.716C178.994 355.716 178.161 355.509 177.462 355.096C176.767 354.678 176.23 354.092 175.851 353.338C175.476 352.579 175.288 351.691 175.288 350.672C175.288 349.667 175.476 348.78 175.851 348.013C176.23 347.246 176.759 346.648 177.436 346.217C178.118 345.787 178.915 345.572 179.827 345.572C180.381 345.572 180.918 345.663 181.438 345.846C181.957 346.03 182.424 346.317 182.837 346.709C183.251 347.101 183.577 347.611 183.815 348.237C184.054 348.859 184.173 349.616 184.173 350.506V351.184H176.369V349.752H182.3C182.3 349.249 182.198 348.804 181.994 348.416C181.789 348.024 181.501 347.715 181.131 347.489C180.764 347.263 180.334 347.15 179.84 347.15C179.303 347.15 178.834 347.282 178.433 347.547C178.037 347.807 177.73 348.148 177.513 348.569C177.3 348.987 177.193 349.441 177.193 349.931V351.05C177.193 351.706 177.308 352.264 177.538 352.724C177.773 353.184 178.099 353.536 178.516 353.779C178.934 354.018 179.422 354.137 179.98 354.137C180.342 354.137 180.673 354.086 180.971 353.983C181.269 353.877 181.527 353.719 181.744 353.51C181.962 353.302 182.128 353.044 182.243 352.737L184.052 353.063C183.907 353.596 183.647 354.062 183.272 354.463C182.901 354.859 182.435 355.168 181.872 355.39C181.314 355.607 180.677 355.716 179.961 355.716ZM188.025 349.688V355.518H186.114V345.699H187.948V347.297H188.07C188.296 346.778 188.649 346.36 189.131 346.045C189.617 345.729 190.228 345.572 190.965 345.572C191.634 345.572 192.22 345.712 192.723 345.993C193.226 346.27 193.616 346.684 193.893 347.233C194.17 347.783 194.309 348.463 194.309 349.273V355.518H192.397V349.503C192.397 348.791 192.212 348.235 191.841 347.834C191.47 347.43 190.961 347.227 190.313 347.227C189.87 347.227 189.476 347.323 189.131 347.515C188.79 347.706 188.519 347.988 188.319 348.358C188.123 348.725 188.025 349.168 188.025 349.688ZM201.275 345.699V347.233H195.912V345.699H201.275ZM197.35 343.347H199.261V352.635C199.261 353.006 199.317 353.285 199.428 353.472C199.538 353.655 199.681 353.781 199.856 353.849C200.035 353.913 200.229 353.945 200.437 353.945C200.591 353.945 200.725 353.934 200.84 353.913C200.955 353.892 201.045 353.875 201.109 353.862L201.454 355.441C201.343 355.483 201.185 355.526 200.981 355.569C200.776 355.616 200.521 355.641 200.214 355.645C199.711 355.654 199.242 355.564 198.807 355.377C198.373 355.189 198.021 354.9 197.753 354.508C197.484 354.116 197.35 353.623 197.35 353.031V343.347ZM203.209 355.518V345.699H205.12V355.518H203.209ZM204.174 344.184C203.842 344.184 203.556 344.074 203.318 343.852C203.083 343.626 202.966 343.358 202.966 343.047C202.966 342.731 203.083 342.463 203.318 342.241C203.556 342.015 203.842 341.903 204.174 341.903C204.507 341.903 204.79 342.015 205.024 342.241C205.263 342.463 205.382 342.731 205.382 343.047C205.382 343.358 205.263 343.626 205.024 343.852C204.79 344.074 204.507 344.184 204.174 344.184ZM211.647 355.716C210.727 355.716 209.923 355.505 209.237 355.083C208.551 354.661 208.019 354.071 207.639 353.312C207.26 352.554 207.07 351.667 207.07 350.653C207.07 349.635 207.26 348.744 207.639 347.981C208.019 347.219 208.551 346.626 209.237 346.204C209.923 345.782 210.727 345.572 211.647 345.572C212.568 345.572 213.371 345.782 214.057 346.204C214.743 346.626 215.276 347.219 215.655 347.981C216.034 348.744 216.224 349.635 216.224 350.653C216.224 351.667 216.034 352.554 215.655 353.312C215.276 354.071 214.743 354.661 214.057 355.083C213.371 355.505 212.568 355.716 211.647 355.716ZM211.653 354.111C212.25 354.111 212.744 353.954 213.136 353.638C213.528 353.323 213.818 352.903 214.006 352.379C214.197 351.855 214.293 351.278 214.293 350.647C214.293 350.02 214.197 349.445 214.006 348.921C213.818 348.393 213.528 347.969 213.136 347.649C212.744 347.329 212.25 347.17 211.653 347.17C211.053 347.17 210.554 347.329 210.158 347.649C209.766 347.969 209.474 348.393 209.282 348.921C209.095 349.445 209.001 350.02 209.001 350.647C209.001 351.278 209.095 351.855 209.282 352.379C209.474 352.903 209.766 353.323 210.158 353.638C210.554 353.954 211.053 354.111 211.653 354.111ZM220.088 349.688V355.518H218.177V345.699H220.012V347.297H220.133C220.359 346.778 220.713 346.36 221.194 346.045C221.68 345.729 222.291 345.572 223.029 345.572C223.698 345.572 224.284 345.712 224.786 345.993C225.289 346.27 225.679 346.684 225.956 347.233C226.233 347.783 226.372 348.463 226.372 349.273V355.518H224.46V349.503C224.46 348.791 224.275 348.235 223.904 347.834C223.534 347.43 223.024 347.227 222.377 347.227C221.933 347.227 221.539 347.323 221.194 347.515C220.853 347.706 220.583 347.988 220.382 348.358C220.186 348.725 220.088 349.168 220.088 349.688Z" fill="white"/>
<rect y="149" width="374" height="2" fill="white"/>
<rect y="197" width="374" height="2" fill="white"/>
<rect y="240" width="374" height="2" fill="white"/>
<rect y="283" width="374" height="2" fill="white"/>
<rect y="326" width="374" height="2" fill="white"/>
<rect width="374" height="94" rx="8" fill="#23A6F0"/>
<path d="M32.9468 53L28.1059 35.5455H30.8758L34.2763 49.0625H34.4383L37.9752 35.5455H40.7195L44.2564 49.071H44.4184L47.8104 35.5455H50.5888L45.7394 53H43.0888L39.4155 39.9261H39.2792L35.6059 53H32.9468ZM56.8985 53.2642C55.6088 53.2642 54.498 52.9886 53.5662 52.4375C52.64 51.8807 51.9241 51.0994 51.4184 50.0938C50.9184 49.0824 50.6684 47.8977 50.6684 46.5398C50.6684 45.1989 50.9184 44.017 51.4184 42.9943C51.9241 41.9716 52.6287 41.1733 53.5321 40.5994C54.4412 40.0256 55.5037 39.7386 56.7196 39.7386C57.4582 39.7386 58.1741 39.8608 58.8673 40.1051C59.5605 40.3494 60.1826 40.733 60.7338 41.2557C61.2849 41.7784 61.7196 42.4574 62.0378 43.2926C62.3559 44.1222 62.515 45.1307 62.515 46.3182V47.2216H52.1088V45.3125H60.0179C60.0179 44.642 59.8815 44.0483 59.6088 43.5312C59.336 43.0085 58.9525 42.5966 58.4582 42.2955C57.9696 41.9943 57.3957 41.8438 56.7366 41.8438C56.0207 41.8438 55.3957 42.0199 54.8616 42.3722C54.3332 42.7187 53.9241 43.1733 53.6343 43.7358C53.3503 44.2926 53.2082 44.8977 53.2082 45.5511V47.0426C53.2082 47.9176 53.3616 48.6619 53.6684 49.2756C53.9809 49.8892 54.4156 50.358 54.9724 50.6818C55.5292 51 56.1798 51.1591 56.9241 51.1591C57.4071 51.1591 57.8474 51.0909 58.2451 50.9545C58.6429 50.8125 58.9866 50.6023 59.2764 50.3239C59.5662 50.0455 59.7878 49.7017 59.9412 49.2926L62.3531 49.7273C62.1599 50.4375 61.8133 51.0597 61.3133 51.5938C60.819 52.1222 60.1968 52.5341 59.4468 52.8295C58.7025 53.1193 57.8531 53.2642 56.8985 53.2642ZM65.307 53V35.5455H67.8553V42.0312H68.0087C68.1564 41.7585 68.3695 41.4432 68.6479 41.0852C68.9263 40.7273 69.3127 40.4148 69.807 40.1477C70.3013 39.875 70.9547 39.7386 71.7672 39.7386C72.824 39.7386 73.7672 40.0057 74.5968 40.5398C75.4263 41.0739 76.0769 41.8437 76.5485 42.8494C77.0257 43.8551 77.2644 45.0653 77.2644 46.4801C77.2644 47.8949 77.0286 49.108 76.557 50.1193C76.0854 51.125 75.4377 51.9006 74.6138 52.446C73.7899 52.9858 72.8496 53.2557 71.7928 53.2557C70.9973 53.2557 70.3468 53.1222 69.8411 52.8551C69.3411 52.5881 68.949 52.2756 68.6649 51.9176C68.3808 51.5597 68.1621 51.2415 68.0087 50.9631H67.7956V53H65.307ZM67.8041 46.4545C67.8041 47.375 67.9377 48.1818 68.2047 48.875C68.4718 49.5682 68.8581 50.1108 69.3638 50.5028C69.8695 50.8892 70.4888 51.0824 71.2218 51.0824C71.9831 51.0824 72.6195 50.8807 73.1308 50.4773C73.6422 50.0682 74.0286 49.5142 74.2899 48.8153C74.557 48.1165 74.6905 47.3295 74.6905 46.4545C74.6905 45.5909 74.5598 44.8153 74.2985 44.1278C74.0428 43.4403 73.6564 42.8977 73.1394 42.5C72.628 42.1023 71.9888 41.9034 71.2218 41.9034C70.4831 41.9034 69.8581 42.0937 69.3468 42.4744C68.8411 42.8551 68.4576 43.3864 68.1962 44.0682C67.9348 44.75 67.8041 45.5455 67.8041 46.4545ZM89.6955 43.1051L87.3859 43.5142C87.2893 43.2187 87.1359 42.9375 86.9256 42.6705C86.7211 42.4034 86.4427 42.1847 86.0904 42.0142C85.7381 41.8437 85.2978 41.7585 84.7694 41.7585C84.0478 41.7585 83.4455 41.9205 82.9626 42.2443C82.4796 42.5625 82.2381 42.9744 82.2381 43.4801C82.2381 43.9176 82.4001 44.2699 82.7239 44.5369C83.0478 44.804 83.5705 45.0227 84.2921 45.1932L86.3717 45.6705C87.5762 45.9489 88.4739 46.3778 89.0649 46.9574C89.6558 47.5369 89.9512 48.2898 89.9512 49.2159C89.9512 50 89.7239 50.6989 89.2694 51.3125C88.8205 51.9205 88.1927 52.3977 87.3859 52.7443C86.5847 53.0909 85.6558 53.2642 84.5989 53.2642C83.133 53.2642 81.937 52.9517 81.0109 52.3267C80.0847 51.696 79.5166 50.8011 79.3063 49.642L81.7694 49.267C81.9228 49.9091 82.2381 50.3949 82.7154 50.7244C83.1927 51.0483 83.8149 51.2102 84.5819 51.2102C85.4171 51.2102 86.0847 51.0369 86.5847 50.6903C87.0847 50.3381 87.3347 49.9091 87.3347 49.4034C87.3347 48.9943 87.1813 48.6506 86.8745 48.3722C86.5734 48.0937 86.1103 47.8835 85.4853 47.7415L83.2694 47.2557C82.0478 46.9773 81.1444 46.5341 80.5592 45.9261C79.9796 45.3182 79.6899 44.5483 79.6899 43.6165C79.6899 42.8437 79.9058 42.1676 80.3376 41.5881C80.7694 41.0085 81.366 40.5568 82.1274 40.233C82.8887 39.9034 83.7609 39.7386 84.7438 39.7386C86.1586 39.7386 87.2722 40.0455 88.0847 40.6591C88.8972 41.267 89.4342 42.0824 89.6955 43.1051ZM92.5131 53V39.9091H95.0614V53H92.5131ZM93.8 37.8892C93.3568 37.8892 92.9761 37.7415 92.6579 37.446C92.3454 37.1449 92.1892 36.7869 92.1892 36.3722C92.1892 35.9517 92.3454 35.5937 92.6579 35.2983C92.9761 34.9972 93.3568 34.8466 93.8 34.8466C94.2432 34.8466 94.621 34.9972 94.9335 35.2983C95.2517 35.5937 95.4108 35.9517 95.4108 36.3722C95.4108 36.7869 95.2517 37.1449 94.9335 37.446C94.621 37.7415 94.2432 37.8892 93.8 37.8892ZM104.36 39.9091V41.9545H97.2099V39.9091H104.36ZM99.1275 36.7727H101.676V49.1562C101.676 49.6506 101.75 50.0227 101.897 50.2727C102.045 50.517 102.235 50.6847 102.468 50.7756C102.707 50.8608 102.966 50.9034 103.244 50.9034C103.448 50.9034 103.627 50.8892 103.781 50.8608C103.934 50.8324 104.054 50.8097 104.139 50.7926L104.599 52.8977C104.451 52.9545 104.241 53.0114 103.968 53.0682C103.696 53.1307 103.355 53.1648 102.946 53.1705C102.275 53.1818 101.65 53.0625 101.071 52.8125C100.491 52.5625 100.022 52.1761 99.6644 51.6534C99.3064 51.1307 99.1275 50.4744 99.1275 49.6847V36.7727ZM112.441 53.2642C111.151 53.2642 110.04 52.9886 109.108 52.4375C108.182 51.8807 107.466 51.0994 106.961 50.0938C106.461 49.0824 106.211 47.8977 106.211 46.5398C106.211 45.1989 106.461 44.017 106.961 42.9943C107.466 41.9716 108.171 41.1733 109.074 40.5994C109.983 40.0256 111.046 39.7386 112.262 39.7386C113 39.7386 113.716 39.8608 114.409 40.1051C115.103 40.3494 115.725 40.733 116.276 41.2557C116.827 41.7784 117.262 42.4574 117.58 43.2926C117.898 44.1222 118.057 45.1307 118.057 46.3182V47.2216H107.651V45.3125H115.56C115.56 44.642 115.424 44.0483 115.151 43.5312C114.878 43.0085 114.495 42.5966 114 42.2955C113.512 41.9943 112.938 41.8438 112.279 41.8438C111.563 41.8438 110.938 42.0199 110.404 42.3722C109.875 42.7187 109.466 43.1733 109.177 43.7358C108.892 44.2926 108.75 44.8977 108.75 45.5511V47.0426C108.75 47.9176 108.904 48.6619 109.211 49.2756C109.523 49.8892 109.958 50.358 110.515 50.6818C111.071 51 111.722 51.1591 112.466 51.1591C112.949 51.1591 113.39 51.0909 113.787 50.9545C114.185 50.8125 114.529 50.6023 114.819 50.3239C115.108 50.0455 115.33 49.7017 115.483 49.2926L117.895 49.7273C117.702 50.4375 117.356 51.0597 116.856 51.5938C116.361 52.1222 115.739 52.5341 114.989 52.8295C114.245 53.1193 113.395 53.2642 112.441 53.2642ZM126.961 35.5455H130.157L135.714 49.1136H135.918L141.475 35.5455H144.671V53H142.165V40.3693H142.003L136.856 52.9744H134.776L129.628 40.3608H129.466V53H126.961V35.5455ZM159.484 35.5455H162.126V47.0256C162.126 48.2472 161.839 49.3295 161.265 50.2727C160.692 51.2102 159.885 51.9489 158.845 52.4886C157.805 53.0227 156.586 53.2898 155.189 53.2898C153.797 53.2898 152.581 53.0227 151.541 52.4886C150.501 51.9489 149.694 51.2102 149.121 50.2727C148.547 49.3295 148.26 48.2472 148.26 47.0256V35.5455H150.893V46.8125C150.893 47.6023 151.067 48.304 151.413 48.9176C151.765 49.5312 152.263 50.0142 152.905 50.3665C153.547 50.7131 154.308 50.8864 155.189 50.8864C156.075 50.8864 156.839 50.7131 157.481 50.3665C158.129 50.0142 158.623 49.5312 158.964 48.9176C159.311 48.304 159.484 47.6023 159.484 46.8125V35.5455ZM175.235 40.1307C175.144 39.3239 174.769 38.6989 174.11 38.2557C173.451 37.8068 172.621 37.5824 171.621 37.5824C170.905 37.5824 170.286 37.696 169.763 37.9233C169.241 38.1449 168.834 38.4517 168.545 38.8438C168.261 39.2301 168.119 39.6705 168.119 40.1648C168.119 40.5795 168.215 40.9375 168.408 41.2386C168.607 41.5398 168.866 41.7926 169.184 41.9972C169.508 42.196 169.854 42.3636 170.224 42.5C170.593 42.6307 170.948 42.7386 171.289 42.8239L172.994 43.267C173.55 43.4034 174.121 43.5881 174.707 43.821C175.292 44.054 175.834 44.3608 176.334 44.7415C176.834 45.1222 177.238 45.5938 177.545 46.1562C177.857 46.7188 178.013 47.392 178.013 48.1761C178.013 49.1648 177.758 50.0426 177.246 50.8097C176.741 51.5767 176.005 52.1818 175.039 52.625C174.079 53.0682 172.917 53.2898 171.553 53.2898C170.246 53.2898 169.116 53.0824 168.161 52.6676C167.207 52.2528 166.459 51.6648 165.92 50.9034C165.38 50.1364 165.082 49.2273 165.025 48.1761H167.667C167.718 48.8068 167.923 49.3324 168.28 49.7528C168.644 50.1676 169.107 50.4773 169.67 50.6818C170.238 50.8807 170.86 50.9801 171.536 50.9801C172.28 50.9801 172.942 50.8636 173.522 50.6307C174.107 50.392 174.567 50.0625 174.903 49.642C175.238 49.2159 175.405 48.7187 175.405 48.1506C175.405 47.6335 175.258 47.2102 174.962 46.8807C174.673 46.5511 174.278 46.2784 173.778 46.0625C173.283 45.8466 172.724 45.6562 172.099 45.4915L170.036 44.929C168.638 44.5483 167.53 43.9886 166.712 43.25C165.9 42.5114 165.494 41.5341 165.494 40.3182C165.494 39.3125 165.766 38.4347 166.312 37.6847C166.857 36.9347 167.596 36.3523 168.528 35.9375C169.459 35.517 170.511 35.3068 171.681 35.3068C172.863 35.3068 173.905 35.5142 174.809 35.929C175.718 36.3438 176.434 36.9148 176.957 37.642C177.479 38.3636 177.752 39.1932 177.775 40.1307H175.235ZM180.06 37.8125V35.5455H193.568V37.8125H188.122V53H185.497V37.8125H180.06ZM202.425 53V35.5455H205.058V43.1307H213.76V35.5455H216.402V53H213.76V45.3892H205.058V53H202.425ZM221.472 53H218.676L224.958 35.5455H228L234.281 53H231.486L226.551 38.7159H226.415L221.472 53ZM221.94 46.1648H231.009V48.3807H221.94V46.1648ZM236.259 35.5455L241.117 49.7614H241.313L246.171 35.5455H249.018L242.737 53H239.694L233.413 35.5455H236.259ZM251.299 53V35.5455H262.242V37.8125H253.932V43.1307H261.671V45.3892H253.932V50.733H262.344V53H251.299ZM277.069 53.2642C275.779 53.2642 274.668 52.9886 273.736 52.4375C272.81 51.8807 272.094 51.0994 271.588 50.0938C271.088 49.0824 270.838 47.8977 270.838 46.5398C270.838 45.1989 271.088 44.017 271.588 42.9943C272.094 41.9716 272.799 41.1733 273.702 40.5994C274.611 40.0256 275.674 39.7386 276.89 39.7386C277.628 39.7386 278.344 39.8608 279.037 40.1051C279.73 40.3494 280.353 40.733 280.904 41.2557C281.455 41.7784 281.89 42.4574 282.208 43.2926C282.526 44.1222 282.685 45.1307 282.685 46.3182V47.2216H272.279V45.3125H280.188C280.188 44.642 280.052 44.0483 279.779 43.5312C279.506 43.0085 279.123 42.5966 278.628 42.2955C278.14 41.9943 277.566 41.8438 276.907 41.8438C276.191 41.8438 275.566 42.0199 275.032 42.3722C274.503 42.7187 274.094 43.1733 273.804 43.7358C273.52 44.2926 273.378 44.8977 273.378 45.5511V47.0426C273.378 47.9176 273.532 48.6619 273.838 49.2756C274.151 49.8892 274.586 50.358 275.142 50.6818C275.699 51 276.35 51.1591 277.094 51.1591C277.577 51.1591 278.017 51.0909 278.415 50.9545C278.813 50.8125 279.157 50.6023 279.446 50.3239C279.736 50.0455 279.958 49.7017 280.111 49.2926L282.523 49.7273C282.33 50.4375 281.983 51.0597 281.483 51.5938C280.989 52.1222 280.367 52.5341 279.617 52.8295C278.873 53.1193 278.023 53.2642 277.069 53.2642ZM296.096 39.9091L291.349 53H288.622L283.866 39.9091H286.602L289.917 49.983H290.054L293.361 39.9091H296.096ZM303.448 53.2642C302.158 53.2642 301.047 52.9886 300.116 52.4375C299.189 51.8807 298.474 51.0994 297.968 50.0938C297.468 49.0824 297.218 47.8977 297.218 46.5398C297.218 45.1989 297.468 44.017 297.968 42.9943C298.474 41.9716 299.178 41.1733 300.081 40.5994C300.991 40.0256 302.053 39.7386 303.269 39.7386C304.008 39.7386 304.724 39.8608 305.417 40.1051C306.11 40.3494 306.732 40.733 307.283 41.2557C307.834 41.7784 308.269 42.4574 308.587 43.2926C308.905 44.1222 309.064 45.1307 309.064 46.3182V47.2216H298.658V45.3125H306.567C306.567 44.642 306.431 44.0483 306.158 43.5312C305.885 43.0085 305.502 42.5966 305.008 42.2955C304.519 41.9943 303.945 41.8438 303.286 41.8438C302.57 41.8438 301.945 42.0199 301.411 42.3722C300.883 42.7187 300.474 43.1733 300.184 43.7358C299.9 44.2926 299.758 44.8977 299.758 45.5511V47.0426C299.758 47.9176 299.911 48.6619 300.218 49.2756C300.53 49.8892 300.965 50.358 301.522 50.6818C302.079 51 302.729 51.1591 303.474 51.1591C303.956 51.1591 304.397 51.0909 304.795 50.9545C305.192 50.8125 305.536 50.6023 305.826 50.3239C306.116 50.0455 306.337 49.7017 306.491 49.2926L308.902 49.7273C308.709 50.4375 308.363 51.0597 307.863 51.5938C307.368 52.1222 306.746 52.5341 305.996 52.8295C305.252 53.1193 304.402 53.2642 303.448 53.2642ZM314.2 45.2273V53H311.652V39.9091H314.098V42.0398H314.26C314.561 41.3466 315.032 40.7898 315.675 40.3693C316.322 39.9489 317.138 39.7386 318.121 39.7386C319.013 39.7386 319.794 39.9261 320.464 40.3011C321.135 40.6705 321.655 41.2216 322.024 41.9545C322.393 42.6875 322.578 43.5937 322.578 44.6733V53H320.03V44.9801C320.03 44.0312 319.782 43.2898 319.288 42.7557C318.794 42.2159 318.115 41.946 317.251 41.946C316.66 41.946 316.135 42.0739 315.675 42.3295C315.22 42.5852 314.859 42.9602 314.592 43.4545C314.331 43.9432 314.2 44.5341 314.2 45.2273ZM331.866 39.9091V41.9545H324.716V39.9091H331.866ZM326.633 36.7727H329.182V49.1562C329.182 49.6506 329.256 50.0227 329.403 50.2727C329.551 50.517 329.741 50.6847 329.974 50.7756C330.213 50.8608 330.471 50.9034 330.75 50.9034C330.954 50.9034 331.133 50.8892 331.287 50.8608C331.44 50.8324 331.56 50.8097 331.645 50.7926L332.105 52.8977C331.957 52.9545 331.747 53.0114 331.474 53.0682C331.202 53.1307 330.861 53.1648 330.452 53.1705C329.781 53.1818 329.156 53.0625 328.577 52.8125C327.997 52.5625 327.528 52.1761 327.17 51.6534C326.812 51.1307 326.633 50.4744 326.633 49.6847V36.7727ZM344.044 43.1051L341.734 43.5142C341.638 43.2187 341.484 42.9375 341.274 42.6705C341.07 42.4034 340.791 42.1847 340.439 42.0142C340.087 41.8437 339.646 41.7585 339.118 41.7585C338.396 41.7585 337.794 41.9205 337.311 42.2443C336.828 42.5625 336.587 42.9744 336.587 43.4801C336.587 43.9176 336.749 44.2699 337.072 44.5369C337.396 44.804 337.919 45.0227 338.641 45.1932L340.72 45.6705C341.925 45.9489 342.822 46.3778 343.413 46.9574C344.004 47.5369 344.3 48.2898 344.3 49.2159C344.3 50 344.072 50.6989 343.618 51.3125C343.169 51.9205 342.541 52.3977 341.734 52.7443C340.933 53.0909 340.004 53.2642 338.947 53.2642C337.481 53.2642 336.285 52.9517 335.359 52.3267C334.433 51.696 333.865 50.8011 333.655 49.642L336.118 49.267C336.271 49.9091 336.587 50.3949 337.064 50.7244C337.541 51.0483 338.163 51.2102 338.93 51.2102C339.766 51.2102 340.433 51.0369 340.933 50.6903C341.433 50.3381 341.683 49.9091 341.683 49.4034C341.683 48.9943 341.53 48.6506 341.223 48.3722C340.922 48.0937 340.459 47.8835 339.834 47.7415L337.618 47.2557C336.396 46.9773 335.493 46.5341 334.908 45.9261C334.328 45.3182 334.038 44.5483 334.038 43.6165C334.038 42.8437 334.254 42.1676 334.686 41.5881C335.118 41.0085 335.714 40.5568 336.476 40.233C337.237 39.9034 338.109 39.7386 339.092 39.7386C340.507 39.7386 341.621 40.0455 342.433 40.6591C343.246 41.267 343.783 42.0824 344.044 43.1051Z" fill="white"/>
</svg>
