<svg width="374" height="524" viewBox="0 0 374 524" fill="none" xmlns="http://www.w3.org/2000/svg">
<path d="M0 0H374L291.326 272H91.5316L0 0Z" fill="#FEA30C"/>
<path d="M159.192 160.927C159.192 162.325 158.936 163.527 158.425 164.532C157.913 165.534 157.212 166.305 156.322 166.846C155.435 167.383 154.427 167.652 153.298 167.652C152.165 167.652 151.153 167.383 150.262 166.846C149.376 166.305 148.677 165.532 148.165 164.526C147.654 163.52 147.398 162.321 147.398 160.927C147.398 159.529 147.654 158.33 148.165 157.328C148.677 156.323 149.376 155.551 150.262 155.015C151.153 154.473 152.165 154.203 153.298 154.203C154.427 154.203 155.435 154.473 156.322 155.015C157.212 155.551 157.913 156.323 158.425 157.328C158.936 158.33 159.192 159.529 159.192 160.927ZM157.236 160.927C157.236 159.862 157.063 158.965 156.718 158.236C156.377 157.503 155.908 156.949 155.312 156.574C154.719 156.195 154.048 156.005 153.298 156.005C152.544 156.005 151.871 156.195 151.278 156.574C150.686 156.949 150.217 157.503 149.872 158.236C149.531 158.965 149.361 159.862 149.361 160.927C149.361 161.993 149.531 162.892 149.872 163.625C150.217 164.353 150.686 164.907 151.278 165.287C151.871 165.662 152.544 165.849 153.298 165.849C154.048 165.849 154.719 165.662 155.312 165.287C155.908 164.907 156.377 164.353 156.718 163.625C157.063 162.892 157.236 161.993 157.236 160.927ZM161.321 171.154V157.654H163.187V159.246H163.347C163.458 159.042 163.618 158.805 163.826 158.537C164.035 158.268 164.325 158.034 164.696 157.833C165.066 157.629 165.557 157.527 166.166 157.527C166.959 157.527 167.666 157.727 168.288 158.127C168.91 158.528 169.398 159.105 169.752 159.86C170.11 160.614 170.289 161.522 170.289 162.583C170.289 163.644 170.112 164.554 169.758 165.312C169.405 166.066 168.919 166.648 168.301 167.057C167.683 167.462 166.978 167.664 166.185 167.664C165.588 167.664 165.101 167.564 164.721 167.364C164.346 167.164 164.052 166.929 163.839 166.661C163.626 166.392 163.462 166.154 163.347 165.945H163.232V171.154H161.321ZM163.194 162.564C163.194 163.254 163.294 163.859 163.494 164.379C163.694 164.899 163.984 165.306 164.363 165.6C164.743 165.89 165.207 166.034 165.757 166.034C166.328 166.034 166.805 165.883 167.189 165.581C167.572 165.274 167.862 164.858 168.058 164.334C168.258 163.81 168.358 163.22 168.358 162.564C168.358 161.916 168.26 161.334 168.064 160.819C167.873 160.303 167.583 159.896 167.195 159.598C166.812 159.299 166.332 159.15 165.757 159.15C165.203 159.15 164.734 159.293 164.351 159.578C163.971 159.864 163.684 160.262 163.488 160.774C163.292 161.285 163.194 161.882 163.194 162.564ZM176.482 167.671C175.514 167.671 174.681 167.464 173.982 167.051C173.288 166.633 172.751 166.047 172.372 165.293C171.997 164.534 171.809 163.646 171.809 162.627C171.809 161.622 171.997 160.735 172.372 159.968C172.751 159.201 173.279 158.603 173.957 158.172C174.639 157.742 175.435 157.527 176.347 157.527C176.901 157.527 177.438 157.618 177.958 157.801C178.478 157.985 178.945 158.272 179.358 158.664C179.771 159.056 180.097 159.566 180.336 160.192C180.575 160.814 180.694 161.571 180.694 162.461V163.139H172.889V161.707H178.821C178.821 161.204 178.719 160.759 178.514 160.371C178.31 159.979 178.022 159.67 177.651 159.444C177.285 159.218 176.855 159.105 176.36 159.105C175.823 159.105 175.355 159.238 174.954 159.502C174.558 159.762 174.251 160.103 174.033 160.525C173.82 160.942 173.714 161.396 173.714 161.886V163.005C173.714 163.661 173.829 164.219 174.059 164.679C174.293 165.14 174.619 165.491 175.037 165.734C175.455 165.973 175.943 166.092 176.501 166.092C176.863 166.092 177.193 166.041 177.492 165.939C177.79 165.832 178.048 165.674 178.265 165.466C178.482 165.257 178.649 164.999 178.764 164.692L180.573 165.018C180.428 165.551 180.168 166.017 179.793 166.418C179.422 166.814 178.955 167.123 178.393 167.345C177.835 167.562 177.198 167.671 176.482 167.671ZM184.546 161.643V167.473H182.635V157.654H184.469V159.252H184.591C184.816 158.733 185.17 158.315 185.652 158C186.137 157.684 186.749 157.527 187.486 157.527C188.155 157.527 188.741 157.667 189.244 157.949C189.747 158.225 190.137 158.639 190.414 159.189C190.691 159.738 190.829 160.418 190.829 161.228V167.473H188.918V161.458C188.918 160.746 188.733 160.19 188.362 159.789C187.991 159.385 187.482 159.182 186.834 159.182C186.391 159.182 185.997 159.278 185.652 159.47C185.311 159.662 185.04 159.943 184.84 160.314C184.644 160.68 184.546 161.123 184.546 161.643ZM200.653 167.69C200.031 167.69 199.469 167.575 198.966 167.345C198.463 167.11 198.065 166.772 197.77 166.328C197.481 165.885 197.336 165.342 197.336 164.699C197.336 164.145 197.442 163.689 197.655 163.331C197.868 162.973 198.156 162.689 198.518 162.48C198.881 162.272 199.285 162.114 199.733 162.007C200.18 161.901 200.636 161.82 201.101 161.765C201.689 161.696 202.166 161.641 202.533 161.598C202.899 161.551 203.165 161.477 203.332 161.375C203.498 161.272 203.581 161.106 203.581 160.876V160.831C203.581 160.273 203.423 159.841 203.108 159.534C202.797 159.227 202.332 159.074 201.714 159.074C201.071 159.074 200.564 159.216 200.193 159.502C199.827 159.783 199.573 160.096 199.432 160.441L197.636 160.032C197.849 159.436 198.16 158.954 198.569 158.588C198.983 158.217 199.458 157.949 199.995 157.782C200.532 157.612 201.096 157.527 201.689 157.527C202.081 157.527 202.496 157.574 202.935 157.667C203.378 157.757 203.792 157.923 204.175 158.166C204.563 158.409 204.881 158.756 205.128 159.208C205.375 159.655 205.498 160.237 205.498 160.953V167.473H203.632V166.13H203.555C203.432 166.377 203.246 166.62 202.999 166.859C202.752 167.098 202.435 167.296 202.047 167.453C201.659 167.611 201.194 167.69 200.653 167.69ZM201.069 166.156C201.597 166.156 202.049 166.051 202.424 165.843C202.803 165.634 203.091 165.361 203.287 165.025C203.487 164.684 203.587 164.319 203.587 163.931V162.666C203.519 162.734 203.387 162.798 203.191 162.858C202.999 162.913 202.78 162.962 202.533 163.005C202.285 163.043 202.045 163.079 201.81 163.113C201.576 163.143 201.38 163.169 201.222 163.19C200.851 163.237 200.513 163.316 200.206 163.426C199.903 163.537 199.66 163.697 199.477 163.906C199.298 164.11 199.209 164.383 199.209 164.724C199.209 165.197 199.383 165.555 199.733 165.798C200.082 166.037 200.528 166.156 201.069 166.156ZM207.864 171.154V157.654H209.731V159.246H209.89C210.001 159.042 210.161 158.805 210.37 158.537C210.579 158.268 210.868 158.034 211.239 157.833C211.61 157.629 212.1 157.527 212.709 157.527C213.502 157.527 214.209 157.727 214.831 158.127C215.454 158.528 215.942 159.105 216.295 159.86C216.653 160.614 216.832 161.522 216.832 162.583C216.832 163.644 216.655 164.554 216.302 165.312C215.948 166.066 215.462 166.648 214.844 167.057C214.226 167.462 213.521 167.664 212.728 167.664C212.132 167.664 211.644 167.564 211.265 167.364C210.89 167.164 210.596 166.929 210.383 166.661C210.169 166.392 210.005 166.154 209.89 165.945H209.775V171.154H207.864ZM209.737 162.564C209.737 163.254 209.837 163.859 210.037 164.379C210.238 164.899 210.527 165.306 210.907 165.6C211.286 165.89 211.75 166.034 212.3 166.034C212.871 166.034 213.348 165.883 213.732 165.581C214.116 165.274 214.405 164.858 214.601 164.334C214.802 163.81 214.902 163.22 214.902 162.564C214.902 161.916 214.804 161.334 214.608 160.819C214.416 160.303 214.126 159.896 213.738 159.598C213.355 159.299 212.875 159.15 212.3 159.15C211.746 159.15 211.277 159.293 210.894 159.578C210.515 159.864 210.227 160.262 210.031 160.774C209.835 161.285 209.737 161.882 209.737 162.564ZM218.793 171.154V157.654H220.66V159.246H220.82C220.931 159.042 221.09 158.805 221.299 158.537C221.508 158.268 221.798 158.034 222.168 157.833C222.539 157.629 223.029 157.527 223.639 157.527C224.431 157.527 225.139 157.727 225.761 158.127C226.383 158.528 226.871 159.105 227.225 159.86C227.583 160.614 227.762 161.522 227.762 162.583C227.762 163.644 227.585 164.554 227.231 165.312C226.877 166.066 226.391 166.648 225.774 167.057C225.156 167.462 224.45 167.664 223.658 167.664C223.061 167.664 222.573 167.564 222.194 167.364C221.819 167.164 221.525 166.929 221.312 166.661C221.099 166.392 220.935 166.154 220.82 165.945H220.705V171.154H218.793ZM220.666 162.564C220.666 163.254 220.766 163.859 220.967 164.379C221.167 164.899 221.457 165.306 221.836 165.6C222.215 165.89 222.68 166.034 223.23 166.034C223.801 166.034 224.278 165.883 224.661 165.581C225.045 165.274 225.335 164.858 225.531 164.334C225.731 163.81 225.831 163.22 225.831 162.564C225.831 161.916 225.733 161.334 225.537 160.819C225.345 160.303 225.056 159.896 224.668 159.598C224.284 159.299 223.805 159.15 223.23 159.15C222.676 159.15 222.207 159.293 221.823 159.578C221.444 159.864 221.156 160.262 220.96 160.774C220.764 161.285 220.666 161.882 220.666 162.564Z" fill="white"/>
<path d="M150.81 124.905H146.572V111.814H150.944C152.227 111.814 153.329 112.076 154.249 112.601C155.169 113.12 155.875 113.868 156.365 114.844C156.859 115.816 157.106 116.981 157.106 118.341C157.106 119.704 156.857 120.876 156.358 121.856C155.864 122.836 155.148 123.591 154.211 124.119C153.273 124.643 152.14 124.905 150.81 124.905ZM148.547 123.179H150.701C151.699 123.179 152.527 122.992 153.188 122.617C153.848 122.238 154.343 121.69 154.671 120.974C154.999 120.254 155.163 119.376 155.163 118.341C155.163 117.314 154.999 116.442 154.671 115.726C154.347 115.01 153.863 114.467 153.22 114.096C152.576 113.726 151.777 113.54 150.823 113.54H148.547V123.179ZM163.365 125.103C162.444 125.103 161.641 124.892 160.955 124.471C160.269 124.049 159.736 123.459 159.357 122.7C158.978 121.941 158.788 121.055 158.788 120.041C158.788 119.022 158.978 118.132 159.357 117.369C159.736 116.606 160.269 116.014 160.955 115.592C161.641 115.17 162.444 114.959 163.365 114.959C164.285 114.959 165.088 115.17 165.774 115.592C166.46 116.014 166.993 116.606 167.372 117.369C167.752 118.132 167.941 119.022 167.941 120.041C167.941 121.055 167.752 121.941 167.372 122.7C166.993 123.459 166.46 124.049 165.774 124.471C165.088 124.892 164.285 125.103 163.365 125.103ZM163.371 123.499C163.968 123.499 164.462 123.341 164.854 123.026C165.246 122.711 165.536 122.291 165.723 121.767C165.915 121.243 166.011 120.665 166.011 120.035C166.011 119.408 165.915 118.833 165.723 118.309C165.536 117.78 165.246 117.356 164.854 117.037C164.462 116.717 163.968 116.557 163.371 116.557C162.77 116.557 162.272 116.717 161.875 117.037C161.483 117.356 161.191 117.78 161 118.309C160.812 118.833 160.718 119.408 160.718 120.035C160.718 120.665 160.812 121.243 161 121.767C161.191 122.291 161.483 122.711 161.875 123.026C162.272 123.341 162.77 123.499 163.371 123.499ZM171.724 124.905L168.835 115.087H170.81L172.734 122.297H172.83L174.761 115.087H176.736L178.653 122.265H178.749L180.66 115.087H182.636L179.753 124.905H177.803L175.809 117.816H175.662L173.668 124.905H171.724ZM186.181 119.076V124.905H184.269V115.087H186.104V116.685H186.225C186.451 116.165 186.805 115.748 187.286 115.432C187.772 115.117 188.384 114.959 189.121 114.959C189.79 114.959 190.376 115.1 190.879 115.381C191.382 115.658 191.771 116.071 192.048 116.621C192.325 117.171 192.464 117.851 192.464 118.66V124.905H190.553V118.89C190.553 118.179 190.367 117.623 189.997 117.222C189.626 116.817 189.117 116.615 188.469 116.615C188.026 116.615 187.632 116.711 187.286 116.902C186.945 117.094 186.675 117.375 186.475 117.746C186.279 118.113 186.181 118.556 186.181 119.076ZM196.758 111.814V124.905H194.847V111.814H196.758ZM203.285 125.103C202.365 125.103 201.561 124.892 200.875 124.471C200.189 124.049 199.657 123.459 199.277 122.7C198.898 121.941 198.709 121.055 198.709 120.041C198.709 119.022 198.898 118.132 199.277 117.369C199.657 116.606 200.189 116.014 200.875 115.592C201.561 115.17 202.365 114.959 203.285 114.959C204.206 114.959 205.009 115.17 205.695 115.592C206.381 116.014 206.914 116.606 207.293 117.369C207.672 118.132 207.862 119.022 207.862 120.041C207.862 121.055 207.672 121.941 207.293 122.7C206.914 123.459 206.381 124.049 205.695 124.471C205.009 124.892 204.206 125.103 203.285 125.103ZM203.292 123.499C203.888 123.499 204.383 123.341 204.775 123.026C205.167 122.711 205.456 122.291 205.644 121.767C205.836 121.243 205.932 120.665 205.932 120.035C205.932 119.408 205.836 118.833 205.644 118.309C205.456 117.78 205.167 117.356 204.775 117.037C204.383 116.717 203.888 116.557 203.292 116.557C202.691 116.557 202.192 116.717 201.796 117.037C201.404 117.356 201.112 117.78 200.92 118.309C200.733 118.833 200.639 119.408 200.639 120.035C200.639 120.665 200.733 121.243 200.92 121.767C201.112 122.291 201.404 122.711 201.796 123.026C202.192 123.341 202.691 123.499 203.292 123.499ZM212.673 125.123C212.05 125.123 211.488 125.008 210.985 124.777C210.482 124.543 210.084 124.204 209.79 123.761C209.5 123.318 209.355 122.775 209.355 122.131C209.355 121.577 209.462 121.121 209.675 120.763C209.888 120.405 210.175 120.122 210.538 119.913C210.9 119.704 211.305 119.547 211.752 119.44C212.2 119.334 212.655 119.253 213.12 119.197C213.708 119.129 214.185 119.074 214.552 119.031C214.918 118.984 215.185 118.91 215.351 118.807C215.517 118.705 215.6 118.539 215.6 118.309V118.264C215.6 117.706 215.442 117.273 215.127 116.966C214.816 116.66 214.351 116.506 213.734 116.506C213.09 116.506 212.583 116.649 212.212 116.934C211.846 117.216 211.592 117.529 211.452 117.874L209.655 117.465C209.869 116.868 210.18 116.387 210.589 116.02C211.002 115.65 211.477 115.381 212.014 115.215C212.551 115.044 213.116 114.959 213.708 114.959C214.1 114.959 214.516 115.006 214.954 115.1C215.398 115.189 215.811 115.356 216.195 115.598C216.582 115.841 216.9 116.189 217.147 116.64C217.394 117.088 217.518 117.669 217.518 118.385V124.905H215.651V123.563H215.575C215.451 123.81 215.266 124.053 215.018 124.292C214.771 124.53 214.454 124.728 214.066 124.886C213.678 125.044 213.214 125.123 212.673 125.123ZM213.088 123.589C213.616 123.589 214.068 123.484 214.443 123.275C214.822 123.066 215.11 122.794 215.306 122.457C215.506 122.116 215.606 121.752 215.606 121.364V120.098C215.538 120.167 215.406 120.231 215.21 120.29C215.018 120.346 214.799 120.395 214.552 120.437C214.305 120.476 214.064 120.512 213.829 120.546C213.595 120.576 213.399 120.601 213.241 120.623C212.871 120.669 212.532 120.748 212.225 120.859C211.923 120.97 211.68 121.13 211.496 121.339C211.317 121.543 211.228 121.816 211.228 122.157C211.228 122.63 211.403 122.988 211.752 123.231C212.101 123.469 212.547 123.589 213.088 123.589ZM223.559 125.097C222.766 125.097 222.059 124.895 221.437 124.49C220.819 124.081 220.333 123.499 219.979 122.745C219.63 121.986 219.455 121.076 219.455 120.015C219.455 118.954 219.632 118.047 219.986 117.292C220.344 116.538 220.834 115.961 221.456 115.56C222.078 115.16 222.783 114.959 223.572 114.959C224.181 114.959 224.671 115.062 225.042 115.266C225.417 115.466 225.706 115.701 225.911 115.969C226.12 116.238 226.282 116.474 226.397 116.679H226.512V111.814H228.423V124.905H226.557V123.378H226.397C226.282 123.586 226.116 123.825 225.898 124.093C225.685 124.362 225.391 124.596 225.016 124.797C224.641 124.997 224.155 125.097 223.559 125.097ZM223.981 123.467C224.53 123.467 224.995 123.322 225.374 123.032C225.758 122.738 226.047 122.331 226.243 121.812C226.444 121.292 226.544 120.687 226.544 119.996C226.544 119.314 226.446 118.718 226.25 118.206C226.054 117.695 225.766 117.297 225.387 117.011C225.008 116.726 224.539 116.583 223.981 116.583C223.405 116.583 222.926 116.732 222.542 117.03C222.159 117.329 221.869 117.736 221.673 118.251C221.481 118.767 221.385 119.348 221.385 119.996C221.385 120.652 221.483 121.243 221.679 121.767C221.875 122.291 222.165 122.706 222.549 123.013C222.937 123.316 223.414 123.467 223.981 123.467Z" fill="white"/>
<path d="M178.454 70.5178H176.46C176.383 70.0916 176.241 69.7166 176.032 69.3928C175.823 69.0689 175.567 68.794 175.265 68.5682C174.962 68.3423 174.623 68.1719 174.248 68.0568C173.878 67.9418 173.483 67.8842 173.066 67.8842C172.312 67.8842 171.636 68.0739 171.04 68.4531C170.447 68.8324 169.978 69.3885 169.633 70.1214C169.292 70.8544 169.122 71.7493 169.122 72.8061C169.122 73.8714 169.292 74.7706 169.633 75.5036C169.978 76.2365 170.449 76.7905 171.046 77.1655C171.642 77.5405 172.314 77.728 173.059 77.728C173.473 77.728 173.865 77.6726 174.236 77.5618C174.611 77.4467 174.949 77.2784 175.252 77.0568C175.554 76.8352 175.81 76.5646 176.019 76.245C176.232 75.9212 176.379 75.5504 176.46 75.1328L178.454 75.1392C178.348 75.7827 178.141 76.375 177.834 76.9162C177.532 77.4531 177.142 77.9176 176.665 78.3097C176.191 78.6974 175.65 78.9979 175.041 79.2109C174.432 79.424 173.767 79.5305 173.047 79.5305C171.913 79.5305 170.903 79.2621 170.017 78.7251C169.13 78.1839 168.432 77.4105 167.92 76.4048C167.413 75.3991 167.16 74.1996 167.16 72.8061C167.16 71.4084 167.415 70.2088 167.927 69.2074C168.438 68.2017 169.137 67.4304 170.023 66.8935C170.91 66.3523 171.917 66.0817 173.047 66.0817C173.741 66.0817 174.389 66.1818 174.99 66.3821C175.595 66.5781 176.138 66.8679 176.62 67.2514C177.101 67.6307 177.5 68.0952 177.815 68.6449C178.13 69.1903 178.343 69.8146 178.454 70.5178ZM182.396 66.2607V79.3516H180.484V66.2607H182.396ZM184.787 79.3516V69.5334H186.698V79.3516H184.787ZM185.752 68.0185C185.42 68.0185 185.134 67.9077 184.895 67.6861C184.661 67.4602 184.544 67.1918 184.544 66.8807C184.544 66.5653 184.661 66.2969 184.895 66.0753C185.134 65.8494 185.42 65.7365 185.752 65.7365C186.084 65.7365 186.368 65.8494 186.602 66.0753C186.841 66.2969 186.96 66.5653 186.96 66.8807C186.96 67.1918 186.841 67.4602 186.602 67.6861C186.368 67.9077 186.084 68.0185 185.752 68.0185ZM193.225 79.5497C192.275 79.5497 191.456 79.3345 190.77 78.9041C190.088 78.4695 189.564 77.8707 189.198 77.108C188.831 76.3452 188.648 75.4716 188.648 74.4872C188.648 73.4901 188.836 72.6101 189.211 71.8473C189.586 71.0803 190.114 70.4815 190.796 70.0511C191.478 69.6207 192.281 69.4055 193.206 69.4055C193.951 69.4055 194.616 69.544 195.2 69.821C195.784 70.0937 196.255 70.4773 196.613 70.9716C196.975 71.4659 197.19 72.0433 197.258 72.7038H195.398C195.296 72.2436 195.061 71.8473 194.695 71.5149C194.333 71.1825 193.847 71.0163 193.238 71.0163C192.705 71.0163 192.238 71.157 191.838 71.4382C191.441 71.7152 191.132 72.1115 190.911 72.6271C190.689 73.1385 190.579 73.7436 190.579 74.4425C190.579 75.1584 190.687 75.7763 190.905 76.2962C191.122 76.8161 191.429 77.2188 191.825 77.5043C192.226 77.7898 192.696 77.9325 193.238 77.9325C193.6 77.9325 193.928 77.8665 194.222 77.7344C194.52 77.598 194.77 77.4041 194.97 77.1527C195.174 76.9013 195.317 76.5987 195.398 76.245H197.258C197.19 76.88 196.983 77.4467 196.638 77.9453C196.293 78.4439 195.831 78.8359 195.251 79.1214C194.676 79.407 194 79.5497 193.225 79.5497ZM200.88 76.0213L200.867 73.6882H201.199L205.111 69.5334H207.4L202.938 74.2635H202.638L200.88 76.0213ZM199.122 79.3516V66.2607H201.033V79.3516H199.122ZM205.322 79.3516L201.807 74.6854L203.123 73.3494L207.668 79.3516H205.322Z" fill="white"/>
<path d="M168.609 17.9091L172.253 28.571H172.4L176.043 17.9091H178.178L173.467 31H171.185L166.474 17.9091H168.609ZM179.735 31V21.1818H181.646V31H179.735ZM180.7 19.6669C180.368 19.6669 180.082 19.5561 179.844 19.3345C179.609 19.1087 179.492 18.8402 179.492 18.5291C179.492 18.2138 179.609 17.9453 179.844 17.7237C180.082 17.4979 180.368 17.3849 180.7 17.3849C181.033 17.3849 181.316 17.4979 181.55 17.7237C181.789 17.9453 181.908 18.2138 181.908 18.5291C181.908 18.8402 181.789 19.1087 181.55 19.3345C181.316 19.5561 181.033 19.6669 180.7 19.6669ZM188.269 31.1982C187.302 31.1982 186.469 30.9915 185.77 30.5781C185.075 30.1605 184.538 29.5746 184.159 28.8203C183.784 28.0618 183.597 27.1733 183.597 26.1548C183.597 25.1491 183.784 24.2628 184.159 23.4957C184.538 22.7287 185.067 22.13 185.744 21.6996C186.426 21.2692 187.223 21.054 188.135 21.054C188.689 21.054 189.226 21.1456 189.746 21.3288C190.266 21.5121 190.732 21.7997 191.146 22.1918C191.559 22.5838 191.885 23.093 192.124 23.7195C192.362 24.3416 192.481 25.098 192.481 25.9886V26.6662H184.677V25.2344H190.609C190.609 24.7315 190.506 24.2862 190.302 23.8984C190.097 23.5064 189.81 23.1974 189.439 22.9716C189.072 22.7457 188.642 22.6328 188.148 22.6328C187.611 22.6328 187.142 22.7649 186.741 23.0291C186.345 23.2891 186.038 23.63 185.821 24.0518C185.608 24.4695 185.501 24.9233 185.501 25.4134V26.532C185.501 27.1882 185.616 27.7464 185.847 28.2067C186.081 28.6669 186.407 29.0185 186.825 29.2614C187.242 29.5 187.73 29.6193 188.288 29.6193C188.651 29.6193 188.981 29.5682 189.279 29.4659C189.577 29.3594 189.835 29.2017 190.052 28.9929C190.27 28.7841 190.436 28.5263 190.551 28.2195L192.36 28.5455C192.215 29.0781 191.955 29.5447 191.58 29.9453C191.209 30.3416 190.743 30.6506 190.18 30.8722C189.622 31.0895 188.985 31.1982 188.269 31.1982ZM196.533 31L193.644 21.1818H195.619L197.543 28.392H197.639L199.569 21.1818H201.544L203.462 28.3601H203.558L205.469 21.1818H207.444L204.561 31H202.612L200.618 23.9112H200.471L198.476 31H196.533Z" fill="white"/>
<path d="M148.929 210.668V197.577H153.595C154.613 197.577 155.457 197.762 156.126 198.133C156.795 198.504 157.296 199.011 157.628 199.654C157.961 200.294 158.127 201.014 158.127 201.815C158.127 202.62 157.958 203.345 157.622 203.988C157.289 204.627 156.787 205.135 156.113 205.51C155.444 205.88 154.603 206.066 153.588 206.066H150.38V204.391H153.409C154.053 204.391 154.575 204.28 154.975 204.059C155.376 203.833 155.67 203.526 155.858 203.138C156.045 202.75 156.139 202.309 156.139 201.815C156.139 201.321 156.045 200.882 155.858 200.498C155.67 200.115 155.374 199.814 154.969 199.597C154.568 199.38 154.04 199.271 153.384 199.271H150.904V210.668H148.929ZM166.328 206.596V200.85H168.246V210.668H166.367V208.968H166.264C166.039 209.492 165.676 209.929 165.178 210.278C164.683 210.623 164.068 210.796 163.33 210.796C162.7 210.796 162.141 210.657 161.656 210.38C161.174 210.099 160.795 209.684 160.518 209.134C160.245 208.584 160.109 207.904 160.109 207.095V200.85H162.02V206.865C162.02 207.534 162.205 208.066 162.576 208.463C162.947 208.859 163.428 209.057 164.021 209.057C164.379 209.057 164.735 208.968 165.088 208.789C165.446 208.61 165.742 208.339 165.977 207.977C166.215 207.615 166.333 207.154 166.328 206.596ZM170.634 210.668V200.85H172.481V202.409H172.583C172.762 201.881 173.078 201.466 173.529 201.163C173.985 200.856 174.501 200.703 175.076 200.703C175.196 200.703 175.336 200.707 175.498 200.716C175.664 200.724 175.794 200.735 175.888 200.748V202.576C175.811 202.554 175.675 202.531 175.479 202.505C175.283 202.475 175.087 202.461 174.891 202.461C174.439 202.461 174.037 202.556 173.683 202.748C173.333 202.936 173.056 203.198 172.852 203.534C172.647 203.867 172.545 204.246 172.545 204.672V210.668H170.634ZM181.146 210.866C180.196 210.866 179.378 210.651 178.692 210.221C178.01 209.786 177.486 209.187 177.119 208.424C176.753 207.662 176.569 206.788 176.569 205.804C176.569 204.806 176.757 203.926 177.132 203.164C177.507 202.397 178.035 201.798 178.717 201.368C179.399 200.937 180.202 200.722 181.127 200.722C181.873 200.722 182.538 200.86 183.121 201.137C183.705 201.41 184.176 201.794 184.534 202.288C184.896 202.782 185.111 203.36 185.18 204.02H183.319C183.217 203.56 182.983 203.164 182.616 202.831C182.254 202.499 181.768 202.333 181.159 202.333C180.626 202.333 180.16 202.473 179.759 202.755C179.363 203.032 179.054 203.428 178.832 203.944C178.611 204.455 178.5 205.06 178.5 205.759C178.5 206.475 178.609 207.093 178.826 207.613C179.043 208.132 179.35 208.535 179.746 208.821C180.147 209.106 180.618 209.249 181.159 209.249C181.521 209.249 181.849 209.183 182.143 209.051C182.442 208.914 182.691 208.721 182.891 208.469C183.096 208.218 183.239 207.915 183.319 207.561H185.18C185.111 208.196 184.905 208.763 184.56 209.262C184.214 209.76 183.752 210.152 183.172 210.438C182.597 210.723 181.922 210.866 181.146 210.866ZM188.955 204.838V210.668H187.043V197.577H188.929V202.448H189.051C189.281 201.919 189.632 201.5 190.105 201.189C190.578 200.877 191.196 200.722 191.959 200.722C192.632 200.722 193.22 200.86 193.723 201.137C194.23 201.414 194.622 201.828 194.899 202.377C195.181 202.923 195.321 203.605 195.321 204.423V210.668H193.41V204.653C193.41 203.933 193.225 203.375 192.854 202.978C192.483 202.578 191.967 202.377 191.307 202.377C190.855 202.377 190.45 202.473 190.092 202.665C189.739 202.857 189.46 203.138 189.255 203.509C189.055 203.875 188.955 204.319 188.955 204.838ZM200.549 210.885C199.927 210.885 199.364 210.77 198.861 210.54C198.358 210.306 197.96 209.967 197.666 209.524C197.376 209.081 197.231 208.537 197.231 207.894C197.231 207.34 197.338 206.884 197.551 206.526C197.764 206.168 198.052 205.885 198.414 205.676C198.776 205.467 199.181 205.309 199.628 205.203C200.076 205.096 200.532 205.015 200.996 204.96C201.584 204.892 202.062 204.836 202.428 204.794C202.795 204.747 203.061 204.672 203.227 204.57C203.393 204.468 203.476 204.301 203.476 204.071V204.027C203.476 203.468 203.319 203.036 203.003 202.729C202.692 202.422 202.228 202.269 201.61 202.269C200.966 202.269 200.459 202.412 200.089 202.697C199.722 202.978 199.469 203.292 199.328 203.637L197.532 203.228C197.745 202.631 198.056 202.15 198.465 201.783C198.878 201.412 199.353 201.144 199.89 200.978C200.427 200.807 200.992 200.722 201.584 200.722C201.976 200.722 202.392 200.769 202.831 200.863C203.274 200.952 203.687 201.118 204.071 201.361C204.459 201.604 204.776 201.951 205.023 202.403C205.27 202.85 205.394 203.432 205.394 204.148V210.668H203.527V209.326H203.451C203.327 209.573 203.142 209.816 202.895 210.054C202.648 210.293 202.33 210.491 201.942 210.649C201.554 210.806 201.09 210.885 200.549 210.885ZM200.964 209.351C201.493 209.351 201.944 209.247 202.319 209.038C202.699 208.829 202.986 208.556 203.182 208.22C203.383 207.879 203.483 207.515 203.483 207.127V205.861C203.415 205.929 203.282 205.993 203.086 206.053C202.895 206.108 202.675 206.157 202.428 206.2C202.181 206.238 201.94 206.275 201.706 206.309C201.471 206.338 201.275 206.364 201.118 206.385C200.747 206.432 200.408 206.511 200.101 206.622C199.799 206.733 199.556 206.892 199.373 207.101C199.194 207.306 199.104 207.578 199.104 207.919C199.104 208.392 199.279 208.75 199.628 208.993C199.978 209.232 200.423 209.351 200.964 209.351ZM215.117 203.247L213.385 203.554C213.312 203.332 213.197 203.121 213.039 202.921C212.886 202.721 212.677 202.556 212.413 202.429C212.149 202.301 211.819 202.237 211.422 202.237C210.881 202.237 210.429 202.358 210.067 202.601C209.705 202.84 209.524 203.149 209.524 203.528C209.524 203.856 209.645 204.12 209.888 204.321C210.131 204.521 210.523 204.685 211.064 204.813L212.624 205.171C213.527 205.38 214.201 205.701 214.644 206.136C215.087 206.571 215.309 207.135 215.309 207.83C215.309 208.418 215.138 208.942 214.797 209.402C214.461 209.858 213.99 210.216 213.385 210.476C212.784 210.736 212.087 210.866 211.294 210.866C210.195 210.866 209.298 210.632 208.603 210.163C207.909 209.69 207.483 209.019 207.325 208.15L209.172 207.868C209.287 208.35 209.524 208.714 209.882 208.961C210.24 209.204 210.706 209.326 211.282 209.326C211.908 209.326 212.409 209.196 212.784 208.936C213.159 208.672 213.346 208.35 213.346 207.971C213.346 207.664 213.231 207.406 213.001 207.197C212.775 206.988 212.428 206.831 211.959 206.724L210.297 206.36C209.381 206.151 208.703 205.819 208.265 205.363C207.83 204.907 207.613 204.329 207.613 203.63C207.613 203.051 207.775 202.544 208.098 202.109C208.422 201.674 208.87 201.336 209.441 201.093C210.012 200.846 210.666 200.722 211.403 200.722C212.464 200.722 213.299 200.952 213.909 201.412C214.518 201.868 214.921 202.48 215.117 203.247ZM221.462 210.866C220.494 210.866 219.661 210.659 218.962 210.246C218.268 209.828 217.731 209.243 217.351 208.488C216.976 207.73 216.789 206.841 216.789 205.823C216.789 204.817 216.976 203.931 217.351 203.164C217.731 202.397 218.259 201.798 218.937 201.368C219.618 200.937 220.415 200.722 221.327 200.722C221.881 200.722 222.418 200.814 222.938 200.997C223.458 201.18 223.925 201.468 224.338 201.86C224.751 202.252 225.077 202.761 225.316 203.387C225.555 204.01 225.674 204.766 225.674 205.657V206.334H217.869V204.902H223.801C223.801 204.4 223.699 203.954 223.494 203.566C223.29 203.174 223.002 202.865 222.631 202.64C222.265 202.414 221.834 202.301 221.34 202.301C220.803 202.301 220.334 202.433 219.934 202.697C219.538 202.957 219.231 203.298 219.013 203.72C218.8 204.137 218.694 204.591 218.694 205.081V206.2C218.694 206.856 218.809 207.414 219.039 207.875C219.273 208.335 219.599 208.686 220.017 208.929C220.435 209.168 220.922 209.287 221.481 209.287C221.843 209.287 222.173 209.236 222.471 209.134C222.77 209.027 223.028 208.87 223.245 208.661C223.462 208.452 223.628 208.194 223.743 207.887L225.552 208.213C225.408 208.746 225.148 209.213 224.773 209.613C224.402 210.01 223.935 210.319 223.373 210.54C222.815 210.757 222.177 210.866 221.462 210.866Z" fill="white"/>
<path d="M147.788 254.518V241.427H152.454C153.468 241.427 154.31 241.601 154.979 241.951C155.652 242.3 156.155 242.784 156.488 243.402C156.82 244.015 156.986 244.725 156.986 245.53C156.986 246.331 156.818 247.037 156.481 247.646C156.149 248.251 155.646 248.722 154.973 249.059C154.304 249.395 153.462 249.564 152.448 249.564H148.913V247.863H152.269C152.908 247.863 153.428 247.772 153.829 247.589C154.233 247.405 154.53 247.139 154.717 246.79C154.905 246.44 154.998 246.02 154.998 245.53C154.998 245.036 154.902 244.608 154.711 244.246C154.523 243.883 154.227 243.606 153.822 243.415C153.422 243.219 152.895 243.121 152.243 243.121H149.763V254.518H147.788ZM154.25 248.611L157.485 254.518H155.235L152.064 248.611H154.25ZM163.165 254.716C162.197 254.716 161.364 254.509 160.665 254.096C159.971 253.678 159.434 253.092 159.055 252.338C158.68 251.579 158.492 250.691 158.492 249.672C158.492 248.667 158.68 247.78 159.055 247.013C159.434 246.246 159.962 245.648 160.64 245.217C161.322 244.787 162.119 244.572 163.031 244.572C163.584 244.572 164.121 244.663 164.641 244.846C165.161 245.03 165.628 245.317 166.041 245.709C166.455 246.101 166.781 246.611 167.019 247.237C167.258 247.859 167.377 248.616 167.377 249.506V250.184H159.572V248.752H165.504C165.504 248.249 165.402 247.804 165.197 247.416C164.993 247.024 164.705 246.715 164.334 246.489C163.968 246.263 163.538 246.15 163.043 246.15C162.506 246.15 162.038 246.282 161.637 246.547C161.241 246.807 160.934 247.148 160.717 247.569C160.504 247.987 160.397 248.441 160.397 248.931V250.05C160.397 250.706 160.512 251.264 160.742 251.724C160.977 252.184 161.303 252.536 161.72 252.779C162.138 253.018 162.626 253.137 163.184 253.137C163.546 253.137 163.876 253.086 164.175 252.983C164.473 252.877 164.731 252.719 164.948 252.51C165.165 252.302 165.332 252.044 165.447 251.737L167.256 252.063C167.111 252.596 166.851 253.062 166.476 253.463C166.105 253.859 165.638 254.168 165.076 254.39C164.518 254.607 163.881 254.716 163.165 254.716ZM173.901 244.699V246.233H168.538V244.699H173.901ZM169.976 242.347H171.887V251.635C171.887 252.006 171.943 252.285 172.053 252.472C172.164 252.655 172.307 252.781 172.482 252.849C172.661 252.913 172.855 252.945 173.063 252.945C173.217 252.945 173.351 252.934 173.466 252.913C173.581 252.892 173.671 252.875 173.735 252.862L174.08 254.441C173.969 254.483 173.811 254.526 173.607 254.569C173.402 254.616 173.146 254.641 172.84 254.645C172.337 254.654 171.868 254.564 171.433 254.377C170.999 254.189 170.647 253.9 170.379 253.508C170.11 253.116 169.976 252.623 169.976 252.031V242.347ZM179.961 254.716C178.994 254.716 178.161 254.509 177.462 254.096C176.767 253.678 176.23 253.092 175.851 252.338C175.476 251.579 175.288 250.691 175.288 249.672C175.288 248.667 175.476 247.78 175.851 247.013C176.23 246.246 176.759 245.648 177.436 245.217C178.118 244.787 178.915 244.572 179.827 244.572C180.381 244.572 180.918 244.663 181.438 244.846C181.957 245.03 182.424 245.317 182.837 245.709C183.251 246.101 183.577 246.611 183.815 247.237C184.054 247.859 184.173 248.616 184.173 249.506V250.184H176.369V248.752H182.3C182.3 248.249 182.198 247.804 181.994 247.416C181.789 247.024 181.501 246.715 181.131 246.489C180.764 246.263 180.334 246.15 179.84 246.15C179.303 246.15 178.834 246.282 178.433 246.547C178.037 246.807 177.73 247.148 177.513 247.569C177.3 247.987 177.193 248.441 177.193 248.931V250.05C177.193 250.706 177.308 251.264 177.538 251.724C177.773 252.184 178.099 252.536 178.516 252.779C178.934 253.018 179.422 253.137 179.98 253.137C180.342 253.137 180.673 253.086 180.971 252.983C181.269 252.877 181.527 252.719 181.744 252.51C181.962 252.302 182.128 252.044 182.243 251.737L184.052 252.063C183.907 252.596 183.647 253.062 183.272 253.463C182.901 253.859 182.435 254.168 181.872 254.39C181.314 254.607 180.677 254.716 179.961 254.716ZM188.025 248.688V254.518H186.114V244.699H187.948V246.297H188.07C188.296 245.778 188.649 245.36 189.131 245.045C189.617 244.729 190.228 244.572 190.965 244.572C191.634 244.572 192.22 244.712 192.723 244.993C193.226 245.27 193.616 245.684 193.893 246.233C194.17 246.783 194.309 247.463 194.309 248.273V254.518H192.397V248.503C192.397 247.791 192.212 247.235 191.841 246.834C191.47 246.43 190.961 246.227 190.313 246.227C189.87 246.227 189.476 246.323 189.131 246.515C188.79 246.706 188.519 246.988 188.319 247.358C188.123 247.725 188.025 248.168 188.025 248.688ZM201.275 244.699V246.233H195.912V244.699H201.275ZM197.35 242.347H199.261V251.635C199.261 252.006 199.317 252.285 199.428 252.472C199.538 252.655 199.681 252.781 199.856 252.849C200.035 252.913 200.229 252.945 200.437 252.945C200.591 252.945 200.725 252.934 200.84 252.913C200.955 252.892 201.045 252.875 201.109 252.862L201.454 254.441C201.343 254.483 201.185 254.526 200.981 254.569C200.776 254.616 200.521 254.641 200.214 254.645C199.711 254.654 199.242 254.564 198.807 254.377C198.373 254.189 198.021 253.9 197.753 253.508C197.484 253.116 197.35 252.623 197.35 252.031V242.347ZM203.209 254.518V244.699H205.12V254.518H203.209ZM204.174 243.184C203.842 243.184 203.556 243.074 203.318 242.852C203.083 242.626 202.966 242.358 202.966 242.047C202.966 241.731 203.083 241.463 203.318 241.241C203.556 241.015 203.842 240.903 204.174 240.903C204.507 240.903 204.79 241.015 205.024 241.241C205.263 241.463 205.382 241.731 205.382 242.047C205.382 242.358 205.263 242.626 205.024 242.852C204.79 243.074 204.507 243.184 204.174 243.184ZM211.647 254.716C210.727 254.716 209.923 254.505 209.237 254.083C208.551 253.661 208.019 253.071 207.639 252.312C207.26 251.554 207.07 250.667 207.07 249.653C207.07 248.635 207.26 247.744 207.639 246.981C208.019 246.219 208.551 245.626 209.237 245.204C209.923 244.782 210.727 244.572 211.647 244.572C212.568 244.572 213.371 244.782 214.057 245.204C214.743 245.626 215.276 246.219 215.655 246.981C216.034 247.744 216.224 248.635 216.224 249.653C216.224 250.667 216.034 251.554 215.655 252.312C215.276 253.071 214.743 253.661 214.057 254.083C213.371 254.505 212.568 254.716 211.647 254.716ZM211.653 253.111C212.25 253.111 212.744 252.954 213.136 252.638C213.528 252.323 213.818 251.903 214.006 251.379C214.197 250.855 214.293 250.278 214.293 249.647C214.293 249.02 214.197 248.445 214.006 247.921C213.818 247.393 213.528 246.969 213.136 246.649C212.744 246.329 212.25 246.17 211.653 246.17C211.053 246.17 210.554 246.329 210.158 246.649C209.766 246.969 209.474 247.393 209.282 247.921C209.095 248.445 209.001 249.02 209.001 249.647C209.001 250.278 209.095 250.855 209.282 251.379C209.474 251.903 209.766 252.323 210.158 252.638C210.554 252.954 211.053 253.111 211.653 253.111ZM220.088 248.688V254.518H218.177V244.699H220.012V246.297H220.133C220.359 245.778 220.713 245.36 221.194 245.045C221.68 244.729 222.291 244.572 223.029 244.572C223.698 244.572 224.284 244.712 224.786 244.993C225.289 245.27 225.679 245.684 225.956 246.233C226.233 246.783 226.372 247.463 226.372 248.273V254.518H224.46V248.503C224.46 247.791 224.275 247.235 223.904 246.834C223.534 246.43 223.024 246.227 222.377 246.227C221.933 246.227 221.539 246.323 221.194 246.515C220.853 246.706 220.583 246.988 220.382 247.358C220.186 247.725 220.088 248.168 220.088 248.688Z" fill="white"/>
<rect y="48" width="374" height="2" fill="white"/>
<rect y="96" width="374" height="2" fill="white"/>
<rect y="139" width="374" height="2" fill="white"/>
<rect y="182" width="374" height="2" fill="white"/>
<rect y="225" width="374" height="2" fill="white"/>
<rect x="92" y="275" width="200" height="39" fill="#FEA30C"/>
<path d="M155.538 300V286.909H160.204C161.218 286.909 162.06 287.084 162.729 287.433C163.402 287.783 163.905 288.266 164.238 288.884C164.57 289.498 164.736 290.207 164.736 291.013C164.736 291.814 164.568 292.519 164.231 293.129C163.899 293.734 163.396 294.205 162.723 294.541C162.054 294.878 161.212 295.046 160.198 295.046H156.663V293.346H160.019C160.658 293.346 161.178 293.254 161.578 293.071C161.983 292.888 162.279 292.621 162.467 292.272C162.654 291.923 162.748 291.503 162.748 291.013C162.748 290.518 162.652 290.09 162.461 289.728C162.273 289.366 161.977 289.089 161.572 288.897C161.171 288.701 160.645 288.603 159.993 288.603H157.513V300H155.538ZM162 294.094L165.235 300H162.985L159.814 294.094H162ZM170.915 300.198C169.947 300.198 169.114 299.991 168.415 299.578C167.721 299.161 167.184 298.575 166.804 297.82C166.429 297.062 166.242 296.173 166.242 295.155C166.242 294.149 166.429 293.263 166.804 292.496C167.184 291.729 167.712 291.13 168.39 290.7C169.072 290.269 169.868 290.054 170.78 290.054C171.334 290.054 171.871 290.146 172.391 290.329C172.911 290.512 173.378 290.8 173.791 291.192C174.204 291.584 174.53 292.093 174.769 292.719C175.008 293.342 175.127 294.098 175.127 294.989V295.666H167.322V294.234H173.254C173.254 293.732 173.152 293.286 172.947 292.898C172.743 292.506 172.455 292.197 172.084 291.972C171.718 291.746 171.287 291.633 170.793 291.633C170.256 291.633 169.787 291.765 169.387 292.029C168.991 292.289 168.684 292.63 168.466 293.052C168.253 293.469 168.147 293.923 168.147 294.413V295.532C168.147 296.188 168.262 296.746 168.492 297.207C168.726 297.667 169.052 298.018 169.47 298.261C169.888 298.5 170.376 298.619 170.934 298.619C171.296 298.619 171.626 298.568 171.925 298.466C172.223 298.359 172.481 298.202 172.698 297.993C172.915 297.784 173.081 297.526 173.197 297.219L175.005 297.545C174.861 298.078 174.601 298.545 174.226 298.945C173.855 299.342 173.388 299.651 172.826 299.872C172.268 300.089 171.63 300.198 170.915 300.198ZM181.74 290.182V291.716H176.192V290.182H181.74ZM177.713 300V289.044C177.713 288.43 177.847 287.921 178.116 287.516C178.384 287.107 178.74 286.803 179.183 286.602C179.626 286.398 180.108 286.295 180.628 286.295C181.011 286.295 181.34 286.327 181.612 286.391C181.885 286.451 182.087 286.506 182.219 286.558L181.772 288.104C181.683 288.079 181.567 288.049 181.427 288.015C181.286 287.977 181.116 287.957 180.916 287.957C180.451 287.957 180.119 288.072 179.918 288.303C179.722 288.533 179.624 288.865 179.624 289.3V300H177.713ZM188.205 290.182V291.716H182.656V290.182H188.205ZM184.178 300V289.044C184.178 288.43 184.312 287.921 184.58 287.516C184.849 287.107 185.205 286.803 185.648 286.602C186.091 286.398 186.573 286.295 187.092 286.295C187.476 286.295 187.804 286.327 188.077 286.391C188.349 286.451 188.552 286.506 188.684 286.558L188.237 288.104C188.147 288.079 188.032 288.049 187.891 288.015C187.751 287.977 187.58 287.957 187.38 287.957C186.916 287.957 186.583 288.072 186.383 288.303C186.187 288.533 186.089 288.865 186.089 289.3V300H184.178ZM193.841 300.198C192.874 300.198 192.041 299.991 191.342 299.578C190.647 299.161 190.111 298.575 189.731 297.82C189.356 297.062 189.169 296.173 189.169 295.155C189.169 294.149 189.356 293.263 189.731 292.496C190.111 291.729 190.639 291.13 191.317 290.7C191.998 290.269 192.795 290.054 193.707 290.054C194.261 290.054 194.798 290.146 195.318 290.329C195.838 290.512 196.304 290.8 196.718 291.192C197.131 291.584 197.457 292.093 197.696 292.719C197.934 293.342 198.054 294.098 198.054 294.989V295.666H190.249V294.234H196.181C196.181 293.732 196.079 293.286 195.874 292.898C195.669 292.506 195.382 292.197 195.011 291.972C194.645 291.746 194.214 291.633 193.72 291.633C193.183 291.633 192.714 291.765 192.314 292.029C191.917 292.289 191.611 292.63 191.393 293.052C191.18 293.469 191.074 293.923 191.074 294.413V295.532C191.074 296.188 191.189 296.746 191.419 297.207C191.653 297.667 191.979 298.018 192.397 298.261C192.814 298.5 193.302 298.619 193.861 298.619C194.223 298.619 194.553 298.568 194.851 298.466C195.15 298.359 195.407 298.202 195.625 297.993C195.842 297.784 196.008 297.526 196.123 297.219L197.932 297.545C197.787 298.078 197.527 298.545 197.152 298.945C196.782 299.342 196.315 299.651 195.753 299.872C195.194 300.089 194.557 300.198 193.841 300.198ZM199.994 300V290.182H201.842V291.741H201.944C202.123 291.213 202.438 290.798 202.89 290.495C203.346 290.188 203.861 290.035 204.437 290.035C204.556 290.035 204.697 290.039 204.859 290.048C205.025 290.056 205.155 290.067 205.249 290.08V291.908C205.172 291.886 205.035 291.863 204.839 291.837C204.643 291.808 204.447 291.793 204.251 291.793C203.8 291.793 203.397 291.888 203.043 292.08C202.694 292.268 202.417 292.53 202.212 292.866C202.008 293.199 201.906 293.578 201.906 294.004V300H199.994ZM209.492 300.217C208.87 300.217 208.307 300.102 207.804 299.872C207.302 299.638 206.903 299.299 206.609 298.856C206.319 298.413 206.174 297.869 206.174 297.226C206.174 296.672 206.281 296.216 206.494 295.858C206.707 295.5 206.995 295.217 207.357 295.008C207.719 294.799 208.124 294.641 208.571 294.535C209.019 294.428 209.475 294.347 209.939 294.292C210.527 294.224 211.005 294.168 211.371 294.126C211.738 294.079 212.004 294.004 212.17 293.902C212.336 293.8 212.419 293.634 212.419 293.403V293.359C212.419 292.8 212.262 292.368 211.946 292.061C211.635 291.754 211.171 291.601 210.553 291.601C209.909 291.601 209.402 291.744 209.032 292.029C208.665 292.31 208.412 292.624 208.271 292.969L206.475 292.56C206.688 291.963 206.999 291.482 207.408 291.115C207.821 290.744 208.297 290.476 208.833 290.31C209.37 290.139 209.935 290.054 210.527 290.054C210.919 290.054 211.335 290.101 211.774 290.195C212.217 290.284 212.63 290.45 213.014 290.693C213.402 290.936 213.719 291.283 213.966 291.735C214.213 292.183 214.337 292.764 214.337 293.48V300H212.471V298.658H212.394C212.27 298.905 212.085 299.148 211.838 299.386C211.591 299.625 211.273 299.823 210.885 299.981C210.498 300.138 210.033 300.217 209.492 300.217ZM209.907 298.683C210.436 298.683 210.887 298.579 211.262 298.37C211.642 298.161 211.929 297.888 212.125 297.552C212.326 297.211 212.426 296.847 212.426 296.459V295.193C212.358 295.261 212.226 295.325 212.029 295.385C211.838 295.44 211.618 295.489 211.371 295.532C211.124 295.57 210.883 295.607 210.649 295.641C210.414 295.67 210.218 295.696 210.061 295.717C209.69 295.764 209.351 295.843 209.044 295.954C208.742 296.065 208.499 296.224 208.316 296.433C208.137 296.638 208.047 296.911 208.047 297.251C208.047 297.724 208.222 298.082 208.571 298.325C208.921 298.564 209.366 298.683 209.907 298.683ZM218.614 286.909V300H216.703V286.909H218.614Z" fill="white"/>
<rect x="94" y="331" width="196" height="191" stroke="#FEA30C" stroke-width="4"/>
<path d="M231.166 394C229.508 389.411 226.478 385.412 222.469 382.516C218.459 379.62 213.652 377.96 208.666 377.75H175.333C168.703 377.75 162.344 380.318 157.655 384.889C152.967 389.46 150.333 395.66 150.333 402.125C150.333 408.59 152.967 414.79 157.655 419.361C162.344 423.932 168.703 426.5 175.333 426.5H208.666C215.297 426.5 221.656 429.068 226.344 433.639C231.032 438.21 233.666 444.41 233.666 450.875C233.666 457.34 231.032 463.54 226.344 468.111C221.656 472.682 215.297 475.25 208.666 475.25H175.333C170.348 475.04 165.541 473.38 161.531 470.484C157.521 467.588 154.492 463.589 152.833 459" stroke="#FEA30C" stroke-width="5" stroke-linecap="round" stroke-linejoin="round"/>
<path d="M192 475.25V499.625M192 353.375V377.75V353.375Z" stroke="#FEA30C" stroke-width="5" stroke-linecap="round" stroke-linejoin="round"/>
</svg>
