<svg width="464" height="461" viewBox="0 0 464 461" fill="none" xmlns="http://www.w3.org/2000/svg">
<rect width="464" height="461" fill="#E9EFF2"/>
<path d="M136.129 214.787V142H148.998V203.734H180.286V214.787H136.129Z" fill="#DCDCDC"/>
<path d="M201.971 153.053V142H258.651V153.053H236.693V214.787H223.928V153.053H201.971Z" fill="#DCDCDC"/>
<path d="M290.344 142L308.833 199.291H309.561L328.015 142H342.168L317.123 214.787H301.236L276.227 142H290.344Z" fill="#DCDCDC"/>
<path d="M184.611 269.345H171.638C171.268 267.166 170.586 265.234 169.591 263.552C168.597 261.846 167.36 260.401 165.88 259.216C164.4 258.032 162.712 257.143 160.815 256.551C158.942 255.935 156.919 255.627 154.745 255.627C150.883 255.627 147.461 256.622 144.478 258.612C141.494 260.579 139.159 263.469 137.471 267.284C135.783 271.075 134.938 275.707 134.938 281.18C134.938 286.748 135.783 291.44 137.471 295.254C139.182 299.045 141.518 301.912 144.478 303.855C147.461 305.774 150.872 306.734 154.71 306.734C156.838 306.734 158.827 306.45 160.677 305.881C162.55 305.289 164.226 304.424 165.706 303.286C167.209 302.149 168.47 300.751 169.487 299.093C170.528 297.434 171.245 295.539 171.638 293.406L184.611 293.477C184.125 296.937 183.073 300.183 181.454 303.215C179.859 306.248 177.766 308.926 175.176 311.248C172.586 313.546 169.557 315.347 166.088 316.65C162.619 317.929 158.769 318.569 154.537 318.569C148.293 318.569 142.72 317.088 137.818 314.126C132.915 311.165 129.053 306.888 126.232 301.296C123.411 295.705 122 288.999 122 281.18C122 273.338 123.422 266.632 126.267 261.064C129.111 255.473 132.984 251.196 137.887 248.234C142.789 245.273 148.339 243.792 154.537 243.792C158.491 243.792 162.168 244.36 165.568 245.498C168.967 246.635 171.996 248.305 174.656 250.509C177.315 252.689 179.5 255.366 181.212 258.541C182.946 261.692 184.079 265.294 184.611 269.345Z" fill="#DCDCDC"/>
<path d="M213.587 317.574H199.851L224.861 244.787H240.748L265.792 317.574H252.056L233.082 259.714H232.527L213.587 317.574Z" fill="#DCDCDC"/>
<path d="M342.168 269.345H329.194C328.824 267.166 328.142 265.234 327.148 263.552C326.153 261.846 324.916 260.401 323.436 259.216C321.956 258.032 320.268 257.143 318.372 256.551C316.499 255.935 314.475 255.627 312.302 255.627C308.44 255.627 305.017 256.622 302.034 258.612C299.051 260.579 296.715 263.469 295.027 267.284C293.339 271.075 292.495 275.707 292.495 281.18C292.495 286.748 293.339 291.44 295.027 295.254C296.738 299.045 299.074 301.912 302.034 303.855C305.017 305.774 308.428 306.734 312.267 306.734C314.394 306.734 316.383 306.45 318.233 305.881C320.106 305.289 321.783 304.424 323.263 303.286C324.766 302.149 326.026 300.751 327.044 299.093C328.084 297.434 328.801 295.539 329.194 293.406L342.168 293.477C341.682 296.937 340.63 300.183 339.011 303.215C337.415 306.248 335.323 308.926 332.733 311.248C330.143 313.546 327.113 315.347 323.644 316.65C320.176 317.929 316.325 318.569 312.093 318.569C305.85 318.569 300.277 317.088 295.374 314.126C290.472 311.165 286.61 306.888 283.789 301.296C280.967 295.705 279.557 288.999 279.557 281.18C279.557 273.338 280.979 266.632 283.823 261.064C286.668 255.473 290.541 251.196 295.443 248.234C300.346 245.273 305.896 243.792 312.093 243.792C316.048 243.792 319.725 244.36 323.124 245.498C326.523 246.635 329.553 248.305 332.212 250.509C334.872 252.689 337.057 255.366 338.768 258.541C340.503 261.692 341.636 265.294 342.168 269.345Z" fill="#DCDCDC"/>
</svg>
