<?xml version="1.0" standalone="no"?>
<!DOCTYPE svg PUBLIC "-//W3C//DTD SVG 20010904//EN"
 "http://www.w3.org/TR/2001/REC-SVG-20010904/DTD/svg10.dtd">
<svg version="1.0" xmlns="http://www.w3.org/2000/svg"
 width="700.000000pt" height="700.000000pt" viewBox="0 0 700.000000 700.000000"
 preserveAspectRatio="xMidYMid meet">
<metadata>
Created by potrace 1.14, written by Peter Selinger 2001-2017
</metadata>
<g transform="translate(0.000000,700.000000) scale(0.100000,-0.100000)"
fill="#000000" stroke="none">
<path d="M0 3500 l0 -3500 3500 0 3500 0 0 3500 0 3500 -3500 0 -3500 0 0
-3500z m1720 1235 l0 -655 330 0 330 0 0 -120 0 -120 -465 0 -465 0 0 775 0
775 135 0 135 0 0 -655z m2328 538 l-3 -118 -232 -3 -233 -2 0 -655 0 -655
-135 0 -135 0 0 655 0 655 -232 2 -233 3 -3 104 c-1 58 0 111 2 118 4 11 118
13 606 13 l601 0 -3 -117z m691 55 c11 -35 99 -308 196 -607 96 -300 177 -547
180 -549 3 -3 7 -3 9 -1 2 2 90 274 196 604 106 330 196 603 200 608 3 4 72 6
152 5 l145 -3 -261 -760 c-144 -419 -266 -766 -270 -773 -5 -9 -53 -12 -171
-12 l-163 0 -15 43 c-8 23 -126 366 -262 762 -136 396 -250 726 -252 733 -4 9
29 12 145 12 l150 0 21 -62z m-2694 -2128 c204 -63 350 -209 409 -409 31 -105
36 -101 -118 -101 l-134 0 -17 52 c-57 176 -245 273 -435 224 -157 -40 -258
-151 -307 -336 -21 -80 -23 -288 -4 -375 53 -247 243 -391 467 -355 143 23
247 110 285 238 l12 42 134 0 133 0 0 -27 c-1 -43 -41 -152 -80 -217 -48 -79
-155 -178 -238 -220 -271 -137 -617 -76 -812 142 -61 68 -133 207 -161 312
-29 108 -37 334 -15 459 55 318 262 538 554 591 78 15 248 4 327 -20z m3329 4
c195 -52 352 -200 414 -389 11 -33 22 -75 25 -92 l7 -33 -139 0 -139 0 -7 33
c-20 94 -106 190 -204 228 -80 31 -214 31 -293 0 -119 -46 -218 -175 -254
-327 -21 -92 -21 -286 0 -378 34 -145 125 -270 228 -316 143 -63 314 -41 426
56 40 34 102 141 102 176 0 17 11 18 133 18 74 0 136 -2 139 -5 10 -11 -14
-100 -47 -173 -79 -171 -220 -289 -405 -338 -89 -24 -272 -24 -360 0 -247 67
-424 263 -488 539 -25 112 -22 386 6 492 76 281 277 478 535 525 71 12 249 4
321 -16z m-1446 -756 c144 -420 262 -769 262 -776 0 -10 -32 -12 -142 -10
l-142 3 -200 613 c-111 336 -204 612 -208 612 -3 0 -22 -48 -42 -107 -19 -60
-110 -336 -201 -615 l-166 -508 -145 0 c-79 0 -144 2 -144 3 0 5 486 1419 511
1490 l21 57 167 0 167 0 262 -762z"/>
</g>
</svg>
