<svg width="304" height="304" viewBox="0 0 304 304" fill="none" xmlns="http://www.w3.org/2000/svg">
<circle cx="152" cy="152" r="152" fill="white"/>
<path d="M122.656 117.897V127.468H94.7409V117.897H122.656ZM98.9567 72.1686V127.468H86.5751V72.1686H98.9567ZM148.538 72.1686V127.468H136.194V72.1686H148.538ZM165.363 72.1686V81.7776H119.711V72.1686H165.363ZM194.852 115.2L207.158 72.1686H220.945L201.992 127.468H192.991L194.852 115.2ZM183.648 72.1686L195.916 115.2L197.853 127.468H188.737L169.899 72.1686H183.648ZM108.604 211.933H120.909C120.707 215.731 119.669 219.086 117.795 221.998C115.946 224.885 113.376 227.151 110.085 228.797C106.793 230.417 102.881 231.227 98.349 231.227C94.7282 231.227 91.4872 230.607 88.6261 229.366C85.7649 228.126 83.3342 226.353 81.3339 224.049C79.3589 221.72 77.8397 218.922 76.7762 215.655C75.7381 212.364 75.2191 208.654 75.2191 204.527V201.147C75.2191 197.02 75.7634 193.31 76.8522 190.019C77.941 186.727 79.4982 183.917 81.5238 181.587C83.5494 179.258 85.9801 177.473 88.816 176.232C91.6518 174.991 94.8168 174.371 98.311 174.371C103.021 174.371 106.996 175.219 110.237 176.916C113.478 178.612 115.984 180.942 117.757 183.904C119.555 186.867 120.631 190.247 120.985 194.045H108.642C108.54 191.893 108.135 190.082 107.426 188.614C106.717 187.12 105.629 185.993 104.16 185.233C102.691 184.474 100.742 184.094 98.311 184.094C96.5386 184.094 94.9814 184.423 93.6395 185.081C92.3228 185.74 91.2214 186.765 90.3352 188.158C89.4743 189.55 88.8286 191.323 88.3982 193.475C87.9677 195.602 87.7525 198.134 87.7525 201.071V204.527C87.7525 207.439 87.9424 209.958 88.3222 212.085C88.702 214.212 89.3097 215.972 90.1453 217.365C91.0062 218.757 92.1076 219.795 93.4496 220.479C94.7915 221.163 96.4247 221.504 98.349 221.504C100.552 221.504 102.388 221.163 103.856 220.479C105.325 219.77 106.451 218.707 107.236 217.289C108.021 215.871 108.477 214.086 108.604 211.933ZM153.095 185.689L138.815 230.468H125.598L146.069 175.169H154.424L153.095 185.689ZM164.945 230.468L150.626 185.689L149.145 175.169H157.615L178.162 230.468H164.945ZM164.337 209.883V219.454H135.51V209.883H164.337ZM216.121 211.933H228.427C228.224 215.731 227.186 219.086 225.312 221.998C223.464 224.885 220.894 227.151 217.602 228.797C214.311 230.417 210.399 231.227 205.866 231.227C202.246 231.227 199.005 230.607 196.143 229.366C193.282 228.126 190.852 226.353 188.851 224.049C186.876 221.72 185.357 218.922 184.294 215.655C183.255 212.364 182.736 208.654 182.736 204.527V201.147C182.736 197.02 183.281 193.31 184.37 190.019C185.458 186.727 187.016 183.917 189.041 181.587C191.067 179.258 193.497 177.473 196.333 176.232C199.169 174.991 202.334 174.371 205.828 174.371C210.538 174.371 214.513 175.219 217.754 176.916C220.995 178.612 223.502 180.942 225.274 183.904C227.072 186.867 228.148 190.247 228.503 194.045H216.159C216.058 191.893 215.653 190.082 214.944 188.614C214.235 187.12 213.146 185.993 211.677 185.233C210.209 184.474 208.259 184.094 205.828 184.094C204.056 184.094 202.499 184.423 201.157 185.081C199.84 185.74 198.739 186.765 197.853 188.158C196.992 189.55 196.346 191.323 195.916 193.475C195.485 195.602 195.27 198.134 195.27 201.071V204.527C195.27 207.439 195.46 209.958 195.84 212.085C196.219 214.212 196.827 215.972 197.663 217.365C198.524 218.757 199.625 219.795 200.967 220.479C202.309 221.163 203.942 221.504 205.866 221.504C208.069 221.504 209.905 221.163 211.373 220.479C212.842 219.77 213.969 218.707 214.754 217.289C215.539 215.871 215.994 214.086 216.121 211.933Z" fill="#3725A2"/>
<circle cx="162.532" cy="152.743" r="6.25702" fill="#3725A2"/>
<circle cx="141.403" cy="152.743" r="6.25702" fill="#3725A2"/>
</svg>
