<svg width="15" height="15" viewBox="0 0 15 15" fill="none" xmlns="http://www.w3.org/2000/svg">
<path fill-rule="evenodd" clip-rule="evenodd" d="M0.748812 7.90858C1.19601 13.7441 8.24288 16.4238 12.4153 12.3449C16.0848 8.75756 14.6823 2.56541 9.82521 0.910248C5.19541 -0.667459 0.37635 3.04825 0.748812 7.90858ZM3.57792 7.22126C3.72685 6.6496 4.45759 6.45512 4.87786 6.87527C5.3703 7.36758 5.01959 8.20355 4.32244 8.19921C3.81563 8.19606 3.44932 7.7149 3.57792 7.22126ZM5.92301 7.22126C6.07194 6.6496 6.80268 6.45512 7.22295 6.87527C7.71539 7.36758 7.36468 8.20355 6.66753 8.19921C6.16072 8.19606 5.79441 7.7149 5.92301 7.22126ZM7.88258 9.77958C7.93328 9.62906 7.98471 9.57313 9.06049 8.49826C9.64006 7.91917 10.1142 7.43586 10.1142 7.42424C10.1142 7.41261 9.64006 6.92931 9.06049 6.35022C7.8303 5.12105 7.85341 5.14938 7.85341 4.87085C7.85341 4.37147 8.38742 4.05874 8.82234 4.30343C8.90105 4.34772 11.5427 6.98079 11.6047 7.0768C11.6674 7.1738 11.701 7.29515 11.701 7.42424C11.701 7.55333 11.6674 7.67468 11.6047 7.77167C11.5427 7.86768 8.90105 10.5008 8.82234 10.545C8.31056 10.833 7.69623 10.3326 7.88258 9.77958Z" fill="#3725A2"/>
</svg>
