<svg width="125" height="125" viewBox="0 0 125 125" fill="none" xmlns="http://www.w3.org/2000/svg">
<rect width="125" height="125" fill="#23A6F0"/>
<path d="M25.8517 56.3525V28.7817H30.7264V52.1658H42.5779V56.3525H25.8517Z" fill="white"/>
<path d="M50.7922 32.9685V28.7817H72.2616V32.9685H63.9445V56.3525H59.1093V32.9685H50.7922Z" fill="white"/>
<path d="M84.2668 28.7817L91.27 50.483H91.5459L98.536 28.7817H103.897L94.4103 56.3525H88.3925L78.9192 28.7817H84.2668Z" fill="white"/>
<path d="M44.2163 77.0186H39.3022C39.1621 76.1929 38.9036 75.4615 38.527 74.8243C38.1503 74.1781 37.6817 73.6306 37.1211 73.1819C36.5605 72.7331 35.921 72.3966 35.2028 72.1722C34.4933 71.9388 33.7268 71.8222 32.9034 71.8222C31.4406 71.8222 30.1442 72.1991 29.0142 72.953C27.8842 73.6979 26.9995 74.7928 26.3601 76.2378C25.7206 77.6738 25.4009 79.4284 25.4009 81.5016C25.4009 83.6107 25.7206 85.3877 26.3601 86.8326C27.0083 88.2686 27.893 89.3546 29.0142 90.0905C30.1442 90.8175 31.4362 91.181 32.8903 91.181C33.6961 91.181 34.4495 91.0733 35.1502 90.8579C35.8597 90.6335 36.4948 90.3059 37.0554 89.8751C37.6248 89.4443 38.1022 88.9148 38.4876 88.2866C38.8817 87.6583 39.1533 86.9403 39.3022 86.1326L44.2163 86.1595C44.0323 87.4698 43.6338 88.6994 43.0206 89.8482C42.4162 90.997 41.6235 92.0111 40.6424 92.8907C39.6613 93.7612 38.5139 94.4433 37.1999 94.9369C35.886 95.4216 34.4276 95.6639 32.8246 95.6639C30.4595 95.6639 28.3485 95.103 26.4915 93.9811C24.6345 92.8593 23.1716 91.2393 22.103 89.1212C21.0343 87.0032 20.5 84.4633 20.5 81.5016C20.5 78.5309 21.0387 75.991 22.1161 73.8819C23.1935 71.7638 24.6607 70.1439 26.5178 69.022C28.3748 67.9001 30.477 67.3392 32.8246 67.3392C34.3224 67.3392 35.7152 67.5546 37.0028 67.9854C38.2905 68.4162 39.438 69.0489 40.4453 69.8836C41.4527 70.7093 42.2804 71.7234 42.9286 72.9261C43.5856 74.1197 44.0148 75.4839 44.2163 77.0186Z" fill="white"/>
<path d="M55.1921 95.2869H49.989L59.4624 67.7162H65.4801L74.9666 95.2869H69.7635L62.5764 73.3703H62.3661L55.1921 95.2869Z" fill="white"/>
<path d="M103.897 77.0186H98.9827C98.8426 76.1929 98.5842 75.4615 98.2075 74.8243C97.8309 74.1781 97.3622 73.6306 96.8016 73.1819C96.241 72.7331 95.6016 72.3966 94.8833 72.1722C94.1738 71.9388 93.4073 71.8222 92.5839 71.8222C91.1211 71.8222 89.8247 72.1991 88.6947 72.953C87.5648 73.6979 86.6801 74.7928 86.0406 76.2378C85.4012 77.6738 85.0815 79.4284 85.0815 81.5016C85.0815 83.6107 85.4012 85.3877 86.0406 86.8326C86.6888 88.2686 87.5735 89.3546 88.6947 90.0905C89.8247 90.8175 91.1167 91.181 92.5708 91.181C93.3767 91.181 94.13 91.0733 94.8307 90.8579C95.5403 90.6335 96.1753 90.3059 96.7359 89.8751C97.3053 89.4443 97.7827 88.9148 98.1681 88.2866C98.5623 87.6583 98.8338 86.9403 98.9827 86.1326L103.897 86.1595C103.713 87.4698 103.314 88.6994 102.701 89.8482C102.097 90.997 101.304 92.0111 100.323 92.8907C99.3419 93.7612 98.1944 94.4433 96.8804 94.9369C95.5665 95.4216 94.1081 95.6639 92.5051 95.6639C90.14 95.6639 88.029 95.103 86.172 93.9811C84.315 92.8593 82.8522 91.2393 81.7835 89.1212C80.7149 87.0032 80.1805 84.4633 80.1805 81.5016C80.1805 78.5309 80.7192 75.991 81.7967 73.8819C82.8741 71.7638 84.3413 70.1439 86.1983 69.022C88.0553 67.9001 90.1576 67.3392 92.5051 67.3392C94.003 67.3392 95.3957 67.5546 96.6834 67.9854C97.971 68.4162 99.1185 69.0489 100.126 69.8836C101.133 70.7093 101.961 71.7234 102.609 72.9261C103.266 74.1197 103.695 75.4839 103.897 77.0186Z" fill="white"/>
</svg>
